<svg id="_02_illust" data-name="02_illust" xmlns="http://www.w3.org/2000/svg" width="492" height="436" viewBox="0 0 492 436">
  <defs>
    <style>
      .cls-1, .cls-4 {
        fill: #ff5d8f;
      }

      .cls-1, .cls-10, .cls-7 {
        opacity: 0.1;
      }

      .cls-2 {
        fill: #65617d;
      }

      .cls-3 {
        fill: #3f3d56;
      }

      .cls-5 {
        fill: #be6f72;
      }

      .cls-6 {
        fill: #fbbebe;
      }

      .cls-8 {
        fill: #e3e8f4;
      }

      .cls-9 {
        fill: #f86d70;
      }

      .cls-11 {
        fill: none;
        stroke: #3f3d56;
        stroke-miterlimit: 10;
      }
    </style>
  </defs>
  <path id="路径_828" data-name="路径 828" class="cls-1" d="M443.079,347.785c19.229-6.227,39.559-11.447,60.337-10.909,30.546.794,59.916,15.037,74.4,36.087,12.244,17.838,13.878,38.8,19.223,58.639,6.585,24.438,19.085,47.629,32.426,70.309,7.166,12.182,14.725,24.619,15.971,38,1.709,18.584-9.545,37.163-27.288,49.616s-41.353,19.09-65.075,20.64c-12.622.82-25.814.186-37.052-4.362-11.887-4.794-20.581-13.566-32.516-18.307-11.062-4.389-23.956-4.954-36.365-4.309a202.23,202.23,0,0,0-47.411,8.128c-17.3,5.177-33.368,12.629-50.627,17.881s-36.551,8.224-54.236,4c-16.6-3.963-29.774-13.732-41.651-23.628a452.979,452.979,0,0,1-53.209-52.2C189.28,524.916,179.288,511.76,174.5,497.2c-9.151-27.836,3.109-59.353,30.541-78.523,22.726-15.889,53.3-22.9,83.239-27.165,27.3-3.926,58.894-4.314,83.989-14.312C396.2,367.642,417.973,355.913,443.079,347.785Z" transform="translate(-171.499 -179.21)"/>
  <ellipse id="椭圆_41" data-name="椭圆 41" class="cls-1" cx="11.521" cy="11.521" rx="11.521" ry="11.521" transform="translate(411.773 20.711)"/>
  <ellipse id="椭圆_42" data-name="椭圆 42" class="cls-1" cx="11.521" cy="11.521" rx="11.521" ry="11.521" transform="translate(212.647 2.527)"/>
  <ellipse id="椭圆_43" data-name="椭圆 43" class="cls-1" cx="11.521" cy="11.521" rx="11.521" ry="11.521" transform="translate(29.988 48.041)"/>
  <ellipse id="椭圆_44" data-name="椭圆 44" class="cls-1" cx="19.308" cy="19.308" rx="19.308" ry="19.308" transform="translate(453.383 118.51)"/>
  <ellipse id="椭圆_45" data-name="椭圆 45" class="cls-1" cx="19.308" cy="19.308" rx="19.308" ry="19.308" transform="translate(434.874 213.811)"/>
  <ellipse id="椭圆_46" data-name="椭圆 46" class="cls-1" cx="19.308" cy="19.308" rx="19.308" ry="19.308" transform="translate(73.511 129.749)"/>
  <path id="路径_852" data-name="路径 852" class="cls-2" d="M570.325,386.145c.682.064,1.374.032,2.051.139a9.338,9.338,0,0,1,3.2,1.284c4.847,2.759,9.422,6.552,11.431,11.75a1.6,1.6,0,0,1,.149,1.039,1.757,1.757,0,0,1-.565.735l-1.886,1.715a2.663,2.663,0,0,1-.836.586,2.733,2.733,0,0,1-1.545-.048c-5.183-1.188-10.69-2.557-14.328-6.434-1.726-1.838-3.318-4.368-5.859-4.437a26.907,26.907,0,0,0-3.111.533,2.273,2.273,0,0,1-2.562-1.348,2.834,2.834,0,0,1,.17-1.507l1.566-5.215c.426-1.427,4.725-1.5,6.157-1.246C566.538,384.068,568.008,385.932,570.325,386.145Z" transform="translate(-317.975 -200.952)"/>
  <path id="路径_853" data-name="路径 853" class="cls-2" d="M594.6,431.1a43.848,43.848,0,0,0,.224,5.358,15.63,15.63,0,0,0,1.326,4.021,26.4,26.4,0,0,0,3.622,5.7,11.228,11.228,0,0,0,4.959,3.729,5.227,5.227,0,0,0,5.7-1.507c1.017-1.369,1.065-3.2.991-4.906a30.042,30.042,0,0,0-2.727-12.224c-.81-1.6-1.838-3.121-2.663-4.735-1.726-3.35-2.711-7.324-5.689-9.635a18.7,18.7,0,0,1-5.912,1.625c-.794.085-3.063.138-3.329,1.156-.181.687,1.31,2.61,1.6,3.286a22.433,22.433,0,0,1,1.9,8.128Z" transform="translate(-360.694 -216.537)"/>
  <path id="路径_854" data-name="路径 854" class="cls-3" d="M626.412,275.822a18.251,18.251,0,0,0-1.6,4.964c-.107,1.065,0,2.131,0,3.2a20.874,20.874,0,0,1-.724,4.314l-2.967,12.144a15.555,15.555,0,0,0-.655,5.534,29.159,29.159,0,0,1,.6,3.675,14.249,14.249,0,0,1-.447,2.786,17.163,17.163,0,0,0,.447,8.469,1.268,1.268,0,0,1,.091.655c-.075.346-.41.559-.714.724a30.419,30.419,0,0,1-10.28,3.425,100.693,100.693,0,0,1-6.765-24.155c-.756-5.028-1.124-10.12-2.093-15.111a1.235,1.235,0,0,0-.346-.767c-.362-.3-.911-.112-1.337.091a119.326,119.326,0,0,0-15.665,9.055,19.569,19.569,0,0,1-3.617-16.2A33.552,33.552,0,0,1,583,271.656a39.356,39.356,0,0,1,4.528-7.6c3.952-4.954,9.747-8.118,15.713-10.264,3.627-1.31,7.361-2.28,11.09-3.27,2.088-.559,5.587-2.381,7.617-.964,2.131,1.475,3.547,5.135,4.421,7.457a27.475,27.475,0,0,1,1.736,9,25.418,25.418,0,0,1-1.694,9.811Z" transform="translate(-371.386 -138.048)"/>
  <path id="路径_855" data-name="路径 855" class="cls-3" d="M599.89,317.66c1.113,1.214.176,3.153.389,4.794a6.623,6.623,0,0,0,.783,2.1l5.1,10.008a18.556,18.556,0,0,1,1.9,4.794c.7,3.611-.735,7.67,1.1,10.861.591,1.028,1.507,1.912,1.752,3.073a24.606,24.606,0,0,1,.09,2.589,17.257,17.257,0,0,0,.959,2.882,20.071,20.071,0,0,1,.5,2.834,16.672,16.672,0,0,0,5.987,10.355,9.524,9.524,0,0,0,6.6,2.248c2.376-.2,4.735-1.816,5.22-4.149a5.46,5.46,0,0,1,.628-2.322c.7-.921,2.184-.959,2.86-1.9l-2.621-4.314a10.194,10.194,0,0,1-1.779-4.293c-.16-1.912.762-3.819.431-5.71-.282-1.625-1.449-2.977-1.8-4.586-.437-2,.437-4.016.911-6.008,1.161-4.906-.138-10.019-1.433-14.914-1.72-6.477-3.483-13.055-6.967-18.781C613.542,310.965,607.15,314.56,599.89,317.66Z" transform="translate(-387.682 -165.257)"/>
  <path id="路径_856" data-name="路径 856" class="cls-4" d="M587.431,132.785a8.691,8.691,0,0,0-.112,3.579c.186,2.663-.378,5.326-.25,8.027a47.75,47.75,0,0,0,1.534,7.9c1.635,7.494,1.241,15.3,2.722,22.829,1.827,9.321,6.5,18,7.42,27.463.293,3,.256,6.221,1.9,8.757a137.5,137.5,0,0,0,27.548-16.182c-1.875-13.907-3.729-27.884-3.478-41.914a17.992,17.992,0,0,0-.352-5.049,15.569,15.569,0,0,0-1.9-3.931c-2.061-3.35-4.33-6.568-6.594-9.779-1.449-2.056-3.015-4.213-5.326-5.177s-5.049-.533-7.569-.075l-9.087,1.662C592,131.246,588.241,130.585,587.431,132.785Z" transform="translate(-375.289 -81.772)"/>
  <path id="路径_857" data-name="路径 857" class="cls-5" d="M527.494,219.96a28.429,28.429,0,0,1,4.048-3.361c-1.891-2.3-1.518-5.63-1.981-8.576a28.285,28.285,0,0,0-1.72-5.577c-.192-.506-.463-1.065-.991-1.2a1.742,1.742,0,0,0-.948.149c-1.6.565-4.932.533-6.173,1.566-1.5,1.257-.128,3.888.437,5.46C520.564,209.478,526.7,220.759,527.494,219.96Z" transform="translate(-242.444 -115.692)"/>
  <path id="路径_858" data-name="路径 858" class="cls-2" d="M482.439,404.058a11.036,11.036,0,0,0-1.539,4.261,4.229,4.229,0,0,0,1.715,3.968c1.289.8,3.137.533,4.671.053a24.31,24.31,0,0,0,14.728-13.316,6.59,6.59,0,0,1,3.867-4.581,11.328,11.328,0,0,0,5.081-4.943c.969-2.205.533-5.151-1.475-6.461a5.444,5.444,0,0,0-4.176-.533,16.15,16.15,0,0,0-3.952,1.72c-2.067,1.124-4.591,2.093-6.392,3.59a41.193,41.193,0,0,0-4.394,4.645,65.323,65.323,0,0,0-4.384,5.593C485.752,398.625,482.071,403.541,482.439,404.058Z" transform="translate(-202.035 -200.362)"/>
  <path id="路径_859" data-name="路径 859" class="cls-2" d="M434.895,388.638a36.892,36.892,0,0,0,1.412,7.91,7.317,7.317,0,0,0,2.2,3.878,8.049,8.049,0,0,0,3.361,1.23,2.41,2.41,0,0,0,2.993-1.31,22.806,22.806,0,0,0,4.261-7.7c1.065-4.139,0-8.576-1.848-12.443a12.733,12.733,0,0,0-2.85-4.149,10.913,10.913,0,0,0-5.23-2.349c-1.965-.394-4.378-1.236-4.522,1.156a111.151,111.151,0,0,0,.224,13.774Z" transform="translate(-115.466 -196.12)"/>
  <path id="路径_860" data-name="路径 860" class="cls-3" d="M416.754,214.19c-3.675,1.9-7.755,4.32-8.522,8.384-.474,2.482.437,5.023.288,7.548-.133,2.221-1.065,4.368-.948,6.583a31,31,0,0,0,.533,3.116,50.417,50.417,0,0,1,.208,5.955c.176,4.474,1.672,8.778,2.4,13.194a38.649,38.649,0,0,1,.357,9.54c-.176,2.056-.533,4.1-.533,6.168a27.02,27.02,0,0,0,.368,4.443,44.314,44.314,0,0,0,4.261,13.246c2.562,5.044,2.2,11.553,1.928,17.2a4.261,4.261,0,0,0,.288,2.3c.671,1.22,2.344,1.4,3.729,1.278a20.241,20.241,0,0,0,13.316-6.743,3.414,3.414,0,0,0,.969-1.795c.117-1.14-.8-2.077-1.459-3.02-2.248-3.2-1.678-7.526-1.944-11.452a25.035,25.035,0,0,0-2.019-8.283,15.571,15.571,0,0,1-1.635-4.666,11.785,11.785,0,0,1,.794-4.533l1.6-5.071c2.477-7.878,4.97-15.8,8.719-23.159a11.585,11.585,0,0,1,4.927,6.924c1.4,5.017-.591,10.621,1.31,15.447a14.122,14.122,0,0,1,.783,2.072,8.336,8.336,0,0,1,.128,1.859,151.367,151.367,0,0,1-.948,15.537,4.794,4.794,0,0,1-.639,2.221c-.314.453-.772.788-1.108,1.22-.932,1.209-.756,2.9-.533,4.41l1.065,7.127a1.933,1.933,0,0,0,.346,1.007,1.906,1.906,0,0,0,.906.49,25.248,25.248,0,0,0,10.472.959,6.947,6.947,0,0,0,2.85-1.406c.091-1.065-1.236-1.774-1.284-2.834a2.445,2.445,0,0,1,.815-1.63c1.981-2.237,4.346-4.613,4.325-7.6,0-.783-.186-1.566-.16-2.349.069-2.008,1.454-3.729,1.939-5.662.6-2.392-.2-4.874-.5-7.319a37.807,37.807,0,0,1,.533-9.913l1.784-12.059a32.3,32.3,0,0,1,1.108-5.529,43.284,43.284,0,0,1,2.36-5.188c1.7-3.462,3.105-7.063,4.5-10.653a9.711,9.711,0,0,0,.826-3.084,7.514,7.514,0,0,0-2.035-4.959,15.505,15.505,0,0,0-8.522-5.167,3.728,3.728,0,0,0-1.71-.069,4.59,4.59,0,0,0-1.326.7,31.863,31.863,0,0,1-28.161,3.34,2.322,2.322,0,0,1-2.131-.059,27.268,27.268,0,0,1-4.607-3.2A27.434,27.434,0,0,0,416.754,214.19Z" transform="translate(-126.794 -121.759)"/>
  <path id="路径_861" data-name="路径 861" class="cls-3" d="M339.285,464.521a7.287,7.287,0,0,1-1.257,2.242c-1.928,2.514-4.618,4.522-5.859,7.457-.261.628-.453,1.289-.692,1.928a12.682,12.682,0,0,1-3.462,5.018,21.306,21.306,0,0,1-3.819,2.53c-2.354,1.284-4.9,2.445-7.574,2.376a8.226,8.226,0,0,1-1.6-.192,8.644,8.644,0,0,1-2.381-.874c-1.72-.948-3.2-2.8-2.855-4.735a4.332,4.332,0,0,1,.346-1.065,11.18,11.18,0,0,1,.975-1.539,11.562,11.562,0,0,1,3.143-3.324c1.481-.906,3.345-1.129,4.677-2.248a7.35,7.35,0,0,0,1.348-1.63,20.549,20.549,0,0,0,2.663-6.035c.4-1.6.676-3.35,1.843-4.522s2.77-1.438,4.325-1.7a7.511,7.511,0,0,1,1.6-.154,4.516,4.516,0,0,0,2.264-.112c.714-.357.953-.863,1.816-.794a3.729,3.729,0,0,1,1.87.815C338.678,459.456,340.02,462.119,339.285,464.521Z" transform="translate(61.04 -235.351)"/>
  <path id="路径_862" data-name="路径 862" class="cls-6" d="M322.163,469.278c-.346,1.806-.879,3.728-2.274,4.906-.89.767-2.131,1.246-2.573,2.328a3.8,3.8,0,0,0,.863,3.43,12.634,12.634,0,0,0,3.43,3.148,5.129,5.129,0,0,0,3.771.921,6.3,6.3,0,0,0,2.7-1.758,18.748,18.748,0,0,0,4.709-5.7c1.065-2.386,1.119-5.151,2.28-7.5.676-1.369,1.72-2.567,2.131-4.038a2.509,2.509,0,0,0,0-1.641,2.312,2.312,0,0,0-2.088-1.241,7.265,7.265,0,0,0-2.5.533,55.021,55.021,0,0,1-7.366,2.061c-1,.186-1.6.181-2.131,1.145a11.483,11.483,0,0,0-.953,3.409Z" transform="translate(59.238 -237.683)"/>
  <path id="路径_863" data-name="路径 863" class="cls-6" d="M359.891,501.529a5.859,5.859,0,0,1,.826,1.981,4.427,4.427,0,0,1,.059,1.673,8.643,8.643,0,0,1-2.381-.874c-1.72-.948-3.2-2.8-2.855-4.735a4.33,4.33,0,0,1,.346-1.065,1.486,1.486,0,0,1,1.417.442A11.764,11.764,0,0,1,359.891,501.529Z" transform="translate(15.34 -254.673)"/>
  <path id="路径_864" data-name="路径 864" class="cls-3" d="M353.762,425.267a2.621,2.621,0,0,1,.2,1.6c-.245,1.065-1.337,1.678-2.322,2.163l-9.369,4.581a19.635,19.635,0,0,0-1.9,1.007,27.923,27.923,0,0,0-4.219,3.633,11.068,11.068,0,0,1-4.687,2.9,7.92,7.92,0,0,1-5.326-.7,11.008,11.008,0,0,1-2.44-1.656,15,15,0,0,1-1.758-1.827,3.942,3.942,0,0,1-.953-1.72,3.777,3.777,0,0,1,.874-2.738,12.647,12.647,0,0,1,1.065-1.321c3.553-3.926,9.375-5.96,14.381-6.759a40.953,40.953,0,0,0,5.8-1.673,13.583,13.583,0,0,1,5.939-.783A5.88,5.88,0,0,1,353.762,425.267Z" transform="translate(40.553 -218.867)"/>
  <path id="路径_865" data-name="路径 865" class="cls-7" d="M353.762,425.267a2.621,2.621,0,0,1,.2,1.6c-.245,1.065-1.337,1.678-2.322,2.163l-9.369,4.581a19.635,19.635,0,0,0-1.9,1.007,27.923,27.923,0,0,0-4.219,3.633,11.068,11.068,0,0,1-4.687,2.9,7.92,7.92,0,0,1-5.326-.7,11.008,11.008,0,0,1-2.44-1.656,15,15,0,0,1-1.758-1.827,3.942,3.942,0,0,1-.953-1.72,3.777,3.777,0,0,1,.874-2.738,12.647,12.647,0,0,1,1.065-1.321c3.553-3.926,9.375-5.96,14.381-6.759a40.953,40.953,0,0,0,5.8-1.673,13.583,13.583,0,0,1,5.939-.783A5.88,5.88,0,0,1,353.762,425.267Z" transform="translate(40.553 -218.867)"/>
  <path id="路径_866" data-name="路径 866" class="cls-6" d="M353.992,432.327a10.652,10.652,0,0,0-1.758,2.711,3.036,3.036,0,0,0-.4,2.168,3.164,3.164,0,0,0,.975,1.278l.932.863a3.73,3.73,0,0,0,.969.724,3.879,3.879,0,0,0,1.6.24,5.954,5.954,0,0,0,3.617-.751,4,4,0,0,0,1.007-4.666,10.069,10.069,0,0,0-3.3-3.872C356.549,430.143,354.754,431.523,353.992,432.327Z" transform="translate(16.882 -223.003)"/>
  <path id="路径_867" data-name="路径 867" class="cls-6" d="M379.625,441.845a4.735,4.735,0,0,1-.24,2.637c-.234.8-.463,1.6-.692,2.413v.032a15,15,0,0,1-1.758-1.827,3.942,3.942,0,0,1-.953-1.72,3.777,3.777,0,0,1,.874-2.738,12.644,12.644,0,0,1,1.065-1.321c.25.325.469.644.65.852A4.7,4.7,0,0,1,379.625,441.845Z" transform="translate(-14.434 -227.015)"/>
  <path id="路径_868" data-name="路径 868" class="cls-3" d="M351.108,339.241c1.1,4.634.634,9.481.048,14.211-.447,3.6-.948,7.329.117,10.8.394,1.294,1.017,2.61.778,3.947-.453,2.519-3.489,3.489-6,3.963a5.917,5.917,0,0,1-2.221.133,5.273,5.273,0,0,1-2.024-1.065,22.127,22.127,0,0,1-7.793-10.36,38.327,38.327,0,0,1-1.55-8.661c-.49-4.922-.985-9.9-.266-14.792.213-1.438.533-2.86.666-4.309a31.14,31.14,0,0,0-.415-7.537,121.589,121.589,0,0,0-4.155-18.185,24.5,24.5,0,0,0,14.744-2.663c-.874.469.128,7.942.234,8.991a61.032,61.032,0,0,0,1.689,9.268C346.442,328.662,349.761,333.595,351.108,339.241Z" transform="translate(38.547 -164.088)"/>
  <path id="路径_869" data-name="路径 869" class="cls-7" d="M351.108,339.241c1.1,4.634.634,9.481.048,14.211-.447,3.6-.948,7.329.117,10.8.394,1.294,1.017,2.61.778,3.947-.453,2.519-3.489,3.489-6,3.963a5.917,5.917,0,0,1-2.221.133,5.273,5.273,0,0,1-2.024-1.065,22.127,22.127,0,0,1-7.793-10.36,38.327,38.327,0,0,1-1.55-8.661c-.49-4.922-.985-9.9-.266-14.792.213-1.438.533-2.86.666-4.309a31.14,31.14,0,0,0-.415-7.537,121.589,121.589,0,0,0-4.155-18.185,24.5,24.5,0,0,0,14.744-2.663c-.874.469.128,7.942.234,8.991a61.032,61.032,0,0,0,1.689,9.268C346.442,328.662,349.761,333.595,351.108,339.241Z" transform="translate(38.547 -164.088)"/>
  <path id="路径_870" data-name="路径 870" class="cls-3" d="M319.951,306.119c-2.131,6.173-1.662,12.917-.74,19.383s2.28,12.933,1.88,19.447c-.154,2.557-.57,5.183.176,7.627a16.672,16.672,0,0,0,1.635,3.4l17,29.391a5.284,5.284,0,0,0,4.261,2.663,12.341,12.341,0,0,0,5.294-1.135,9.524,9.524,0,0,0,3.084-1.71,3.649,3.649,0,0,0,1.3-3.121c-.762-5.1-1.907-10.328-2.754-15.447a26.74,26.74,0,0,0-3.7-9.785c-1.316-2.131-2.935-4.043-4.069-6.259-3.26-6.349-2.131-14.094.384-20.773s6.259-12.879,8.256-19.708a22.594,22.594,0,0,0,1.007-5.859,15.623,15.623,0,0,0-4.453-11.111,3.9,3.9,0,0,0-1.539-1.065,4.314,4.314,0,0,0-2.1.037C335.408,293.937,323.078,297,319.951,306.119Z" transform="translate(42.048 -158.123)"/>
  <path id="路径_871" data-name="路径 871" class="cls-6" d="M600.718,139.162a10.7,10.7,0,0,0,1.731,6.711,18.981,18.981,0,0,0,23.064,7.388c3.329-1.454,6.147-3.851,8.906-6.216a7.928,7.928,0,0,0,2.36-2.764c.826-2-.17-4.378-1.795-5.806a15.253,15.253,0,0,0-5.822-2.764C622.253,133.558,602.364,126.772,600.718,139.162Z" transform="translate(-391.412 -83.259)"/>
  <path id="路径_872" data-name="路径 872" class="cls-3" d="M662.014,131.576c-6.291,5.06-15.447,9.881-22.574,13.63-2.424,1.278-5.113,2.716-5.987,5.326a10.371,10.371,0,0,0-.16,4.384,29.57,29.57,0,0,0,1.7,8.325c1.284,3.073,3.553,5.609,5.374,8.4,3.2,4.89,5.071,10.653,9.018,14.973-2.663,8.847-5.577,17.684-6.525,26.867a1.235,1.235,0,0,0,.08.751,1.289,1.289,0,0,0,.415.378l6.626,4.346a7.457,7.457,0,0,1,1.912,1.6c1.172,1.523,1.017,3.665,1.742,5.438a7.068,7.068,0,0,0,4.1,3.729,12.629,12.629,0,0,0,5.641.6,13.113,13.113,0,0,0,6.733-2.37,18.622,18.622,0,0,0,4.053-4.842,18.853,18.853,0,0,0,2.131-3.883,17.485,17.485,0,0,0,.724-6.184,65.372,65.372,0,0,0-1.135-11.841c-.309-1.55-.692-3.079-.937-4.639-.49-3.143-.394-6.349-.756-9.508a63.952,63.952,0,0,0-2.37-10.477,54.06,54.06,0,0,1-1.385-6.445,70.668,70.668,0,0,0-3.105-11.186l-2.131-6.291c-.453-1.358-.911-2.711-1.449-4.037-1-2.477-2.29-4.89-2.631-7.532-.378-2.882,2.732-6.3,1.683-9.007C662.717,131.778,662.253,131.384,662.014,131.576Z" transform="translate(-448.652 -83.076)"/>
  <path id="路径_873" data-name="路径 873" class="cls-3" d="M644.945,164.42c-1.475.666-2.29,2.253-2.818,3.787a21.466,21.466,0,0,0-.831,10.759,19.254,19.254,0,0,1,.426,2.748,18.34,18.34,0,0,1-.314,3.2c-.533,4.075,0,8.213-.176,12.325-.181,4.623-1.188,9.508.751,13.71,1.289,2.791,3.729,4.868,6.136,6.754a122.786,122.786,0,0,0,29.386,16.959c-1.816-2.184-1.848-5.47-.639-8.043a14.958,14.958,0,0,1,5.859-6.008,37.753,37.753,0,0,1-8.815-3.148c-5.582-2.834-10.365-6.983-15.09-11.09a4.591,4.591,0,0,1-1.566-1.981c-.479-1.6.841-3.116,1.758-4.517,2.775-4.261,2.131-9.827.969-14.76-1.294-5.406-3.2-10.791-6.663-15.138A14.972,14.972,0,0,0,644.945,164.42Z" transform="translate(-458.438 -98.482)"/>
  <path id="路径_874" data-name="路径 874" class="cls-6" d="M619.075,284.963a7.282,7.282,0,0,0,1.832,2.013c1.6,1.065,3.792.66,5.577-.1A16.272,16.272,0,0,0,631.012,284a7.1,7.1,0,0,1,2.008-1.491c1.4-.533,3.345-.133,4.128-1.417a.751.751,0,0,0,.128-.458c-.048-.463-.655-.591-1.124-.618a13.951,13.951,0,0,1-6.163-1.9,5.917,5.917,0,0,0,1.513-1.6,1.247,1.247,0,0,0,.256-.756,1.352,1.352,0,0,0-.463-.756,11.856,11.856,0,0,0-13.039-2.173,2.6,2.6,0,0,0-1.065.8,2.956,2.956,0,0,0-.389,1.065c-.346,1.491-1.6,3.729-1.145,5.236C616.156,281.661,618.047,283.5,619.075,284.963Z" transform="translate(-399.553 -148.672)"/>
  <path id="路径_875" data-name="路径 875" class="cls-3" d="M591.881,206.7c-6.626-7.654-9.588-17.726-12.336-27.469l-1.965-6.924-4.741-16.677c-.7-2.461-1.4-4.922-1.859-7.43a68.766,68.766,0,0,1-.82-13.156,14.237,14.237,0,0,1,1.23-5.284c.463-1.151.687-2.376,1.065-3.563a17.78,17.78,0,0,1,2.136-4.682,4.9,4.9,0,0,1,.964-1.151,5.6,5.6,0,0,1,2.179-.884,19.174,19.174,0,0,1,5.215-.794,6.464,6.464,0,0,1,4.73,2.019,24.518,24.518,0,0,1,1.955,3.515,13.721,13.721,0,0,1,.868,1.475,7.459,7.459,0,0,1,.479,2.418q.415,5.034.708,10.078c.091,1.529.17,3.068.112,4.6-.048,1.193-.176,2.381-.3,3.569L590.235,158c-.293,2.732-.085,5.289-.33,8.027-.6,6.61.826,13.22,2.285,19.708a35.443,35.443,0,0,0,2.908,9c1.316,2.471,3.286,4.98,2.764,7.734a26.874,26.874,0,0,0-.74,2.823,5.665,5.665,0,0,1-.176,1.784,2.13,2.13,0,0,1-2.274,1.065A5.278,5.278,0,0,1,591.881,206.7Z" transform="translate(-336.049 -77.078)"/>
  <path id="路径_876" data-name="路径 876" class="cls-6" d="M568.584,219.856c-.2,1.529-.048,3.079-.122,4.618a31.143,31.143,0,0,1-1.065,5.859c-.533,2.131-1.214,4.517-3.095,5.7a9.724,9.724,0,0,0-1.348.847,1.31,1.31,0,0,0-.437,1.427l1.465-.245a1.486,1.486,0,1,0,2.045,2.131,3.468,3.468,0,0,0,.133,1.427,1.161,1.161,0,0,0,1.065.8,1.715,1.715,0,0,0,.762-.32l3.824-2.37a7.059,7.059,0,0,0,2.754-2.663l1.673-2.519a6.018,6.018,0,0,0,.868-1.6c.623-2.131-1.119-4.5-.213-6.5a8.742,8.742,0,0,1,.953-1.4c1.933-2.663,1.811-6.285,1.6-9.588-.069-1.113-.272-2.434-1.278-2.919a2.626,2.626,0,0,0-2.5.442,10.61,10.61,0,0,1-2.237,1.412c-.533.181-1.119.2-1.651.394-.746.261-1.438,1.278-1.939,1.88A6.237,6.237,0,0,0,568.584,219.856Z" transform="translate(-313.567 -120.903)"/>
  <path id="路径_877" data-name="路径 877" class="cls-5" d="M472.611,110.612a9.472,9.472,0,0,0,1.875,2.8,3.627,3.627,0,0,0,3.089,1.065,5.454,5.454,0,0,0,2.834-2.131,37.155,37.155,0,0,0,5.492-7.681c2.1-4.33,2.434-9.273,2.738-14.072a6.678,6.678,0,0,0-.453-3.627c-.751-1.38-2.344-2.029-3.814-2.578l-8.123-3.036a3.148,3.148,0,0,0-1.6-.293c-1.273.213-1.742,1.747-2.088,2.988a18.641,18.641,0,0,1-3.036,6.179c-1.822,2.429-5.907,5.7-3.574,8.73C468.77,102.591,470.56,106.511,472.611,110.612Z" transform="translate(-170.945 -59.487)"/>
  <path id="路径_878" data-name="路径 878" class="cls-8" d="M431.621,98.908c-3.558,3.345-4.762,8.554-4.591,13.428s1.523,9.625,2.3,14.44.927,9.955-1.167,14.381a36.193,36.193,0,0,0-2.2,4.527,14.208,14.208,0,0,0-.421,4.863,13.886,13.886,0,0,0,.969,5.028c1.135,2.514,3.468,4.261,5.7,5.859,4.554,3.292,9.2,6.637,14.547,8.357A44.568,44.568,0,0,0,458,171.551a35.783,35.783,0,0,0,7.7-.218,20.917,20.917,0,0,0,11.692-6.189,6.551,6.551,0,0,0,1.326-1.827,7.591,7.591,0,0,0,.463-2.77q.192-5.247-.064-10.493a46.129,46.129,0,0,0-1.369-9.881c-1.017-3.729-2.78-7.223-4.117-10.855-4.655-12.629-4.187-27-10.653-38.793-1.4-2.546-3.729-5.225-6.6-4.82a2.216,2.216,0,0,0-1.459.671,3.073,3.073,0,0,0-.533,1.641c-.687,5.731-1.662,11.612-4.362,16.784-1.065,2.029-2.663,5.119-5.119,5.662s-3.9-1.8-5.22-3.462a42.511,42.511,0,0,0-8.064-8.091Z" transform="translate(-140.354 -61.643)"/>
  <path id="路径_879" data-name="路径 879" class="cls-3" d="M510.339,91.389a10.616,10.616,0,0,0-2.019,1.417,8.164,8.164,0,0,0-2.173,6.024,46.834,46.834,0,0,0,.852,6.53c.858,5.859.128,11.857-.213,17.79a8.614,8.614,0,0,0,.17,2.866c.261.895.8,1.683,1.145,2.551,1.017,2.567.25,5.5.847,8.192.639,2.871,2.828,5.481,2.418,8.395-.165,1.14-.714,2.189-.948,3.318a2.917,2.917,0,0,0,.943,3.1c.975.607,2.392.165,3.553.5a10.939,10.939,0,0,1,1.374.618,6.751,6.751,0,0,0,5.7-.352,17.29,17.29,0,0,0,4.607-3.654c2.029-2.077,3.995-4.352,4.884-7.116,1.3-4.006.144-8.368-1.268-12.341s-3.095-7.99-2.844-12.214a53.824,53.824,0,0,1,1.332-6.962,44.528,44.528,0,0,0,.591-9.747,17.336,17.336,0,0,0-1.257-7,9.646,9.646,0,0,0-7.628-5.22C516.683,87.677,513.487,89.578,510.339,91.389Z" transform="translate(-236.081 -62.747)"/>
  <path id="路径_880" data-name="路径 880" class="cls-7" d="M534.243,168.46a16.24,16.24,0,0,1-.905,5,19.9,19.9,0,0,1-1.193-6.978c-.533-8.144-2.338-15.825-4.261-23.713,1.4,1.065,2.189,3.729,2.86,5.326a46.97,46.97,0,0,1,3.5,20.363Z" transform="translate(-249.911 -88.332)"/>
  <path id="路径_881" data-name="路径 881" class="cls-3" d="M384.651,84.175c2.567.676,4.794,2.2,7.281,3.2a54.377,54.377,0,0,0,8.075,2.173c6.275,1.523,12.576,4.352,16.363,9.588,2.791,3.851,3.947,8.608,5.859,12.97,1.6,3.659,3.728,7.09,4.906,10.9,1.539,4.97,1.364,10.3.985,15.484-.309,4.261-.778,8.57-2.711,12.347-1.012,1.981-2.408,3.755-3.42,5.737-1.214,2.381-1.854,5.007-2.866,7.457s-2.5,4.9-4.847,6.179l-3.888-2.274c-5.8-3.393-11.6-6.791-17.22-10.477-4.9-3.2-9.843-6.866-12.453-12.118-2.312-4.639-2.541-10.062-1.944-15.212s1.96-10.19,2.663-15.324a61.711,61.711,0,0,0-.4-19.447c-.533-2.9-1.95-5.891-2.242-8.778C378.467,83.488,382.43,83.589,384.651,84.175Z" transform="translate(-64.45 -60.795)"/>
  <path id="路径_882" data-name="路径 882" class="cls-6" d="M415.622,237.6c-2.977,2.818-7.26,3.638-10.983,5.326a23.581,23.581,0,0,0-7.335,5.326c-1.145,1.257-2.253,2.967-1.678,4.565.485,1.374,1.971,2.077,3.334,2.589,1.694.639,3.585,1.2,5.273.559a18.944,18.944,0,0,0,2.7-1.673c2.232-1.326,5.044-1.332,7.335-2.557,3.228-1.726,4.836-5.524,7.872-7.574,1.662-1.119,3.958-2.035,4.128-4.032a4.874,4.874,0,0,0-.447-2.093c-.613-1.63-1.657-7.228-3.99-7.079C419.292,231.123,417.513,236.252,415.622,237.6Z" transform="translate(-71.38 -129.589)"/>
  <path id="路径_883" data-name="路径 883" class="cls-6" d="M342.94,183.361c-.975,3.5-3.238,6.493-5.587,9.273-1.689,2-3.542,4.171-3.6,6.786a7.152,7.152,0,0,0,3.729,6.008,15.8,15.8,0,0,0,7.106,1.827,17.923,17.923,0,0,0,5.891-.41c4.868-1.321,8.245-5.566,12.075-8.847,2.274-1.944,4.831-3.638,6.573-6.072s2.477-5.928.762-8.384a12.133,12.133,0,0,0-2.131-2.131,35.612,35.612,0,0,1-7.345-8.815,9.5,9.5,0,0,0-2.871-3.59c-1.9-1.156-4.341-.628-6.493-.064-2.338.613-8.927,1.811-9.385,4.794-.186,1.225,1.332,3.132,1.561,4.448A11.782,11.782,0,0,1,342.94,183.361Z" transform="translate(16.885 -100.302)"/>
  <path id="路径_884" data-name="路径 884" class="cls-9" d="M318.369,197.154a22.494,22.494,0,0,0-1.715,3.968c-1.625,5.646,1.278,11.463,2.663,17.172,1.768,7.313,1.017,14.962,1.1,22.488.037,3.441.4,7.228,2.882,9.614a8.925,8.925,0,0,1,1.838,1.886,7.8,7.8,0,0,1,.591,1.763,9.087,9.087,0,0,0,13.167,5.422c2.019-1.124,3.771-3.073,6.083-3.132a17.632,17.632,0,0,1,2.168.24c2.3.229,4.554-.623,6.711-1.459a4.379,4.379,0,0,0,1.417-.756c.389-.357.639-.836,1-1.22,1.316-1.417,3.563-1.172,5.46-1.566a7.643,7.643,0,0,0,5.79-5.79,14.941,14.941,0,0,0-.261-5.577l-1.427-8.235a75.821,75.821,0,0,1-1.241-9.146,38.351,38.351,0,0,1,.884-10.339,82.847,82.847,0,0,0,1.907-8.3,20.288,20.288,0,0,0-3.729-14.28,4.431,4.431,0,0,0-2.967-2.131,4.987,4.987,0,0,0-2.855.975q-11.521,6.818-23.2,13.353a27.45,27.45,0,0,1-6.685,2.993c-.714.181-1.736.107-1.838-.618a1.348,1.348,0,0,1,.208-.783c1.332-2.562,3.26-4.762,4.794-7.2s2.717-5.326,2.264-8.16c-.618-3.92-4.261-6.514-7.239-3.441C322.8,188.381,320.558,192.866,318.369,197.154Z" transform="translate(29.409 -107.423)"/>
  <path id="路径_885" data-name="路径 885" class="cls-6" d="M370.93,295.59c-6.248.4-12.634.826-18.419,3.223-1.859.767-3.83,1.758-5.785,1.284a7.734,7.734,0,0,1-2.663-1.427,60.929,60.929,0,0,1-6.807-5.806c.213-1.167,1.8-1.326,2.978-1.316a17.8,17.8,0,0,0,8.288-1.992,13.97,13.97,0,0,1,2.663-1.241c2.53-.7,5.108.634,7.649,1.284,3.76.959,7.723.4,11.564-.165l10.365-1.529a3.7,3.7,0,0,1,2.818.346,3.441,3.441,0,0,1,1.007,1.806c1.268,4.261.66,4.618-3.558,4.884Z" transform="translate(0.706 -156.165)"/>
  <ellipse id="椭圆_47" data-name="椭圆 47" class="cls-7" cx="17.045" cy="17.045" rx="17.045" ry="17.045" transform="translate(213.134 31.439)"/>
  <ellipse id="椭圆_48" data-name="椭圆 48" class="cls-6" cx="17.045" cy="17.045" rx="17.045" ry="17.045" transform="translate(213.257 30.698)"/>
  <path id="路径_886" data-name="路径 886" class="cls-3" d="M604.9,85.345a9.085,9.085,0,0,0-3.537,3.164,15.837,15.837,0,0,0-.911,2.983c-.932,3.2-3.414,5.971-3.563,9.3-.165,3.649,2.573,6.818,5.673,8.73a4.208,4.208,0,0,0,2.44.82,7.844,7.844,0,0,0,2.5-.985c3.5-1.555,7.414.415,11.122,1.321A19.963,19.963,0,0,0,630.233,110a10.987,10.987,0,0,0,5.188-3.6,5.693,5.693,0,0,0,.634-6.014c-.533-.948-1.417-1.806-1.358-2.887a14.926,14.926,0,0,1,.533-1.875,4.312,4.312,0,0,0-.906-2.876,41.631,41.631,0,0,0-9.215-10.424,6.592,6.592,0,0,0-3.691-1.79c-2.8-.123-5.209,1.965-8.091,1.976C610.056,82.522,607.707,83.609,604.9,85.345Z" transform="translate(-388.979 -59.244)"/>
  <ellipse id="椭圆_49" data-name="椭圆 49" class="cls-7" cx="17.577" cy="17.577" rx="17.577" ry="17.577" transform="translate(275.434 8.988)"/>
  <ellipse id="椭圆_50" data-name="椭圆 50" class="cls-5" cx="17.577" cy="17.577" rx="17.577" ry="17.577" transform="translate(275.125 8.556)"/>
  <path id="路径_887" data-name="路径 887" class="cls-3" d="M487.194,76.628c-2.482,1.39-5.545,1.246-8.315.613a11.186,11.186,0,0,1-4.368-1.843,5.268,5.268,0,0,1-2.2-4.048c0-1.784,1.172-3.393,1.316-5.177.176-2.248-1.289-4.325-1.444-6.583s.959-4.293,2.045-6.232c1.87-3.329,3.814-6.7,6.658-9.247S487.674,39.94,491.4,40.8c1.832.421,3.531,1.406,5.4,1.6a22.761,22.761,0,0,0,4.959-.559c1.657-.213,3.515-.08,4.7,1.065.65.639,1.065,1.539,1.827,2.008a10.961,10.961,0,0,0,1.6.591c1.923.772,2.8,2.94,3.484,4.89l4.57,13.1c-1.529,1.065-3.372,1.55-5.044,2.37s-3.3,2.131-3.638,3.963c-.261,1.39.234,2.988-.575,4.149-.74,1.065-2.248,1.246-3.526,1.065a13.31,13.31,0,0,0-3.84-.426c-3.2.485-4.384,2.445-7.34,0S489.943,75.084,487.194,76.628Z" transform="translate(-203.882 -40.566)"/>
  <ellipse id="椭圆_51" data-name="椭圆 51" class="cls-7" cx="15.979" cy="15.979" rx="15.979" ry="15.979" transform="translate(351.379 49.794)"/>
  <ellipse id="椭圆_52" data-name="椭圆 52" class="cls-6" cx="15.979" cy="15.979" rx="15.979" ry="15.979" transform="translate(350.762 48.925)"/>
  <path id="路径_888" data-name="路径 888" class="cls-3" d="M310.7,126.261a42.143,42.143,0,0,1,12.64-6.647c2.919-.948,6.093-1.6,9.055-.724,4.016,1.145,9.391,2.855,11.878,6.216a17.8,17.8,0,0,1,3.057,5.326c1.182,3.974-.5,8.208-.389,12.352.133,4.831,2.7,9.241,5.492,13.183s3.361,9.588,5.012,14.136c.565,1.561.746,3.729-.708,4.512-1.278.708-2.823-.176-4.005-1.028l-7.111-5.14a5.417,5.417,0,0,0-1.875-1c-1.465-.341-2.9.575-4.123,1.443L324.7,179.435a4.576,4.576,0,0,1-.069-3.878c-1.4.431-2.418,1.6-3.649,2.429s-3.1,1.1-3.995-.059-.218-2.722.778-3.659,2.306-1.5,3.281-2.461c1.934-1.923,2.131-4.959,3.35-7.388.874-1.7,2.285-3.132,2.9-4.948,1.007-2.967-.309-6.163-1.6-9.018-1.539-3.388-3.281-7-6.557-8.773-1.1-.6-2.322-.948-3.452-1.491a18.609,18.609,0,0,1-7.7-7.377C306.8,130.283,308.65,127.838,310.7,126.261Z" transform="translate(43.802 -76.979)"/>
  <path id="路径_889" data-name="路径 889" class="cls-7" d="M311.848,231.772c-1.529.975-3.254,1.6-4.757,2.615a5.805,5.805,0,0,0-2.86,4.373c-.043,1.731,1.065,3.249,2.131,4.623l12.975,17.029-6.615,1.752c1.065,1.47,1.337,3.345,1.891,5.071s1.6,3.521,3.366,3.974c1.6.41,3.27-.431,4.922-.336,1.22.075,2.37.65,3.59.7a7.624,7.624,0,0,0,4.341-1.641c2.919-1.955,5.816-4.757,5.8-8.272a12.512,12.512,0,0,0-.708-3.484c-1.912-6.237-3.894-12.624-7.857-17.812a55.921,55.921,0,0,0-7.34-7.43,6.844,6.844,0,0,0-2.056-1.422c-1.7-.639-3.563.149-5.326.66s-3.984.586-5-.921" transform="translate(66.834 -129.729)"/>
  <path id="路径_890" data-name="路径 890" class="cls-9" d="M310.813,229.769c-1.529.969-3.254,1.6-4.757,2.615a5.826,5.826,0,0,0-2.866,4.368c-.048,1.806,1.065,3.254,2.131,4.629L318.3,258.394l-6.615,1.752c1.065,1.47,1.337,3.34,1.891,5.071s1.6,3.521,3.366,3.974c1.6.41,3.27-.431,4.922-.336,1.22.069,2.37.65,3.59.692a7.625,7.625,0,0,0,4.341-1.641c2.919-1.949,5.816-4.757,5.79-8.267a12.25,12.25,0,0,0-.7-3.484c-1.912-6.243-3.894-12.629-7.857-17.812a57.431,57.431,0,0,0-7.34-7.457,7.041,7.041,0,0,0-2.056-1.422c-1.7-.639-3.563.149-5.326.666s-3.984.586-5-.921" transform="translate(68.428 -128.775)"/>
  <g id="组_1537" data-name="组 1537" class="cls-10" transform="translate(207.898 33.681)">
    <path id="路径_891" data-name="路径 891" d="M634.867,120.175a10.976,10.976,0,0,1-5.188,3.6,19.873,19.873,0,0,1-11.612.682c-3.728-.905-7.622-2.876-11.122-1.321a7.829,7.829,0,0,1-2.5.991A4.261,4.261,0,0,1,602,123.3a12.6,12.6,0,0,1-5.087-5.555,1.372,1.372,0,0,1-.032.357c-.165,3.649,2.573,6.818,5.673,8.73a4.208,4.208,0,0,0,2.44.82,7.845,7.845,0,0,0,2.5-.985c3.5-1.555,7.414.415,11.122,1.321a19.963,19.963,0,0,0,11.612-.682,10.987,10.987,0,0,0,5.188-3.6,5.693,5.693,0,0,0,.634-6.014l-.08-.133a6.515,6.515,0,0,1-1.108,2.615Z" transform="translate(-596.877 -110.231)"/>
    <path id="路径_892" data-name="路径 892" d="M599.472,104.844a3.736,3.736,0,0,0,.927,2.205,3.366,3.366,0,0,0,.154-.533,4.108,4.108,0,0,0-.8-2.716A3.542,3.542,0,0,0,599.472,104.844Z" transform="translate(-562.19 -103.8)"/>
  </g>
  <path id="路径_893" data-name="路径 893" class="cls-7" d="M511.534,53.731l4.57,13.092a36.031,36.031,0,0,1-5.044,2.37c-1.673.815-3.3,2.131-3.638,3.963-.261,1.39.234,2.988-.575,4.155-.74,1.065-2.248,1.241-3.526,1.065a13.5,13.5,0,0,0-3.84-.426c-3.2.485-4.384,2.445-7.34.027s-4.027.453-6.775,2c-2.482,1.4-5.545,1.252-8.315.613a11.186,11.186,0,0,1-4.368-1.838,6.8,6.8,0,0,1-.533-.485,5.934,5.934,0,0,0,1.79,2.216,11.186,11.186,0,0,0,4.368,1.843c2.77.634,5.859.778,8.315-.613,2.748-1.545,3.878-4.362,6.775-2s4.155.458,7.34,0a13.33,13.33,0,0,1,3.84.426c1.284.181,2.786,0,3.526-1.065.81-1.161.314-2.759.575-4.149.341-1.832,1.965-3.148,3.638-3.963a36.649,36.649,0,0,0,5.044-2.37l-4.591-13.13a10.641,10.641,0,0,0-2.184-4.032A17.873,17.873,0,0,1,511.534,53.731Z" transform="translate(-203.289 -45.644)"/>
  <g id="组_1538" data-name="组 1538" class="cls-10" transform="translate(351.441 47.338)">
    <path id="路径_894" data-name="路径 894" d="M374.4,181.256c-1.177.533-2.663.613-3.409-.383-.836-1.065-.218-2.717.778-3.659s2.306-1.5,3.281-2.461c1.934-1.918,2.131-4.954,3.35-7.382.874-1.71,2.285-3.137,2.9-4.954,1.007-2.962-.309-6.163-1.6-9.012-1.539-3.388-3.281-7-6.557-8.773-1.1-.6-2.322-.948-3.452-1.491a18.622,18.622,0,0,1-7.7-7.382c-1.156-2.4.474-4.735,2.413-6.317-.943.613-1.864,1.257-2.759,1.944-2.051,1.6-3.9,4.021-2.663,6.541a18.609,18.609,0,0,0,7.7,7.377c1.129.533,2.349.895,3.452,1.491,3.276,1.768,5.018,5.385,6.557,8.773,1.294,2.855,2.61,6.051,1.6,9.018-.618,1.816-2.029,3.244-2.9,4.948-1.236,2.429-1.417,5.465-3.35,7.388-.975.964-2.285,1.518-3.281,2.461s-1.6,2.573-.778,3.659,2.77.863,3.995.059C372.8,182.539,373.552,181.8,374.4,181.256Z" transform="translate(-358.591 -129.44)"/>
    <path id="路径_895" data-name="路径 895" d="M339.273,212.4l-7.111-5.135a5.433,5.433,0,0,0-1.875-1.007c-1.465-.336-2.9.581-4.123,1.449L311.25,218.253a4.586,4.586,0,0,1-.069-3.883c-1.369.426-2.365,1.566-3.553,2.365a3.983,3.983,0,0,1,.533-.2,4.576,4.576,0,0,0,.069,3.878l14.914-10.546c1.225-.868,2.663-1.784,4.123-1.443a5.417,5.417,0,0,1,1.875,1l7.111,5.14c1.182.852,2.727,1.736,4.005,1.028a2.338,2.338,0,0,0,1.113-2.056A7.72,7.72,0,0,1,339.273,212.4Z" transform="translate(-291.16 -165.308)"/>
  </g>
  <path id="路径_896" data-name="路径 896" class="cls-8" d="M576.4,277.734s30.521,2.445,36.593-1.88l-27.921-4.3Z" transform="translate(-354.419 -148.569)"/>
  <path id="路径_897" data-name="路径 897" class="cls-7" d="M576.4,277.734s30.521,2.445,36.593-1.88l-27.921-4.3Z" transform="translate(-354.419 -148.569)"/>
  <path id="路径_898" data-name="路径 898" class="cls-8" d="M568.05,273.434l8.549-5.412s25.5,7.329,32.491,4.3l-7.111-9.976-25.269,4.927Z" transform="translate(-346.07 -144.268)"/>
  <path id="路径_899" data-name="路径 899" class="cls-3" d="M563.343,138.14a14.984,14.984,0,0,1,2.242,3.936c.245.751.368,1.534.575,2.3a17.642,17.642,0,0,0,2.663,5.279c2.626,3.819,5.907,7.5,6.568,12.091a20.393,20.393,0,0,1-.479,6.807,18.373,18.373,0,0,1-1.257,4.3c-.676,1.459-1.683,2.743-2.455,4.155a29.5,29.5,0,0,0-1.779,4.3,21.117,21.117,0,0,1-2.179-3.2,4.106,4.106,0,0,0-3.1-2.04c-1.481,0-2.7,1.225-4.165,1.417a1.188,1.188,0,0,1-.682-.064c-.533-.25-.575-.969-.533-1.545.421-4.021,2.722-7.99,1.635-11.889-1-3.606-4.581-5.859-6.461-9.092-1.364-2.349-1.768-5.119-2.131-7.814a48.416,48.416,0,0,1-.708-9.715c.1-1.635,1.4-11.969,3.776-10.887.826.373,1.545,1.955,2.061,2.663l2.131,3.02Z" transform="translate(-303.449 -80.682)"/>
  <path id="路径_900" data-name="路径 900" class="cls-8" d="M242.74,231.586l17.135,13.95,22.046-3.942L267.077,229.94Z" transform="translate(80.859 -107.519)"/>
  <path id="路径_901" data-name="路径 901" class="cls-7" d="M243.9,229.956l17.135,13.95,22.046-3.942L268.237,228.31Z" transform="translate(79.081 -106.757)"/>
  <path id="路径_902" data-name="路径 902" class="cls-8" d="M243.66,228.561,260.8,242.506l22.052-3.936L268,226.91Z" transform="translate(79.443 -106.102)"/>
  <path id="路径_903" data-name="路径 903" class="cls-7" d="M244.59,225.536l17.141,13.95,22.046-3.942-14.85-11.654Z" transform="translate(78.018 -104.69)"/>
  <path id="路径_904" data-name="路径 904" class="cls-8" d="M244.36,224.146,261.5,238.1l22.046-3.942L268.7,222.5Z" transform="translate(78.376 -104.04)"/>
  <path id="路径_905" data-name="路径 905" class="cls-3" d="M876.911,623.756h0a2.759,2.759,0,0,0-3.958,2.264L872,638.383l5.657,1.023,2.983-8.938Z" transform="translate(-779.439 -313.125)"/>
  <path id="路径_906" data-name="路径 906" class="cls-3" d="M541.515,467.861l86.571,43.933a6.024,6.024,0,0,1-.043,10.754L441.59,616.117a22.632,22.632,0,0,1-21.269-.533L341.788,571.3a6.024,6.024,0,0,1,.357-10.653L536.193,467.8a6.024,6.024,0,0,1,5.321.059Z" transform="translate(-246.209 -240.14)"/>
  <path id="路径_907" data-name="路径 907" class="cls-3" d="M531.342,536.56l2.711,2.013.213,9.641a4.005,4.005,0,0,1-2.173,3.654L342.455,649.183a2.823,2.823,0,0,1-4.117-2.509v-14Z" transform="translate(-148.931 -272.551)"/>
  <path id="路径_908" data-name="路径 908" class="cls-8" d="M541.5,446.878l86.571,43.927a6.024,6.024,0,0,1-.027,10.754l-186.469,93.57a22.648,22.648,0,0,1-21.269-.533l-78.533-44.289a6.024,6.024,0,0,1,.357-10.653l194.048-92.84a6.024,6.024,0,0,1,5.321.064Z" transform="translate(-246.194 -230.29)"/>
  <path id="路径_909" data-name="路径 909" class="cls-3" d="M391.026,421.86l95.386,48.433L322.469,552.268,224.1,502.337Z" transform="translate(-113.643 -197.293)"/>
  <ellipse id="椭圆_53" data-name="椭圆 53" class="cls-3" cx="10.062" cy="5.96" rx="10.062" ry="5.96" transform="translate(138.821 328.143)"/>
  <ellipse id="椭圆_54" data-name="椭圆 54" class="cls-3" cx="0.932" cy="0.932" rx="0.932" ry="0.932" transform="translate(331.359 239.13)"/>
  <ellipse id="椭圆_55" data-name="椭圆 55" class="cls-3" cx="1.119" cy="1.119" rx="1.119" ry="1.119" transform="translate(333.962 246.206)"/>
  <line id="直线_9" data-name="直线 9" class="cls-11" x1="11.18" y1="5.215" transform="translate(319.808 240.248)"/>
  <rect id="矩形_1270" data-name="矩形 1270" class="cls-4" width="55.619" height="19.175" rx="9.588" transform="translate(262.268 309.309) rotate(-150)"/>
  <rect id="矩形_1271" data-name="矩形 1271" class="cls-4" width="55.619" height="19.175" rx="9.588" transform="translate(234.055 323.685) rotate(-150)"/>
  <rect id="矩形_1272" data-name="矩形 1272" class="cls-4" width="55.619" height="19.175" rx="9.588" transform="translate(287.819 292.806) rotate(-150)"/>
</svg>
