<svg xmlns="http://www.w3.org/2000/svg" xmlns:xlink="http://www.w3.org/1999/xlink" width="508.698" height="371.914" viewBox="0 0 508.698 371.914">
  <defs>
    <style>
      .cls-1 {
        fill: #158467;
      }

      .cls-1, .cls-2, .cls-3, .cls-6 {
        opacity: 0.1;
      }

      .cls-2, .cls-5 {
        fill: #ff5d8f;
      }

      .cls-4 {
        fill: #3f3d56;
      }

      .cls-7 {
        fill: #ddd;
      }

      .cls-8 {
        fill: none;
        stroke: #aaa;
        stroke-linecap: round;
        stroke-miterlimit: 10;
        stroke-width: 7px;
      }

      .cls-9 {
        fill: url(#linear-gradient);
      }

      .cls-10 {
        fill: #696791;
      }

      .cls-11 {
        fill: #a0616a;
      }

      .cls-12 {
        fill: #f86d70;
      }

      .cls-13 {
        fill: #2d293d;
      }
    </style>
    <linearGradient id="linear-gradient" x1="0.627" y1="0.5" x2="1.626" y2="0.5" gradientUnits="objectBoundingBox">
      <stop offset="0" stop-color="gray" stop-opacity="0.251"/>
      <stop offset="0.54" stop-color="gray" stop-opacity="0.122"/>
      <stop offset="1" stop-color="gray" stop-opacity="0.102"/>
    </linearGradient>
  </defs>
  <g id="illust_01" transform="translate(-0.003 9.013)">
    <ellipse id="椭圆_10" data-name="椭圆 10" class="cls-1" cx="29.652" cy="7.872" rx="29.652" ry="7.872" transform="translate(416.497 347.157)"/>
    <path id="路径_794" data-name="路径 794" class="cls-2" d="M538.288,385.017c-11.261,9.339-27.285,13.2-42.781,15.646l-2.608.4a489.836,489.836,0,0,1-48.974,4.48c-8.787.425-17.573.726-26.36.994l-6.886.2q-13.411.4-26.873.781-13.18.374-26.36.7-16.879.411-33.759.684-13.18.208-26.36.287-16.884.1-33.759-.065-13.189-.134-26.36-.462-16.889-.435-33.759-1.271-11.45-.559-22.887-1.345l-3.473-.245c-32.728-2.358-66.043-6.588-94.682-19.959l-.772-.365c-.384-.18-.768-.361-1.152-.55A103.645,103.645,0,0,1,65.428,376.1c-8.467-6.038-15.46-13.408-19.155-22.151-5.79-13.713-2.728-29.128,3.885-42.536S66.7,285.9,75.287,273.277c2.516-3.7,4.9-7.536,7.122-11.471,13.874-24.675,20.755-53.23,6.211-77.008a105.684,105.684,0,0,0-6.211-8.785c-3.547-4.623-7.154-9.247-9.591-14.365-5.684-11.91-4.463-25.3-2.391-38.028C73.2,106.7,78.288,88.481,94.187,77.912c16.5-10.976,39.909-10.421,60.382-6.473,31.83,6.1,61.21,18.864,90.867,30.376s60.724,22.04,93.332,23.173a148.985,148.985,0,0,0,20.986-.763h0a133.123,133.123,0,0,0,27.34-5.756c12.833-4.226,24.51-10.583,33.167-19.419,18.567-18.887,53.459-20.316,78.617-8.909,24.006,10.884,39.53,33.918,38.383,56.924-1.3,25.609-20.487,46.665-38.064,68.261-2.132,2.617-4.236,5.243-6.285,7.888q-1.716,2.215-3.367,4.439h0c-1.928,2.617-3.792,5.248-5.549,7.911-8.981,13.653-15.33,30.053-9.147,44.792,3.468,8.253,10.086,14.55,18.063,20.047,17.874,12.312,42.545,20.6,53.644,37.834C556.12,353.092,552.577,373.144,538.288,385.017Z" transform="translate(-43.21 -63.541)"/>
    <g id="组_1534" data-name="组 1534" class="cls-3" transform="translate(211.641 0.344)">
      <path id="路径_795" data-name="路径 795" class="cls-4" d="M598.692,591.357q.028.653.1,1.279Q604.2,590.481,609.4,588a8.6,8.6,0,0,0,4.906-2.4c1.015-.51,2.025-1.042,3.026-1.575a12.417,12.417,0,0,0-.769-1.39c-1.951-3.081-4.916-5.008-8.182-4.9s-6.093,2.224-7.839,5.416A15.966,15.966,0,0,0,598.692,591.357Z" transform="translate(-553.446 -336.994)"/>
      <path id="路径_796" data-name="路径 796" class="cls-4" d="M597.543,556.4a16.018,16.018,0,0,0,2.386,8.025c1.955,3.072,4.92,5,8.187,4.893.227,0,.463-.032.672-.051a8.6,8.6,0,0,0,4.907-2.4,11.8,11.8,0,0,0,2.256-2.956,16.6,16.6,0,0,0-.528-16.216c-1.955-3.081-4.92-5.008-8.187-4.9s-6.088,2.224-7.835,5.416a15.971,15.971,0,0,0-1.858,8.191Z" transform="translate(-552.83 -318.243)"/>
      <ellipse id="椭圆_11" data-name="椭圆 11" class="cls-4" cx="10.133" cy="13.265" rx="10.133" ry="13.265" transform="matrix(0.999, -0.033, 0.033, 0.999, 43.754, 208.692)"/>
      <ellipse id="椭圆_12" data-name="椭圆 12" class="cls-4" cx="10.133" cy="13.265" rx="10.133" ry="13.265" transform="matrix(0.999, -0.033, 0.033, 0.999, 43.223, 192.493)"/>
      <ellipse id="椭圆_13" data-name="椭圆 13" class="cls-4" cx="10.133" cy="13.265" rx="10.133" ry="13.265" transform="matrix(0.999, -0.033, 0.033, 0.999, 42.691, 176.289)"/>
      <path id="路径_797" data-name="路径 797" class="cls-5" d="M588.6,135.242a48.22,48.22,0,0,0,3.586-5.676l-26.752-3.493,28.781-.732a48.6,48.6,0,0,0-.334-38.455l-37.95,21.289,34.749-27.336a48.532,48.532,0,1,0-78.351,56.923,48.723,48.723,0,0,0-5.24,9.025L542.208,163.6l-37.232-11.147a48.555,48.555,0,0,0,9.317,45.289,48.528,48.528,0,1,0,76.243-2.525,48.541,48.541,0,0,0-1.941-59.971Z" transform="translate(-501.054 -58.134)"/>
      <path id="路径_798" data-name="路径 798" class="cls-6" d="M505.1,294.5a48.3,48.3,0,0,0,11.365,29.652,48.527,48.527,0,1,0,76.243-2.511C598.939,313.184,504.924,289.059,505.1,294.5Z" transform="translate(-503.225 -184.565)"/>
    </g>
    <g id="组_1535" data-name="组 1535" class="cls-3" transform="translate(111.22 158.232)">
      <path id="路径_799" data-name="路径 799" class="cls-4" d="M354.014,780.173a7.944,7.944,0,0,1-.069.927q-3.845-1.529-7.557-3.276a6.121,6.121,0,0,1-3.493-1.7q-1.084-.551-2.154-1.121a8.752,8.752,0,0,1,.547-.982,6.248,6.248,0,0,1,11.379.352A11.351,11.351,0,0,1,354.014,780.173Z" transform="translate(-314.347 -599.064)"/>
      <path id="路径_800" data-name="路径 800" class="cls-4" d="M353.494,755.261a11.393,11.393,0,0,1-1.686,5.713,6.791,6.791,0,0,1-5.819,3.489l-.463-.037a6.121,6.121,0,0,1-3.493-1.7,8.339,8.339,0,0,1-1.608-2.1,11.828,11.828,0,0,1,.361-11.532,6.266,6.266,0,0,1,11.4.352A11.351,11.351,0,0,1,353.494,755.261Z" transform="translate(-313.465 -585.684)"/>
      <ellipse id="椭圆_14" data-name="椭圆 14" class="cls-4" cx="9.438" cy="7.209" rx="9.438" ry="7.209" transform="translate(25.694 167.046) rotate(-88.19)"/>
      <ellipse id="椭圆_15" data-name="椭圆 15" class="cls-4" cx="9.438" cy="7.209" rx="9.438" ry="7.209" transform="translate(26.054 155.516) rotate(-88.19)"/>
      <ellipse id="椭圆_16" data-name="椭圆 16" class="cls-4" cx="9.438" cy="7.209" rx="9.438" ry="7.209" transform="translate(26.419 143.981) rotate(-88.19)"/>
      <path id="路径_801" data-name="路径 801" class="cls-5" d="M293.2,455.455a35.125,35.125,0,0,1-2.562-4.035l19.033-2.53-20.483-.463a34.582,34.582,0,0,1,.2-27.373l27.025,15.118-24.75-19.436a34.535,34.535,0,1,1,55.792,40.429,34.486,34.486,0,0,1,3.739,6.422l-24.982,11.991,26.488-7.969a34.586,34.586,0,0,1-6.588,32.247,34.535,34.535,0,1,1-54.263-1.714A34.535,34.535,0,0,1,293.2,455.46Z" transform="translate(-283.775 -400.451)"/>
      <path id="路径_802" data-name="路径 802" class="cls-6" d="M354.173,568.779a34.41,34.41,0,0,1-8.057,21.113,34.535,34.535,0,1,1-54.263-1.714C287.409,582.155,354.3,564.9,354.173,568.779Z" transform="translate(-283.775 -490.489)"/>
    </g>
    <g id="组_1536" data-name="组 1536" class="cls-3" transform="translate(351.991 98.239)">
      <path id="路径_803" data-name="路径 803" class="cls-4" d="M874.784,650.123a8.975,8.975,0,0,1-.065.927q-3.85-1.529-7.557-3.276a6.144,6.144,0,0,1-3.5-1.7c-.718-.366-1.441-.741-2.154-1.121a9.562,9.562,0,0,1,.547-.982,6.248,6.248,0,0,1,11.379.352A11.351,11.351,0,0,1,874.784,650.123Z" transform="translate(-835.124 -468.956)"/>
      <path id="路径_804" data-name="路径 804" class="cls-4" d="M874.313,625.211a11.392,11.392,0,0,1-1.691,5.713,6.785,6.785,0,0,1-5.819,3.489l-.463-.037a6.143,6.143,0,0,1-3.5-1.7,8.489,8.489,0,0,1-1.608-2.1,11.828,11.828,0,0,1,.361-11.532,6.266,6.266,0,0,1,11.4.352A11.35,11.35,0,0,1,874.313,625.211Z" transform="translate(-834.264 -455.577)"/>
      <ellipse id="椭圆_17" data-name="椭圆 17" class="cls-4" cx="9.438" cy="7.209" rx="9.438" ry="7.209" transform="translate(25.704 167.1) rotate(-88.19)"/>
      <ellipse id="椭圆_18" data-name="椭圆 18" class="cls-4" cx="9.438" cy="7.209" rx="9.438" ry="7.209" transform="translate(26.068 155.57) rotate(-88.19)"/>
      <ellipse id="椭圆_19" data-name="椭圆 19" class="cls-4" cx="9.438" cy="7.209" rx="9.438" ry="7.209" transform="translate(26.433 144.04) rotate(-88.19)"/>
      <path id="路径_805" data-name="路径 805" class="cls-5" d="M813.979,325.339a34.083,34.083,0,0,1-2.557-4.035l19.033-2.507-20.483-.5a34.609,34.609,0,0,1,.2-27.373L837.2,306.046l-24.75-19.427a34.54,34.54,0,1,1,55.792,40.429,34.458,34.458,0,0,1,3.734,6.422L846.99,345.461l26.488-7.969a34.549,34.549,0,0,1-6.588,32.242,34.531,34.531,0,1,1-54.249-1.714,34.536,34.536,0,0,1,1.348-42.68Z" transform="translate(-804.559 -270.277)"/>
      <path id="路径_806" data-name="路径 806" class="cls-6" d="M874.958,438.728a34.378,34.378,0,0,1-8.062,21.109,34.531,34.531,0,1,1-54.254-1.714C808.195,452.1,875.079,434.845,874.958,438.728Z" transform="translate(-804.562 -360.38)"/>
    </g>
    <path id="路径_809" data-name="路径 809" class="cls-7" d="M359.119,570.266V674.975q-11.472-.561-22.929-1.348l-3.48-.246V570.266a4.086,4.086,0,0,1,4.086-4.086h18.236a4.086,4.086,0,0,1,4.086,4.086Z" transform="translate(-198.839 -331.163)"/>
    <path id="路径_810" data-name="路径 810" class="cls-7" d="M462.71,595.238V419.266a4.086,4.086,0,0,1,4.086-4.086h18.236a4.086,4.086,0,0,1,4.086,4.086V595.7Z" transform="translate(-268.725 -250.124)"/>
    <path id="路径_811" data-name="路径 811" class="cls-7" d="M592.71,638.187V498.266a4.086,4.086,0,0,1,4.086-4.086h18.236a4.086,4.086,0,0,1,4.086,4.086v139.62Z" transform="translate(-338.612 -292.522)"/>
    <path id="路径_812" data-name="路径 812" class="cls-7" d="M749.119,274.266V516.279q-13.2.375-26.409.7V274.266a4.086,4.086,0,0,1,4.086-4.086h18.236A4.086,4.086,0,0,1,749.119,274.266Z" transform="translate(-408.498 -172.304)"/>
    <path id="路径_813" data-name="路径 813" class="cls-5" d="M879.119,381.827V693.092c-8.8.693-17.606,1.183-26.409,1.62V381.827c0-3.671,1.829-6.647,4.086-6.647h18.236C877.289,375.18,879.119,378.156,879.119,381.827Z" transform="translate(-478.384 -351.758)"/>
    <path id="路径_814" data-name="路径 814" class="cls-8" d="M318.5,226.551l60.231-67.181,60.231,33.822L499.193,89.41,557.571,43.7" transform="translate(-171.439 -47.8)"/>
    <circle id="椭圆_28" data-name="椭圆 28" class="cls-5" cx="12.973" cy="12.973" r="12.973" transform="translate(134.102 165.424)"/>
    <circle id="椭圆_29" data-name="椭圆 29" class="cls-5" cx="12.973" cy="12.973" r="12.973" transform="translate(194.216 98.383)"/>
    <circle id="椭圆_30" data-name="椭圆 30" class="cls-5" cx="12.973" cy="12.973" r="12.973" transform="translate(254.33 132.135)"/>
    <circle id="椭圆_31" data-name="椭圆 31" class="cls-5" cx="12.973" cy="12.973" r="12.973" transform="translate(314.444 28.637)"/>
    <circle id="椭圆_32" data-name="椭圆 32" class="cls-5" cx="12.973" cy="12.973" r="12.973" transform="translate(429.933 138.608)"/>
    <path id="路径_819" data-name="路径 819" class="cls-9" d="M892.724,392.957a4.17,4.17,0,0,0,.927,2.21,8.018,8.018,0,0,0,2.581,1.561,10.192,10.192,0,0,1,4.985,5.731c1.543,4.5,1.742,9.266,3.707,13.612s4.272,8.52,5.968,12.973a43.479,43.479,0,0,0,3.146,7.45,11.555,11.555,0,0,0,2.581,2.97c-.107,1.631-.148,3.243-.139,4.874a1.853,1.853,0,0,1,1.584.834,4.822,4.822,0,0,1,.695,1.737c.635,2.627-.148,5.425.422,8.066a41.031,41.031,0,0,1-1.39,22.072c-.635,1.8-1.432,7.747-.755,9.53,2.52-.255,4.754,1.293,7.112,2.317a9.786,9.786,0,0,1-.333,4.17,22.962,22.962,0,0,0-.829,7.677l.116,19.116a28.832,28.832,0,0,0,.639,7.228c.69,2.646,2.14,5.342,2.094,8.076-.125,5.884,2.655,11.49,2.432,17.328-.042,1.121-.194,2.233-.3,3.345a38.051,38.051,0,0,0,.222,8.891c.843,5.866,3.072,11.634,2.516,17.532-.037.4-.172.927-.547,1.08.463.524.954,1.042,1.455,1.538a1.321,1.321,0,0,1-.4.422,4.1,4.1,0,0,1-1.77.463,3.748,3.748,0,0,0-2.025.658,2.914,2.914,0,0,0-.843,1.547,4.17,4.17,0,0,0,.556,3.466,3.869,3.869,0,0,0,1.571,1.177c2.141.927,4.6.255,6.829-.422l8.747-2.65a2.947,2.947,0,0,0,1.422-.741,1.558,1.558,0,0,0,.348-.751c1.932.463,4.054-.106,6.023-.695l8.747-2.655a2.905,2.905,0,0,0,1.422-.741,1.7,1.7,0,0,0,.357-1.39c.065-.028.13-.046.195-.079.667-.3,1.39-.89,1.228-1.6-.116-.463-.579-.732-.778-1.158a1.672,1.672,0,0,1,.324-1.636c.343-.463.806-.848,1.121-1.334,1.01-1.547.324-3.581-.056-5.393-.82-3.869-.06-7.909-.579-11.828-.176-1.32-.5-2.618-.75-3.929a80.262,80.262,0,0,1-1.07-9.368c-.333-4.485-1.58-8.9-.866-13.353a51.85,51.85,0,0,0,.44-7.876,34.26,34.26,0,0,0-.218-5.022c-.181-1.242-.5-2.46-.639-3.707a33.6,33.6,0,0,1-.074-4.212,41.654,41.654,0,0,0-.862-9.322c-.927-4.212-2.669-8.242-3.41-12.463.25.056.5.111.741.176.028-3.243-2.812-10.295-3.864-13.371a3.889,3.889,0,0,1-.278-1.181,12.738,12.738,0,0,1,.292-1.589c.134-1.121-.463-2.187-.625-3.308a7.756,7.756,0,0,1,.171-2.354c.746-4.147,1.673-8.261,2.6-12.37a13.176,13.176,0,0,0,.412-4.573,5.741,5.741,0,0,1,1.39-4.554,5.4,5.4,0,0,0,1.029-1.293,3.281,3.281,0,0,0,.2-1.293,20.773,20.773,0,0,0-.834-5.629,14.569,14.569,0,0,0,1.353-5.008,81.348,81.348,0,0,0,1.019-11.411,19.345,19.345,0,0,0-.834-6.023,23.91,23.91,0,0,0-1.585-3.493c-2.437-4.693-4.768-9.632-7.844-13.932-.927-1.307-.343-3.109-.278-4.721a13.48,13.48,0,0,0-1.455-5.6,9.191,9.191,0,0,0-1.742-3,2.831,2.831,0,0,0-2.039-.927,3.071,3.071,0,0,0-2.173,1.33,7.168,7.168,0,0,0-1.3,5.361,10.363,10.363,0,0,0,2.358,5.064,11.475,11.475,0,0,0,2.034,1.932q1.149,3.651,2.317,7.3a91.029,91.029,0,0,0,4.17,11.416,9.009,9.009,0,0,1,1.121,3.313,9.733,9.733,0,0,1-.885,3.66,25.829,25.829,0,0,0-1.492,7.719,2.656,2.656,0,0,0-.389.213c-1.46.954-1.918,3.035-3.438,3.887a10.762,10.762,0,0,1-2.951.69,1.018,1.018,0,0,0-.269.074c-.037-.185-.074-.366-.1-.556a1.5,1.5,0,0,1,0-.357,15.562,15.562,0,0,0,5.759-5.486,5.014,5.014,0,0,0,.681-1.39,5.371,5.371,0,0,0,.069-1.807,28.832,28.832,0,0,0-.857-5.954,9.9,9.9,0,0,0-3.1-5.045c-.76-.612-1.635-1.07-2.391-1.686-1.473-1.191-2.483-2.951-4.17-3.836a5.018,5.018,0,0,0-6.306,1.631,3.655,3.655,0,0,1-.927,1.177,9.525,9.525,0,0,0-.862.463,1.765,1.765,0,0,0-.371,1.825,19,19,0,0,1,.528,3.98,9.729,9.729,0,0,0-.028,12.588c0,.862,0,1.724-.032,2.585a2.5,2.5,0,0,1-.032.491,3.34,3.34,0,0,1-1.39-.927c-.519-.649-.612-1.6-1.246-2.136a3.517,3.517,0,0,0-1.52-.556,9.436,9.436,0,0,1-3.707-1.756,7.446,7.446,0,0,0-2.747-1.7,60.961,60.961,0,0,0-6.023-9.192,17.9,17.9,0,0,1-1.575-2.164c-1-1.737-1.293-3.781-1.923-5.685-1.761-5.337-6.153-9.618-7.223-15.141-.389-2-1.659-3.744-2.53-5.588a7.135,7.135,0,0,0-2.414-3.276,4.109,4.109,0,0,0-4.87.746A5.852,5.852,0,0,0,892.724,392.957Zm55.009,187.5a4.1,4.1,0,0,1-1.77.463,8.531,8.531,0,0,0-.927.148c-.116-.973-.181-1.96-.255-2.919-.246-3.146-.737-6.269-1.223-9.387-.51-3.243-.751-6.792-1.853-9.906-1.775-5.069-3.572-10.29-3.345-15.66.051-1.219.2-2.428.269-3.642.148-3.007-.273-6.079.463-9,.329-1.33.89-2.6,1.1-3.952a18.767,18.767,0,0,0,.046-3.679,48.9,48.9,0,0,1,1.052-12.672,8.944,8.944,0,0,1,1.39,3.975l1.738,9.424c1.033,5.592,1.946,11.523,4.684,16.5-.385,1.793-.765,3.706-.13,5.421.273.741.723,1.39,1,2.14a15.959,15.959,0,0,1,.537,3.938c.3,2.78,1.45,5.513.607,8.2a39.979,39.979,0,0,0-1.682,8.506,20.743,20.743,0,0,1-.278,2.4c-.148.714-.389,1.39-.524,2.122a7.028,7.028,0,0,0,.134,3.09,6.305,6.305,0,0,1,.38,1.737c0,.593-.727,1.019-1.311,1.112.171.222.357.436.547.644A2.029,2.029,0,0,1,947.734,580.455Z" transform="translate(-500.042 -233.835)"/>
    <path id="路径_820" data-name="路径 820" class="cls-4" d="M968.547,815.779a3.747,3.747,0,0,0-2.025.658,2.853,2.853,0,0,0-.843,1.538,4.115,4.115,0,0,0,.556,3.438,3.86,3.86,0,0,0,1.571,1.172c2.141.927,4.6.25,6.829-.422l8.747-2.632a2.937,2.937,0,0,0,1.422-.737,1.932,1.932,0,0,0,.037-2.252,4.374,4.374,0,0,0-1.853-1.478,20.754,20.754,0,0,0-8.775-1.682c-1.112,0-2.21-.269-2.965.588-.4.463-.324.959-.927,1.353A4.17,4.17,0,0,1,968.547,815.779Z" transform="translate(-539.151 -463.812)"/>
    <path id="路径_821" data-name="路径 821" class="cls-4" d="M1004.217,805.4a3.784,3.784,0,0,0-2.025.658,2.872,2.872,0,0,0-.843,1.538,4.128,4.128,0,0,0,.556,3.442,3.892,3.892,0,0,0,1.571,1.168c2.145.927,4.6.255,6.829-.417l8.747-2.636a2.937,2.937,0,0,0,1.422-.737,1.927,1.927,0,0,0,.037-2.247,4.387,4.387,0,0,0-1.853-1.478,20.793,20.793,0,0,0-8.78-1.686c-1.112,0-2.205-.264-2.965.593-.4.463-.324.954-.927,1.348a4.029,4.029,0,0,1-1.77.454Z" transform="translate(-558.295 -458.243)"/>
    <path id="路径_822" data-name="路径 822" class="cls-10" d="M973.449,601.393a107.757,107.757,0,0,1,15.516-.436,3.086,3.086,0,0,1,1.005.158c1.14.463,1.316,1.955,1.422,3.174.463,4.948,2.622,9.558,3.707,14.4a41.155,41.155,0,0,1,.862,9.266,33.23,33.23,0,0,0,.074,4.17c.139,1.237.463,2.451.639,3.683a33.822,33.822,0,0,1,.218,4.99,51.2,51.2,0,0,1-.44,7.816c-.714,4.415.533,8.8.866,13.269a79.193,79.193,0,0,0,1.052,9.317c.255,1.3.575,2.59.75,3.9.519,3.9-.241,7.909.579,11.754.38,1.8,1.066,3.818.056,5.356-.315.463-.778.857-1.121,1.325a1.654,1.654,0,0,0-.324,1.626c.2.422.663.7.778,1.149.181.709-.561,1.288-1.228,1.589a12.792,12.792,0,0,1-14.9-3.679c.584-.093,1.3-.514,1.311-1.107a6.258,6.258,0,0,0-.38-1.723,6.951,6.951,0,0,1-.134-3.067c.134-.714.375-1.39.524-2.108a20.478,20.478,0,0,0,.278-2.381,39.48,39.48,0,0,1,1.682-8.451c.843-2.664-.306-5.361-.607-8.14a15.988,15.988,0,0,0-.537-3.915c-.278-.732-.727-1.39-1-2.122-.635-1.71-.255-3.609.13-5.388-2.738-4.943-3.651-10.837-4.684-16.392l-1.737-9.359a9.2,9.2,0,0,0-1.39-3.952,48.262,48.262,0,0,0-1.052,12.588,18.532,18.532,0,0,1-.046,3.656c-.213,1.344-.774,2.608-1.1,3.924-.718,2.9-.3,5.954-.463,8.942-.065,1.209-.218,2.409-.269,3.618-.227,5.337,1.571,10.527,3.345,15.563,1.089,3.09,1.33,6.6,1.853,9.836.463,3.1.978,6.2,1.223,9.327.227,2.873.329,5.981,2.117,8.238a15.177,15.177,0,0,1-5.235,2.507,9.665,9.665,0,0,1-6.449-1.251,20.288,20.288,0,0,1-5.1-4.332c.375-.13.51-.676.547-1.07.556-5.866-1.673-11.583-2.516-17.421a37.527,37.527,0,0,1-.222-8.831c.107-1.107.259-2.215.3-3.327.222-5.8-2.571-11.379-2.469-17.18.046-2.72-1.39-5.4-2.094-8.025a29.043,29.043,0,0,1-.639-7.181l-.116-19a23.48,23.48,0,0,1,.829-7.622c1.019-2.919-.148-6.269-.324-9.354A38.555,38.555,0,0,0,973.449,601.393Z" transform="translate(-535.13 -349.169)"/>
    <path id="路径_823" data-name="路径 823" class="cls-11" d="M921.842,435.319a60.53,60.53,0,0,0-7.093-11.2,17.751,17.751,0,0,1-1.575-2.15c-1-1.728-1.293-3.757-1.923-5.648-1.761-5.3-6.153-9.558-7.223-15.039-.389-1.992-1.659-3.706-2.53-5.56a7.018,7.018,0,0,0-2.414-3.243,4.115,4.115,0,0,0-4.869.741,5.787,5.787,0,0,0-1.492,4.888,4.137,4.137,0,0,0,.927,2.2,8.078,8.078,0,0,0,2.581,1.552,10.137,10.137,0,0,1,4.985,5.694c1.543,4.471,1.742,9.206,3.706,13.524s4.272,8.46,5.968,12.875a44.4,44.4,0,0,0,3.146,7.413,9.125,9.125,0,0,0,6.283,4.605,15.5,15.5,0,0,1,.755-4.948C921.652,439.2,922.681,437.047,921.842,435.319Z" transform="translate(-499.859 -237.322)"/>
    <path id="路径_824" data-name="路径 824" class="cls-11" d="M1006.337,436.535a25.6,25.6,0,0,1,1.506-9.628,9.98,9.98,0,0,0,.885-3.637,8.92,8.92,0,0,0-1.121-3.294,84.492,84.492,0,0,1-4.17-11.337l-2.317-7.251a11.261,11.261,0,0,1-2.034-1.923,10.238,10.238,0,0,1-2.358-5.032,7.066,7.066,0,0,1,1.3-5.319,3.081,3.081,0,0,1,2.173-1.325,2.845,2.845,0,0,1,2.039.927,9.131,9.131,0,0,1,1.742,2.974,13.336,13.336,0,0,1,1.455,5.56c-.065,1.6-.663,3.391.278,4.693,3.076,4.272,5.407,9.178,7.844,13.844a23.431,23.431,0,0,1,1.585,3.47,19.085,19.085,0,0,1,.834,6,83.209,83.209,0,0,1-1.019,11.337c-.329,2.358-.76,4.925-2.544,6.486A36.728,36.728,0,0,0,1006.337,436.535Z" transform="translate(-555.851 -235.07)"/>
    <circle id="椭圆_35" data-name="椭圆 35" class="cls-11" cx="9.614" cy="9.614" r="9.614" transform="translate(429.085 184.018)"/>
    <path id="路径_825" data-name="路径 825" class="cls-11" d="M981.689,490.882a12.858,12.858,0,0,0,2.071,4.8c.547.927,1.246,1.913,2.317,2.015a46.7,46.7,0,0,1-8.734,3.512,9.878,9.878,0,0,1-3.188.514,7.8,7.8,0,0,1-2.655-.681,13.2,13.2,0,0,1-7.5-8.766,17.426,17.426,0,0,0,3.572-.273,2.627,2.627,0,0,0,1.751-.862,2.78,2.78,0,0,0,.361-1.547c.046-1.6.051-3.211,0-4.814a19,19,0,0,1,6.987.862c.927.3,1.853.663,2.78.9.584.148,2.191,0,2.622.338C982.783,487.351,981.527,489.7,981.689,490.882Z" transform="translate(-538.334 -287.152)"/>
    <path id="路径_826" data-name="路径 826" class="cls-12" d="M966.708,494.652a6.051,6.051,0,0,1,4.605-5.379,10.758,10.758,0,0,0,2.951-.686c1.52-.848,1.978-2.914,3.438-3.864a4.064,4.064,0,0,1,4.8.778,10.306,10.306,0,0,1,2.432,4.582,23.2,23.2,0,0,1,1.246,7.019,3.241,3.241,0,0,1-.2,1.283,5.353,5.353,0,0,1-1.029,1.283,5.681,5.681,0,0,0-1.39,4.527,12.973,12.973,0,0,1-.412,4.54c-.927,4.086-1.853,8.168-2.6,12.292a7.631,7.631,0,0,0-.171,2.317c.144,1.117.76,2.173.625,3.289a12.449,12.449,0,0,0-.292,1.58,3.833,3.833,0,0,0,.278,1.172c1.052,3.053,3.892,10.049,3.864,13.283-4.934-1.265-12.208-1.548-17.3-1.571a38.5,38.5,0,0,0-4.2.185c-3.35.361-6.778,1.339-10.026.435-3.016-.839-5.685-3.243-8.8-2.942-.676-1.77.12-7.677.755-9.466a40.513,40.513,0,0,0,1.39-21.929c-.57-2.622.213-5.407-.422-8.011a4.775,4.775,0,0,0-.695-1.728,1.853,1.853,0,0,0-1.585-.829,59.022,59.022,0,0,1,1.158-12.477c.306-1.459.927-3.183,2.423-3.433,1.325-.227,2.437.894,3.5,1.714a9.41,9.41,0,0,0,3.707,1.742,3.516,3.516,0,0,1,1.52.556c.635.528.727,1.478,1.246,2.122.927,1.154,3,1.056,3.656,2.386a9.09,9.09,0,0,1,.348,1.214,4.457,4.457,0,0,0,1.529,1.974,8.6,8.6,0,0,0,3.656,2.038Z" transform="translate(-527.577 -285.136)"/>
    <path id="路径_827" data-name="路径 827" class="cls-13" d="M975.164,447.651a1.757,1.757,0,0,1,.371-1.816c.255-.2.588-.273.862-.463a3.707,3.707,0,0,0,.927-1.172,5.032,5.032,0,0,1,6.3-1.6c1.673.876,2.683,2.627,4.17,3.808.755.612,1.631,1.066,2.391,1.677a9.826,9.826,0,0,1,3.1,5.013,28.442,28.442,0,0,1,.857,5.912,5.32,5.32,0,0,1-.069,1.8,5.033,5.033,0,0,1-.681,1.39,15.479,15.479,0,0,1-6.069,5.615,9.381,9.381,0,0,1-8.089.139,1.39,1.39,0,0,1-.621-.5,1.784,1.784,0,0,1-.1-1.07,7.325,7.325,0,0,0-.806-4.1c-.463-.927-1.158-1.724-1.529-2.683a9.346,9.346,0,0,1-.436-3.327C975.7,453.364,975.9,450.459,975.164,447.651Z" transform="translate(-544.276 -264.236)"/>
  </g>
</svg>
