<svg xmlns="http://www.w3.org/2000/svg" width="540" height="377.828" viewBox="0 0 540 377.828">
  <defs>
    <style>
      .cls-1, .cls-13 {
        fill: #ff5d8f;
      }

      .cls-1, .cls-15, .cls-8 {
        opacity: 0.1;
      }

      .cls-2 {
        fill: #aaabb0;
      }

      .cls-3 {
        fill: #33323d;
      }

      .cls-4 {
        fill: #3f3d56;
      }

      .cls-5 {
        fill: #4c4981;
      }

      .cls-6 {
        fill: #ffb9b9;
      }

      .cls-7 {
        fill: #504f60;
      }

      .cls-9 {
        fill: #ae6e79;
      }

      .cls-10 {
        fill: #444053;
      }

      .cls-11 {
        fill: #767d9f;
      }

      .cls-12 {
        fill: #fff;
      }

      .cls-14 {
        fill: #b96b6b;
      }

      .cls-16 {
        fill: #464a5f;
      }

      .cls-17 {
        fill: #9c9ca1;
      }

      .cls-18 {
        fill: #939498;
      }
    </style>
  </defs>
  <g id="_03_illust" data-name="03_illust" transform="translate(0 -0.01)">
    <path id="路径_910" data-name="路径 910" class="cls-1" d="M287.651,85.239C265.7,76.891,242.5,69.918,218.826,70.795c-34.816,1.285-68.237,20.875-84.6,49.639-13.887,24.371-15.6,52.936-21.582,79.982-7.362,33.317-21.487,64.99-36.569,95.956-8.1,16.636-16.646,33.631-17.976,51.865-1.843,25.318,11.092,50.545,31.379,67.386s47.228,25.726,74.269,27.664c14.39,1.031,29.427.075,42.208-6.191,13.523-6.629,23.38-18.608,36.958-25.143,12.582-6.057,27.3-6.9,41.426-6.116a196.564,196.564,0,0,1,54.082,10.759c19.744,6.933,38.1,16.98,57.778,24.013s41.71,10.958,61.842,5.09c18.927-5.514,33.87-18.9,47.343-32.46a575.38,575.38,0,0,0,60.378-71.42c12.158-17.039,23.475-35.015,28.849-54.874,10.28-37.969-3.865-80.8-35.239-106.734-25.995-21.482-60.881-30.806-95.029-36.465-31.14-5.16-67.147-5.479-95.811-18.927C341.19,111.976,316.316,96.147,287.651,85.239Z" transform="translate(-57.92 -70.71)"/>
    <path id="路径_911" data-name="路径 911" class="cls-2" d="M632.58,617.66v18.1h5.145l-1-19.425Z" transform="translate(-350.503 -309.341)"/>
    <path id="路径_912" data-name="路径 912" class="cls-2" d="M477.41,610.33v18.1h5.15l-1-19.425Z" transform="translate(-272.62 -305.662)"/>
    <rect id="矩形_1273" data-name="矩形 1273" class="cls-2" width="6.639" height="32.211" rx="3.32" transform="translate(288.055 274.783)"/>
    <rect id="矩形_1274" data-name="矩形 1274" class="cls-2" width="6.639" height="39.349" rx="3.32" transform="translate(202.882 267.64)"/>
    <path id="路径_913" data-name="路径 913" class="cls-2" d="M732.84,234.115s6.639-2.824,7.636,0,1.494,27.23,1.494,27.23h-6.311Z" transform="translate(-429.674 -152.091)"/>
    <path id="路径_914" data-name="路径 914" class="cls-2" d="M577.635,234.115s-6.644-2.824-7.641,0-1.494,27.23-1.494,27.23h6.311Z" transform="translate(-347.189 -152.091)"/>
    <path id="路径_915" data-name="路径 915" class="cls-2" d="M529.906,115.5l-1,20.257h4.483V115Z" transform="translate(-298.469 -57.715)"/>
    <path id="路径_916" data-name="路径 916" class="cls-3" d="M581.17,255.7l1.33-29.223S582,220,597.771,222s61.932,5.977,61.932,5.977V255.7Z" transform="translate(-353.548 -146.447)"/>
    <path id="路径_917" data-name="路径 917" class="cls-3" d="M623.849,597.71l-2.49,44.658s-36.529,20.257-80.859,1l3.985-46.984Z" transform="translate(-333.135 -334.547)"/>
    <path id="路径_918" data-name="路径 918" class="cls-4" d="M580.25,165.964l.827,28.889h51.472L629.56,156.67Z" transform="translate(-324.237 -78.63)"/>
    <rect id="矩形_1275" data-name="矩形 1275" class="cls-5" width="48.483" height="61.429" transform="translate(212.759 244.066)"/>
    <path id="路径_919" data-name="路径 919" class="cls-6" d="M612.821,606.885s6.973-5.479,8.134-3.82-4.144,8.8-6.306,7.969S612.821,606.885,612.821,606.885Z" transform="translate(-369.425 -337.746)"/>
    <rect id="矩形_1276" data-name="矩形 1276" class="cls-7" width="318.26" height="159.387" transform="translate(118.671 107.591)"/>
    <path id="路径_920" data-name="路径 920" class="cls-3" d="M580.385,144.713s-2.49-23.246,0-26.065,44.329-29.556,83.016,1.823c0,0,3.651.169,2.989,8.467a99.611,99.611,0,0,0,.08,15.774S583.209,150.69,580.385,144.713Z" transform="translate(-352.598 -88.091)"/>
    <path id="路径_921" data-name="路径 921" class="cls-8" d="M580.385,144.713s-2.49-23.246,0-26.065,44.329-29.556,83.016,1.823c0,0,3.651.169,2.989,8.467a99.611,99.611,0,0,0,.08,15.774S583.209,150.69,580.385,144.713Z" transform="translate(-352.598 -88.091)"/>
    <path id="路径_922" data-name="路径 922" class="cls-3" d="M580.385,150.713s-2.49-23.246,0-26.065,44.329-29.556,83.016,1.823c0,0,3.651.169,2.989,8.467a99.611,99.611,0,0,0,.08,15.774S583.209,156.69,580.385,150.713Z" transform="translate(-352.598 -91.103)"/>
    <path id="路径_923" data-name="路径 923" class="cls-4" d="M734.1,169.05s2.655,9.962,1.828,11.62-.677,6.311-.677,6.311.179,2.988-1.151,3.317-2.49.5-1.415,1.494,0,2.49,0,2.49a7.761,7.761,0,0,0,0,3.82c.583,1.494-3.407,2.117-3.068,3.985s1.454,7.138,0,7.307.5,6.639-.812,6.639-2.241,11.62-2.241,11.62-9.215-7.8-15.356-5.643c0,0,.5-6.475,2.49-8.8s1.39-8.3,1.39-8.3l9.882-29.721Z" transform="translate(-418.817 -120.063)"/>
    <path id="路径_924" data-name="路径 924" class="cls-9" d="M642.118,409.314c-2.157,2.386-4.483-10.355-4.483-10.355s-6.141,8.467-10.126,2.824c-2.759-3.91-.583-14.987,1-21.418.707-2.859,1.3-4.8,1.3-4.8l8.966-1.494s.03,1.952.229,4.323c.269,3.2.852,7.177,2.092,8.129C643.283,388.171,644.28,406.909,642.118,409.314Z" transform="translate(-376.143 -222.966)"/>
    <path id="路径_925" data-name="路径 925" class="cls-8" d="M623.654,140.7s-15.61-.164-19.425,8.134-3.985,11.127-5.479,12.452,16.267,8.3,16.267,8.3l.832,28.555a9.489,9.489,0,0,1,9.13-1.933c5.643,1.6,12.786,0,12.786,0s-.334-.6,4.318,0,19.425-7.2,19.425-7.2.244-12.492-.085-15.152,10.539-22.2,10.539-22.2,8.467-8.134-.329-10.958c0,0-3.113-4.692-11.122-4.647S623.654,140.7,623.654,140.7Z" transform="translate(-362.327 -103.5)"/>
    <path id="路径_926" data-name="路径 926" class="cls-4" d="M623.654,139.7s-15.61-.164-19.425,8.134-3.985,11.127-5.479,12.452,16.267,8.3,16.267,8.3l.832,28.555a9.489,9.489,0,0,1,9.13-1.933c5.643,1.6,12.786,0,12.786,0s-.334-.6,4.318,0,19.425-7.2,19.425-7.2,5.808-9.464,5.479-12.118,11.62-22.747,11.62-22.747,1.828-10.624-6.973-13.448c0,0-3.113-4.692-11.122-4.647S623.654,139.7,623.654,139.7Z" transform="translate(-362.327 -102.998)"/>
    <path id="路径_927" data-name="路径 927" class="cls-8" d="M641.42,378.383c-3.422-1.066-8.791,1.285-10.5,1.992.707-2.859,1.3-4.8,1.3-4.8l8.966-1.494S641.205,376.033,641.42,378.383Z" transform="translate(-378.518 -222.971)"/>
    <path id="路径_928" data-name="路径 928" class="cls-4" d="M603.205,185.71h-4.811s-1,10.131,0,13.12,1.494,2.555,1.161,4.767,2.326,5.6,2.326,5.6.329,8.348,1.992,11.456-1.828,17.044-1.828,17.044a20.053,20.053,0,0,0,4.149,6.475c2.824,2.819,4.318,13.279,3.487,17.264a4.785,4.785,0,0,0,2.326,5.479s1.33,18.6,1.828,18.6,10.126-4.981,13.115-.667l-2.326-17.1.169-33.038s-3.158-4.154-1.494-7.8-1.33-12.288-1.33-12.288l-4.318-19.256Z" transform="translate(-361.971 -128.425)"/>
    <path id="路径_929" data-name="路径 929" class="cls-3" d="M538.035,712.041s-6.973-1.494-7.138,0-8.3,16.77,1.828,21.253,37.187,14.111,81.188,1.659c0,0,2.819,1,2.157-5.145s-.663-12.95-.663-12.95-6.644-1.828-11.625-1.161S555.468,725.16,538.035,712.041Z" transform="translate(-326.686 -392.266)"/>
    <path id="路径_930" data-name="路径 930" class="cls-8" d="M538.035,712.041s-6.973-1.494-7.138,0-8.3,16.77,1.828,21.253,37.187,14.111,81.188,1.659c0,0,2.819,1,2.157-5.145s-.663-12.95-.663-12.95-6.644-1.828-11.625-1.161S555.468,725.16,538.035,712.041Z" transform="translate(-326.686 -392.266)"/>
    <path id="路径_931" data-name="路径 931" class="cls-3" d="M538.035,708.041s-6.973-1.494-7.138,0-8.3,16.771,1.828,21.253,37.187,14.111,81.188,1.659c0,0,2.819,1,2.157-5.145s-.663-12.95-.663-12.95-6.644-1.828-11.625-1.161S555.468,721.16,538.035,708.041Z" transform="translate(-326.686 -390.259)"/>
    <path id="路径_932" data-name="路径 932" class="cls-10" d="M628.564,196.686c-.428,2.436-1.4,4.777-1.549,7.242s.8,5.27,3.078,6.236a10.374,10.374,0,0,1,1.838.747,4.042,4.042,0,0,1,1.42,2.754,15.042,15.042,0,0,1,.174,4.094c-.124,1.375-.418,2.854.259,4.054,1.19,2.127,4.293,1.813,6.654,1.215l-.812,6.291a1.2,1.2,0,0,0,1.454,1.659A12.692,12.692,0,0,0,647,229.485a5.33,5.33,0,0,0,2.734-5.12c-.388-2.351-2.819-4.219-2.49-6.58.254-1.828,2.042-2.988,3.218-4.393a8.449,8.449,0,0,0,.573-9.384,10.677,10.677,0,0,0-8.208-5.041c-1.838-.184-3.751.04-5.479-.6a4.154,4.154,0,0,1-2.54-2.68" transform="translate(-376.551 -133.434)"/>
    <path id="路径_933" data-name="路径 933" class="cls-11" d="M513.84,624.492l1.738-3.785s9.384-8.741,11.541-9.354,10.958-3.282,12.288-3.282,25.572-1.33,25.572-1.33l2.819,6.644-30.423,6.679-10.256,7.471Z" transform="translate(-319.754 -339.747)"/>
    <path id="路径_934" data-name="路径 934" class="cls-6" d="M642.223,424.3l-1.589,12.228-.613,4.707-7.138,1s-.772-1.654-1.863-4.194c-3.312-7.71-9.548-23.609-5.932-26.354,4.807-3.656,5.977,8.467,5.977,8.467l5.479-2.66Z" transform="translate(-375.043 -241.502)"/>
    <rect id="矩形_1277" data-name="矩形 1277" class="cls-12" width="36.046" height="54.455" transform="translate(229.943 205.549)"/>
    <rect id="矩形_1278" data-name="矩形 1278" class="cls-8" width="36.046" height="54.455" transform="translate(229.943 205.549)"/>
    <rect id="矩形_1279" data-name="矩形 1279" class="cls-12" width="36.046" height="54.455" transform="translate(246.532 203.228) rotate(8.41)"/>
    <rect id="矩形_1280" data-name="矩形 1280" class="cls-13" width="18.554" height="28.027" transform="translate(249.888 208.365) rotate(8.41)"/>
    <rect id="矩形_1281" data-name="矩形 1281" class="cls-13" width="22.478" height="6.087" transform="translate(243.821 243.981) rotate(8.41)"/>
    <circle id="椭圆_56" data-name="椭圆 56" class="cls-8" cx="20.835" cy="20.835" r="20.835" transform="translate(254.603 26.488)"/>
    <circle id="椭圆_57" data-name="椭圆 57" class="cls-9" cx="20.835" cy="20.835" r="20.835" transform="translate(254.603 25.99)"/>
    <path id="路径_935" data-name="路径 935" class="cls-10" d="M630.742,143.913a2.371,2.371,0,0,1,.144-1.609c.792-1.649,3.048-1.793,4.876-1.708,4.3.2,9.015.224,12.377-2.49,1.395-1.116,2.954-3.92,4.981-3.387,1.8.473,2.555,2.919,4.433,3.462,1.36.393,2.769-.234,4.154-.5,1.992-.393,4.034-.065,6.057-.05s4.219-.369,5.6-1.848c1.863-1.992,1.559-5.105,1.395-7.835a42.182,42.182,0,0,1,.712-10.529c.677-3.447,1.718-7.3-.184-10.256-1.813-2.814-5.569-3.586-8.134-5.743-2.4-1.992-3.671-5.185-6.206-7.033-3.193-2.326-7.531-1.992-11.456-1.589l-8.517.907c-2.2.234-4.483.5-6.291,1.808-3.263,2.361-3.711,7.267-6.8,9.852-1.375,1.146-3.133,1.713-4.7,2.57s-3.083,2.211-3.263,3.985c-.149,1.494.658,2.874,1.051,4.313.931,3.437-.523,6.973-1.454,10.435s-1.111,7.665,1.594,9.962c.548.468,1.185.827,1.718,1.315,1.828,1.669,2.077,4.483,1.654,6.913" transform="translate(-372.483 -81.648)"/>
    <ellipse id="椭圆_58" data-name="椭圆 58" class="cls-10" cx="0.498" cy="1.245" rx="0.498" ry="1.245" transform="translate(276.638 70.359)"/>
    <ellipse id="椭圆_59" data-name="椭圆 59" class="cls-10" cx="0.498" cy="1.245" rx="0.498" ry="1.245" transform="translate(276.638 75.549)"/>
    <path id="路径_936" data-name="路径 936" class="cls-9" d="M653.516,433.005c.533-.613.887-2.187,1.091-4.264l-5.937-7.4S651.185,435.69,653.516,433.005Z" transform="translate(-387.427 -246.692)"/>
    <path id="路径_937" data-name="路径 937" class="cls-8" d="M589,656.833s-9.742,15.062-40.18,13.448c-28.675-1.494-42.671-15.6-42-20.586s-1.828-17.1,4.313-20.591c3.561-2.017,8.248-.822,11.556.543a6.525,6.525,0,0,0,6.859-1.23c3.023-2.725,8.662-5.793,17.562-3.377a6.326,6.326,0,0,0,3.487-.065c3.706-1.131,12.527-3.093,18.927,1.265a6.475,6.475,0,0,0,6.933.264l.09-.055c2.989-1.828,16.935,15.441,16.935,15.441S594.146,655.174,589,656.833Z" transform="translate(-316.217 -348.18)"/>
    <path id="路径_938" data-name="路径 938" class="cls-11" d="M589,657.833s-9.742,15.062-40.18,13.448c-28.675-1.494-42.671-15.6-42-20.586s-1.828-17.1,4.313-20.591c3.561-2.017,8.248-.822,11.556.543a6.525,6.525,0,0,0,6.859-1.23c3.023-2.724,8.662-5.793,17.562-3.377a6.325,6.325,0,0,0,3.487-.065c3.706-1.131,12.527-3.093,18.927,1.265a6.475,6.475,0,0,0,6.933.264l.09-.055c2.989-1.828,16.935,15.441,16.935,15.441S594.146,656.174,589,657.833Z" transform="translate(-316.217 -348.682)"/>
    <circle id="椭圆_60" data-name="椭圆 60" class="cls-8" cx="19.844" cy="19.844" r="19.844" transform="translate(212.759 275.36)"/>
    <circle id="椭圆_61" data-name="椭圆 61" class="cls-6" cx="19.844" cy="19.844" r="19.844" transform="translate(212.759 275.859)"/>
    <path id="路径_939" data-name="路径 939" class="cls-14" d="M563.258,629.466a8.27,8.27,0,0,0-5.15,3.407c-.613,1.066-.827,2.346-1.713,3.232-1.255,1.26-3.372,1.285-5.071,1.992s-2.819,3.2-1.156,3.985a3.71,3.71,0,0,0-3.233,3.277,9.747,9.747,0,0,0,.971,4.687c1.9,4.9,3.95,10.016,8.144,13.5,6.834,5.688,17.134,5.424,26.314,4.821a4.3,4.3,0,0,0,2.157-.5c1-.657,1.121-1.918,1.285-3.023.692-4.722,3.253-9.01,4.926-13.518s2.361-9.8-.458-13.792C586.125,631.623,570.241,627.573,563.258,629.466Z" transform="translate(-336.343 -350.918)"/>
    <path id="路径_940" data-name="路径 940" class="cls-8" d="M647.713,461.984l-.613,4.707-7.138,1s-.772-1.654-1.863-4.194l9.5-1.783Z" transform="translate(-382.122 -266.954)"/>
    <path id="路径_941" data-name="路径 941" class="cls-11" d="M653.964,566.481l4.154-4.816-.832-26.563a43.089,43.089,0,0,0,.832-5.813c.164-2.824-2.077-9.13-2.077-9.13a19.778,19.778,0,0,1,1.41-3.656c1-1.992-1.4-6.475-1.4-6.475s-3.576-11.62-2.082-17.433-.364-9.13-.364-9.13-1.459-6.475-1.295-9.13-3.322-5.15-3.322-5.15l-2.655-6.475L635.7,464.7v22.414s.662,21.418,0,25.572a15.187,15.187,0,0,0,1.325,8.134s-1.161,6.141-.164,8.467,2.989,7.969,2.989,7.969a12.951,12.951,0,0,0,.334,6.057c1,2.909,0,4.567,0,4.567Z" transform="translate(-380.852 -267.456)"/>
    <g id="组_1539" data-name="组 1539" class="cls-15" transform="translate(246.431 28.834)">
      <path id="路径_942" data-name="路径 942" d="M731.743,133.89a42.172,42.172,0,0,0-.752,8.851,42.36,42.36,0,0,1,.772-7.352,28.452,28.452,0,0,0,.877-6.8A41.33,41.33,0,0,1,731.743,133.89Z" transform="translate(-675.172 -128.59)"/>
      <path id="路径_943" data-name="路径 943" d="M622.862,174.161c-.533-.5-1.17-.847-1.718-1.32a6.836,6.836,0,0,1-2.187-4.981c-.144,2.49.364,4.9,2.187,6.475.548.473,1.185.832,1.718,1.32a6.087,6.087,0,0,1,1.8,4.159A6.84,6.84,0,0,0,622.862,174.161Z" transform="translate(-618.934 -148.3)"/>
      <path id="路径_944" data-name="路径 944" d="M622.283,136.811a9.386,9.386,0,0,0-.269-3.133c-.289-1.066-.807-2.107-1-3.178a3.335,3.335,0,0,1-.055.359c-.144,1.494.662,2.874,1.051,4.313A8.465,8.465,0,0,1,622.283,136.811Z" transform="translate(-619.944 -129.549)"/>
      <path id="路径_945" data-name="路径 945" d="M679.042,171.683c-1.38,1.494-3.576,1.863-5.6,1.848s-4.069-.344-6.057.055c-1.385.279-2.794.9-4.154.5-1.878-.543-2.63-2.989-4.428-3.462-2.047-.538-3.606,2.266-4.981,3.382-3.362,2.69-8.079,2.665-12.377,2.49-1.828-.085-4.084.06-4.871,1.713a2.311,2.311,0,0,0-.144,1.609l-6.087.956a11.807,11.807,0,0,1-.164,1.494l6.251-1a2.311,2.311,0,0,1,.144-1.609c.787-1.654,3.043-1.8,4.871-1.713,4.3.2,9.015.224,12.377-2.49,1.395-1.116,2.954-3.92,4.981-3.382,1.8.468,2.55,2.919,4.428,3.462,1.36.389,2.769-.234,4.154-.5,1.992-.4,4.035-.07,6.057-.055s4.219-.369,5.6-1.848,1.579-3.686,1.494-5.838A6.5,6.5,0,0,1,679.042,171.683Z" transform="translate(-624.578 -148.019)"/>
    </g>
    <g id="组_1540" data-name="组 1540" class="cls-15" transform="translate(250.544 71.874)">
      <path id="路径_946" data-name="路径 946" d="M631.434,220.9a10.072,10.072,0,0,0-1.838-.747,4.756,4.756,0,0,1-2.406-2.461,5.329,5.329,0,0,0,2.9,3.955,10.076,10.076,0,0,1,1.838.747,2.759,2.759,0,0,1,.882,1.031A3.844,3.844,0,0,0,631.434,220.9Z" transform="translate(-627.19 -216.35)"/>
      <path id="路径_947" data-name="路径 947" d="M646.185,247.391c-2.3.583-5.295.887-6.555-1.061a3.421,3.421,0,0,0,.4,1.34c1.076,1.918,3.706,1.853,5.942,1.38Z" transform="translate(-633.434 -230.725)"/>
      <path id="路径_948" data-name="路径 948" d="M661.665,251.2a5.344,5.344,0,0,1-2.739,5.1A13.014,13.014,0,0,1,653,257.795a2.033,2.033,0,0,1-.966-.11,1.185,1.185,0,0,0,1.464,1.6,12.692,12.692,0,0,0,5.922-1.494,5.322,5.322,0,0,0,2.734-5.12A5.65,5.65,0,0,0,661.665,251.2Z" transform="translate(-639.61 -233.169)"/>
      <path id="路径_949" data-name="路径 949" d="M671.141,215a8.2,8.2,0,0,1-1.494,7.048c-1.176,1.424-2.964,2.565-3.218,4.393a4.148,4.148,0,0,0,.5,2.426,3.235,3.235,0,0,1,0-.931c.254-1.828,2.042-2.988,3.218-4.393A8.379,8.379,0,0,0,671.141,215Z" transform="translate(-646.874 -215)"/>
    </g>
    <g id="组_1541" data-name="组 1541" class="cls-15" transform="translate(210.547 277.858)">
      <path id="路径_950" data-name="路径 950" d="M553.82,638.644c1.694-.7,3.81-.727,5.07-1.992.887-.887,1.1-2.167,1.713-3.228,1-1.773,3.063-2.844,5.145-3.407,6.973-1.893,22.872,2.152,27.016,8.014a10.883,10.883,0,0,1,1.9,6.017,11.247,11.247,0,0,0-1.9-7.008c-4.144-5.862-20.028-9.907-27.016-8.014a8.227,8.227,0,0,0-5.145,3.407c-.613,1.061-.827,2.341-1.713,3.228-1.26,1.26-3.377,1.285-5.07,1.992-1.29.533-2.246,2.107-1.9,3.163a3.426,3.426,0,0,1,1.893-2.172Z" transform="translate(-549.381 -628.555)"/>
      <path id="路径_951" data-name="路径 951" d="M546.944,659.179a3.7,3.7,0,0,1,3.233-3.277,1.325,1.325,0,0,1-.762-.852,3.87,3.87,0,0,0-2.49,3.133,5.269,5.269,0,0,0,0,1.22A.856.856,0,0,0,546.944,659.179Z" transform="translate(-546.889 -641.853)"/>
    </g>
    <rect id="矩形_1282" data-name="矩形 1282" class="cls-12" width="45.326" height="59.108" transform="translate(270.786 114.684)"/>
    <rect id="矩形_1283" data-name="矩形 1283" class="cls-8" width="45.326" height="59.108" transform="translate(270.786 114.684)"/>
    <rect id="矩形_1284" data-name="矩形 1284" class="cls-12" width="45.326" height="59.108" transform="translate(288.761 125.836) rotate(-9.76)"/>
    <rect id="矩形_1285" data-name="矩形 1285" class="cls-13" width="10.649" height="13.887" transform="translate(299.587 165.547) rotate(-9.76)"/>
    <rect id="矩形_1286" data-name="矩形 1286" class="cls-13" width="10.649" height="13.887" transform="translate(314.109 163.046) rotate(-9.76)"/>
    <rect id="矩形_1287" data-name="矩形 1287" class="cls-13" width="37.344" height="13.949" transform="translate(298.061 147.509) rotate(-9.744)"/>
    <rect id="矩形_1288" data-name="矩形 1288" class="cls-13" width="37.344" height="3.112" transform="translate(294.993 131.101) rotate(-9.744)"/>
    <rect id="矩形_1289" data-name="矩形 1289" class="cls-13" width="37.344" height="3.112" transform="translate(296.2 136.743) rotate(-9.744)"/>
    <path id="路径_952" data-name="路径 952" class="cls-9" d="M705.585,268.71s-20.835,20.92-10.375,26.234,17.268-17.682,17.268-17.682l1.654-5.23Z" transform="translate(-409.312 -170.084)"/>
    <path id="路径_953" data-name="路径 953" class="cls-8" d="M712.745,261.968l-2.575,5.688s12.7,1.783,15.356,5.623l-1.574-10.036-1.868-4.284Z" transform="translate(-418.295 -165.191)"/>
    <path id="路径_954" data-name="路径 954" class="cls-4" d="M713.745,260.968l-2.575,5.688s12.7,1.783,15.356,5.623l-1.574-10.036-1.868-4.284Z" transform="translate(-418.797 -164.689)"/>
    <path id="路径_955" data-name="路径 955" class="cls-16" d="M812.5,403.26l-.274.189.379.169.408-.035.05-.284Z" transform="translate(-440.672 -202.398)"/>
    <path id="路径_956" data-name="路径 956" class="cls-8" d="M812.5,403.26l-.274.189.379.169.408-.035.05-.284Z" transform="translate(-440.672 -202.398)"/>
    <path id="路径_957" data-name="路径 957" class="cls-17" d="M812.278,402.909l-.279.179-.219-.269.135-.219.125-.04Z" transform="translate(-440.446 -202.047)"/>
    <path id="路径_958" data-name="路径 958" class="cls-8" d="M812.278,402.909l-.279.179-.219-.269.135-.219.125-.04Z" transform="translate(-440.446 -202.047)"/>
    <path id="路径_959" data-name="路径 959" class="cls-17" d="M898.308,374.122,877.917,344.67a2.426,2.426,0,0,0-3.377-.623l-45.455,31.2a2.436,2.436,0,0,0-.633,3.382l20.337,29.825Z" transform="translate(-477.45 -207.682)"/>
    <path id="路径_960" data-name="路径 960" class="cls-8" d="M898.308,374.122,877.917,344.67a2.426,2.426,0,0,0-3.377-.623l-45.455,31.2a2.436,2.436,0,0,0-.633,3.382l20.337,29.825Z" transform="translate(-477.45 -207.682)"/>
    <path id="路径_961" data-name="路径 961" class="cls-17" d="M899.307,374.261l-20.391-29.452a2.431,2.431,0,0,0-3.382-.623l-45.45,31.22a2.44,2.44,0,0,0-.638,3.382l20.337,29.84Z" transform="translate(-477.95 -207.752)"/>
    <path id="路径_962" data-name="路径 962" class="cls-16" d="M937.374,411.209l-16.935-5.439L870.91,440.1l17.2,5.628a2.605,2.605,0,0,0,2.306-.349l47.094-33.252a.5.5,0,0,0-.139-.921Z" transform="translate(-498.973 -238.877)"/>
    <path id="路径_963" data-name="路径 963" class="cls-8" d="M937.374,411.209l-16.935-5.439L870.91,440.1l17.2,5.628a2.605,2.605,0,0,0,2.306-.349l47.094-33.252a.5.5,0,0,0-.139-.921Z" transform="translate(-498.973 -238.877)"/>
    <path id="路径_964" data-name="路径 964" class="cls-16" d="M937.164,410.514l-16.935-5.444L870.7,439.4l17.2,5.618a2.585,2.585,0,0,0,2.306-.344L937.3,411.426a.5.5,0,0,0-.139-.911Z" transform="translate(-498.868 -238.526)"/>
    <g id="组_1542" data-name="组 1542" class="cls-15" transform="translate(364.269 152.857)">
      <path id="路径_965" data-name="路径 965" d="M950.043,400.345l-1.25-1.793a.5.5,0,0,0-.677-.125l-1.858,1.24a.5.5,0,0,0-.134.672l1.151,1.768a.5.5,0,0,0,.672.144l1.957-1.23A.5.5,0,0,0,950.043,400.345Z" transform="translate(-900.955 -388.008)"/>
      <path id="路径_966" data-name="路径 966" d="M943.339,404.99l-1.255-1.788a.5.5,0,0,0-.677-.125l-1.853,1.25a.5.5,0,0,0-.14.672l1.151,1.768a.5.5,0,0,0,.672.149l1.963-1.23a.5.5,0,0,0,.139-.7Z" transform="translate(-897.588 -390.341)"/>
      <path id="路径_967" data-name="路径 967" d="M936.3,409.86l-1.255-1.788a.5.5,0,0,0-.677-.125l-1.858,1.25a.5.5,0,0,0-.135.677l1.151,1.768a.5.5,0,0,0,.672.144l1.958-1.23a.5.5,0,0,0,.144-.7Z" transform="translate(-894.051 -392.786)"/>
      <path id="路径_968" data-name="路径 968" d="M929.173,414.8,927.918,413a.5.5,0,0,0-.672-.125l-1.858,1.255a.5.5,0,0,0-.135.672l1.151,1.768a.5.5,0,0,0,.667.149l1.962-1.235a.5.5,0,0,0,.139-.692Z" transform="translate(-890.48 -395.262)"/>
      <path id="路径_969" data-name="路径 969" d="M922.049,419.73l-1.255-1.788a.5.5,0,0,0-.677-.125l-1.853,1.25a.5.5,0,0,0-.14.672l1.151,1.768a.5.5,0,0,0,.672.149l1.963-1.235a.5.5,0,0,0,.139-.692Z" transform="translate(-886.903 -397.74)"/>
      <path id="路径_970" data-name="路径 970" d="M914.98,424.781l-1.559-2.221a.224.224,0,0,0-.314-.06l-2.281,1.539a.224.224,0,0,0-.065.314l1.43,2.2a.229.229,0,0,0,.314.07l2.411-1.494a.229.229,0,0,0,.065-.344Z" transform="translate(-883.226 -400.111)"/>
      <path id="路径_971" data-name="路径 971" d="M907.851,429.711l-1.569-2.221a.229.229,0,0,0-.319-.06l-2.281,1.539a.229.229,0,0,0-.06.314l1.43,2.2a.219.219,0,0,0,.314.07l2.406-1.494a.224.224,0,0,0,.08-.344Z" transform="translate(-879.642 -402.585)"/>
      <path id="路径_972" data-name="路径 972" d="M901.552,434.107l-1.559-2.2a.229.229,0,0,0-.314-.055l-2.281,1.534a.234.234,0,0,0-.065.319l1.43,2.2a.234.234,0,0,0,.314.07l2.411-1.494a.229.229,0,0,0,.065-.369Z" transform="translate(-876.486 -404.804)"/>
      <path id="路径_973" data-name="路径 973" d="M894.49,438.966l-1.559-2.221a.229.229,0,0,0-.314-.055l-2.281,1.534a.229.229,0,0,0-.065.319l1.429,2.2a.234.234,0,0,0,.314.07l2.411-1.494a.234.234,0,0,0,.065-.349Z" transform="translate(-872.941 -407.234)"/>
      <path id="路径_974" data-name="路径 974" d="M887.65,443.661l-1.559-2.221a.224.224,0,0,0-.314-.06l-2.281,1.539a.224.224,0,0,0-.065.314l1.43,2.2a.229.229,0,0,0,.314.07L887.586,444a.229.229,0,0,0,.065-.344Z" transform="translate(-869.508 -409.587)"/>
      <path id="路径_975" data-name="路径 975" d="M880.825,448.441l-1.544-2.226a.229.229,0,0,0-.314-.055l-2.281,1.534a.229.229,0,0,0-.065.319l1.43,2.2a.234.234,0,0,0,.314.07l2.411-1.494a.229.229,0,0,0,.05-.344Z" transform="translate(-866.09 -411.987)"/>
      <path id="路径_976" data-name="路径 976" d="M873.97,453.171l-1.559-2.221a.224.224,0,0,0-.314-.06l-2.281,1.529a.224.224,0,0,0-.065.314l1.429,2.2a.229.229,0,0,0,.314.07l2.411-1.494a.229.229,0,0,0,.065-.334Z" transform="translate(-862.642 -414.361)"/>
      <path id="路径_977" data-name="路径 977" d="M945.554,393.835l-1.255-1.793a.5.5,0,0,0-.677-.124l-1.838,1.255a.5.5,0,0,0-.139.672l1.151,1.768a.5.5,0,0,0,.672.144l1.962-1.23a.5.5,0,0,0,.125-.692Z" transform="translate(-898.708 -384.74)"/>
      <path id="路径_978" data-name="路径 978" d="M935.689,379.6l-1.255-1.8a.5.5,0,0,0-.672-.125l-1.858,1.25a.5.5,0,0,0-.14.672l1.151,1.768a.5.5,0,0,0,.672.149l1.962-1.23A.5.5,0,0,0,935.689,379.6Z" transform="translate(-893.749 -377.59)"/>
      <path id="路径_979" data-name="路径 979" d="M938.833,398.482l-1.255-1.788a.5.5,0,0,0-.672-.125l-1.858,1.25a.5.5,0,0,0-.134.672l1.146,1.768a.5.5,0,0,0,.672.149l1.962-1.23a.5.5,0,0,0,.14-.7Z" transform="translate(-895.328 -387.076)"/>
      <path id="路径_980" data-name="路径 980" d="M931.787,403.35l-1.255-1.788a.5.5,0,0,0-.677-.125L928,402.673a.5.5,0,0,0-.14.677l1.151,1.768a.5.5,0,0,0,.672.144l1.962-1.23A.5.5,0,0,0,931.787,403.35Z" transform="translate(-891.789 -389.518)"/>
      <path id="路径_981" data-name="路径 981" d="M924.663,408.285l-1.25-1.793a.5.5,0,0,0-.677-.125l-1.858,1.27a.5.5,0,0,0-.135.672l1.151,1.768a.5.5,0,0,0,.672.144l1.957-1.23a.5.5,0,0,0,.139-.707Z" transform="translate(-888.216 -391.993)"/>
      <path id="路径_982" data-name="路径 982" d="M929.139,384.482l-1.255-1.788a.5.5,0,0,0-.672-.125l-1.858,1.25a.5.5,0,0,0-.14.672l1.151,1.768a.5.5,0,0,0,.672.149L929,385.18a.5.5,0,0,0,.14-.7Z" transform="translate(-890.461 -380.049)"/>
      <path id="路径_983" data-name="路径 983" d="M922.1,389.355l-1.255-1.793a.5.5,0,0,0-.677-.125l-1.853,1.235a.5.5,0,0,0-.139.672l1.151,1.768a.5.5,0,0,0,.672.144l1.963-1.23A.5.5,0,0,0,922.1,389.355Z" transform="translate(-886.928 -382.491)"/>
      <path id="路径_984" data-name="路径 984" d="M914.973,394.289l-1.255-1.788a.5.5,0,0,0-.672-.13l-1.858,1.27a.5.5,0,0,0-.135.672l1.151,1.768a.5.5,0,0,0,.672.149L914.833,395a.5.5,0,0,0,.139-.707Z" transform="translate(-883.353 -384.97)"/>
      <path id="路径_985" data-name="路径 985" d="M917.558,413.219l-1.255-1.788a.5.5,0,0,0-.672-.13l-1.843,1.255a.5.5,0,0,0-.134.672L914.783,415a.5.5,0,0,0,.667.149l1.962-1.235a.5.5,0,0,0,.145-.692Z" transform="translate(-884.657 -394.471)"/>
      <path id="路径_986" data-name="路径 986" d="M910.419,418.15l-1.255-1.788a.5.5,0,0,0-.677-.125l-1.853,1.25a.5.5,0,0,0-.139.672l1.151,1.768a.5.5,0,0,0,.672.149l1.962-1.23a.5.5,0,0,0,.139-.7Z" transform="translate(-881.065 -396.947)"/>
      <path id="路径_987" data-name="路径 987" d="M903.35,423.2l-1.559-2.221a.224.224,0,0,0-.314-.06l-2.281,1.539a.224.224,0,0,0-.065.314l1.43,2.2a.224.224,0,0,0,.314.07l2.411-1.494a.229.229,0,0,0,.065-.344Z" transform="translate(-877.388 -399.318)"/>
      <path id="路径_988" data-name="路径 988" d="M897.047,427.571l-1.559-2.226a.229.229,0,0,0-.314-.055l-2.276,1.534a.234.234,0,0,0-.065.319l1.43,2.2a.234.234,0,0,0,.314.07l2.411-1.494a.219.219,0,0,0,.06-.344Z" transform="translate(-874.228 -401.512)"/>
      <path id="路径_989" data-name="路径 989" d="M889.98,432.456l-1.559-2.221a.229.229,0,0,0-.314-.055l-2.281,1.534a.224.224,0,0,0-.065.314l1.43,2.2a.234.234,0,0,0,.314.07l2.411-1.494a.234.234,0,0,0,.065-.349Z" transform="translate(-870.678 -403.966)"/>
      <path id="路径_990" data-name="路径 990" d="M883.14,437.191l-1.559-2.221a.224.224,0,0,0-.314-.06l-2.281,1.519a.224.224,0,0,0-.065.314l1.43,2.2a.229.229,0,0,0,.314.07l2.411-1.494a.229.229,0,0,0,.065-.324Z" transform="translate(-867.245 -406.34)"/>
      <path id="路径_991" data-name="路径 991" d="M927.1,396.582l-1.255-1.788a.5.5,0,0,0-.672-.125l-1.858,1.255a.5.5,0,0,0-.135.672l1.151,1.768a.5.5,0,0,0,.667.144l1.962-1.23a.5.5,0,0,0,.139-.7Z" transform="translate(-889.441 -386.123)"/>
      <path id="路径_992" data-name="路径 992" d="M919.969,401.515l-1.255-1.793a.5.5,0,0,0-.677-.125l-1.853,1.255a.5.5,0,0,0-.139.672l1.151,1.768a.5.5,0,0,0,.672.149l1.962-1.235a.5.5,0,0,0,.14-.692Z" transform="translate(-885.859 -388.595)"/>
      <path id="路径_993" data-name="路径 993" d="M912.858,406.45l-1.255-1.788a.5.5,0,0,0-.677-.125l-1.858,1.25a.5.5,0,0,0-.134.672l1.151,1.768a.5.5,0,0,0,.672.149l1.957-1.235a.5.5,0,0,0,.144-.692Z" transform="translate(-882.289 -391.074)"/>
      <path id="路径_994" data-name="路径 994" d="M905.733,411.382l-1.255-1.788a.5.5,0,0,0-.672-.125l-1.858,1.25a.5.5,0,0,0-.134.672l1.151,1.788a.5.5,0,0,0,.667.149l1.962-1.23a.5.5,0,0,0,.139-.717Z" transform="translate(-878.715 -393.551)"/>
      <path id="路径_995" data-name="路径 995" d="M898.712,416.431l-1.559-2.221a.224.224,0,0,0-.314-.06l-2.281,1.539a.229.229,0,0,0-.065.314l1.429,2.2a.224.224,0,0,0,.314.065l2.411-1.494a.229.229,0,0,0,.065-.344Z" transform="translate(-875.061 -395.92)"/>
      <path id="路径_996" data-name="路径 996" d="M892.362,420.8l-1.559-2.226a.234.234,0,0,0-.319-.055l-2.276,1.534a.234.234,0,0,0-.065.319l1.43,2.2a.229.229,0,0,0,.314.07l2.411-1.494a.229.229,0,0,0,.065-.344Z" transform="translate(-871.874 -398.113)"/>
      <path id="路径_997" data-name="路径 997" d="M885.3,425.661l-1.559-2.226a.234.234,0,0,0-.319-.055l-2.281,1.534a.239.239,0,0,0-.065.319l1.434,2.2a.229.229,0,0,0,.314.07L885.229,426a.224.224,0,0,0,.07-.344Z" transform="translate(-868.327 -400.553)"/>
      <path id="路径_998" data-name="路径 998" d="M878.461,430.421,876.9,428.2a.229.229,0,0,0-.319-.06l-2.281,1.539a.229.229,0,0,0-.06.314l1.43,2.2a.219.219,0,0,0,.314.07l2.406-1.494a.224.224,0,0,0,.07-.344Z" transform="translate(-864.896 -402.941)"/>
      <path id="路径_999" data-name="路径 999" d="M876.3,441.927l-1.559-2.221a.229.229,0,0,0-.314-.055l-2.281,1.534a.224.224,0,0,0-.065.314l1.43,2.2a.234.234,0,0,0,.314.07l2.411-1.494a.234.234,0,0,0,.065-.349Z" transform="translate(-863.811 -408.719)"/>
      <path id="路径_1000" data-name="路径 1000" d="M869.46,446.661,867.9,444.44a.224.224,0,0,0-.314-.06l-2.281,1.539a.224.224,0,0,0-.065.314l1.429,2.2a.229.229,0,0,0,.314.07L869.4,447a.229.229,0,0,0,.065-.344Z" transform="translate(-860.378 -411.093)"/>
      <path id="路径_1001" data-name="路径 1001" d="M880.252,418.423l-1.494-2.092a.309.309,0,0,0-.423-.075l-2.152,1.449a.3.3,0,0,0-.085.423l1.345,2.067a.3.3,0,0,0,.418.095l2.276-1.429a.309.309,0,0,0,.115-.438Z" transform="translate(-865.82 -396.971)"/>
      <path id="路径_1002" data-name="路径 1002" d="M873.437,423.158l-1.469-2.092a.3.3,0,0,0-.423-.08l-2.152,1.474a.3.3,0,0,0-.085.418l1.345,2.072a.309.309,0,0,0,.418.095l2.276-1.43a.309.309,0,0,0,.09-.458Z" transform="translate(-862.413 -399.344)"/>
      <path id="路径_1003" data-name="路径 1003" d="M866.6,427.9l-1.469-2.1a.309.309,0,0,0-.423-.075l-2.152,1.449a.3.3,0,0,0-.085.423l1.345,2.067a.3.3,0,0,0,.418.095l2.276-1.43a.3.3,0,0,0,.09-.433Z" transform="translate(-858.979 -401.724)"/>
      <path id="路径_1004" data-name="路径 1004" d="M859.772,432.661l-1.559-2.226a.229.229,0,0,0-.314-.055l-2.281,1.534a.234.234,0,0,0-.065.319l1.43,2.2a.234.234,0,0,0,.314.07l2.411-1.494a.219.219,0,0,0,.065-.344Z" transform="translate(-855.516 -404.066)"/>
      <path id="路径_1005" data-name="路径 1005" d="M937.44,386.713l-1.35-1.918a.5.5,0,0,0-.677-.12l-5.27,3.691a.5.5,0,0,0-.13.667l1.27,1.962a.5.5,0,0,0,.692.134l5.349-3.741A.5.5,0,0,0,937.44,386.713Z" transform="translate(-892.87 -381.105)"/>
      <path id="路径_1006" data-name="路径 1006" d="M868.073,434.9l-1.654-2.336a.224.224,0,0,0-.319-.055l-5.688,3.985a.224.224,0,0,0-.06.309l1.554,2.406a.229.229,0,0,0,.324.065l5.783-4.049A.234.234,0,0,0,868.073,434.9Z" transform="translate(-857.925 -405.131)"/>
      <path id="路径_1007" data-name="路径 1007" d="M897.538,399.133l-1.524-2.231a.229.229,0,0,0-.314-.06l-12.631,8.527a.229.229,0,0,0-.065.314l1.559,2.391a.229.229,0,0,0,.324.065l12.591-8.687a.229.229,0,0,0,.06-.319Z" transform="translate(-869.294 -387.234)"/>
    </g>
    <path id="路径_1008" data-name="路径 1008" class="cls-16" d="M950.709,400.465l-1.255-1.793a.5.5,0,0,0-.677-.125l-1.853,1.255a.5.5,0,0,0-.14.672l1.151,1.768a.5.5,0,0,0,.672.149l1.962-1.235a.5.5,0,0,0,.139-.692Z" transform="translate(-537.018 -235.211)"/>
    <path id="路径_1009" data-name="路径 1009" class="cls-16" d="M943.969,405.112l-1.255-1.788a.5.5,0,0,0-.672-.125l-1.858,1.25a.5.5,0,0,0-.14.672l1.151,1.768a.5.5,0,0,0,.672.149l1.962-1.23a.5.5,0,0,0,.139-.7Z" transform="translate(-533.635 -237.547)"/>
    <path id="路径_1010" data-name="路径 1010" class="cls-16" d="M936.969,409.99l-1.255-1.788a.5.5,0,0,0-.677-.125l-1.853,1.255a.5.5,0,0,0-.14.672l1.151,1.768a.5.5,0,0,0,.672.144l1.963-1.23a.5.5,0,0,0,.139-.7Z" transform="translate(-530.122 -239.994)"/>
    <path id="路径_1011" data-name="路径 1011" class="cls-16" d="M929.825,414.917l-1.255-1.793A.5.5,0,0,0,927.9,413l-1.858,1.255a.5.5,0,0,0-.129.7l1.151,1.768a.5.5,0,0,0,.672.149l1.958-1.235a.5.5,0,0,0,.135-.717Z" transform="translate(-526.534 -242.466)"/>
    <path id="路径_1012" data-name="路径 1012" class="cls-16" d="M922.713,419.852l-1.255-1.788a.5.5,0,0,0-.672-.125l-1.858,1.25a.5.5,0,0,0-.134.672l1.146,1.768a.5.5,0,0,0,.672.149l1.962-1.235a.5.5,0,0,0,.139-.692Z" transform="translate(-522.968 -244.945)"/>
    <path id="路径_1013" data-name="路径 1013" class="cls-16" d="M915.64,424.9l-1.559-2.221a.224.224,0,0,0-.314-.06l-2.281,1.539a.224.224,0,0,0-.065.314l1.43,2.2a.229.229,0,0,0,.314.07l2.411-1.494a.229.229,0,0,0,.065-.344Z" transform="translate(-519.287 -247.314)"/>
    <path id="路径_1014" data-name="路径 1014" class="cls-16" d="M908.52,429.831l-1.559-2.221a.229.229,0,0,0-.319-.06l-2.276,1.539a.224.224,0,0,0-.065.314l1.43,2.2a.224.224,0,0,0,.314.065l2.411-1.494a.234.234,0,0,0,.065-.344Z" transform="translate(-515.714 -249.789)"/>
    <path id="路径_1015" data-name="路径 1015" class="cls-16" d="M902.212,434.2l-1.559-2.226a.229.229,0,0,0-.314-.055l-2.281,1.514a.234.234,0,0,0-.065.319l1.43,2.2a.234.234,0,0,0,.314.07l2.411-1.494a.229.229,0,0,0,.065-.324Z" transform="translate(-512.548 -251.983)"/>
    <path id="路径_1016" data-name="路径 1016" class="cls-16" d="M895.15,439.112l-1.559-2.207a.229.229,0,0,0-.314-.055L891,438.384a.229.229,0,0,0-.065.319l1.43,2.2a.234.234,0,0,0,.314.07l2.411-1.494a.229.229,0,0,0,.065-.364Z" transform="translate(-509.003 -254.457)"/>
    <path id="路径_1017" data-name="路径 1017" class="cls-16" d="M888.31,443.821l-1.559-2.221a.224.224,0,0,0-.314-.06l-2.281,1.539a.224.224,0,0,0-.065.314l1.43,2.2a.224.224,0,0,0,.314.07l2.411-1.494a.229.229,0,0,0,.065-.344Z" transform="translate(-505.57 -256.811)"/>
    <path id="路径_1018" data-name="路径 1018" class="cls-16" d="M881.472,448.561l-1.559-2.226a.229.229,0,0,0-.314-.055l-2.281,1.534a.234.234,0,0,0-.065.319l1.43,2.2a.234.234,0,0,0,.314.07l2.411-1.494a.229.229,0,0,0,.065-.344Z" transform="translate(-502.139 -259.19)"/>
    <path id="路径_1019" data-name="路径 1019" class="cls-16" d="M874.63,453.291l-1.559-2.221a.224.224,0,0,0-.314-.06l-2.281,1.539a.224.224,0,0,0-.065.314l1.43,2.2a.224.224,0,0,0,.314.07l2.411-1.494a.229.229,0,0,0,.065-.344Z" transform="translate(-498.704 -261.564)"/>
    <path id="路径_1020" data-name="路径 1020" class="cls-16" d="M946.2,393.987l-1.255-1.793a.5.5,0,0,0-.672-.125l-1.858,1.255a.5.5,0,0,0-.134.672l1.146,1.768a.5.5,0,0,0,.672.149l1.962-1.235a.5.5,0,0,0,.14-.692Z" transform="translate(-534.758 -231.961)"/>
    <path id="路径_1021" data-name="路径 1021" class="cls-16" d="M936.353,379.732l-1.255-1.788a.5.5,0,0,0-.672-.125l-1.858,1.25a.5.5,0,0,0-.134.672l1.151,1.768a.5.5,0,0,0,.667.149l1.962-1.23a.5.5,0,0,0,.139-.7Z" transform="translate(-529.814 -224.808)"/>
    <path id="路径_1022" data-name="路径 1022" class="cls-16" d="M939.493,398.592l-1.255-1.8a.5.5,0,0,0-.672-.125l-1.858,1.25a.5.5,0,0,0-.134.672l1.151,1.768a.5.5,0,0,0,.667.149l1.962-1.23a.5.5,0,0,0,.139-.687Z" transform="translate(-531.39 -234.27)"/>
    <path id="路径_1023" data-name="路径 1023" class="cls-16" d="M932.471,403.472l-1.235-1.788a.5.5,0,0,0-.672-.125l-1.858,1.25a.5.5,0,0,0-.134.677l1.146,1.768a.5.5,0,0,0,.672.144l1.963-1.23a.5.5,0,0,0,.119-.7Z" transform="translate(-527.875 -236.724)"/>
    <path id="路径_1024" data-name="路径 1024" class="cls-16" d="M925.329,408.405l-1.255-1.793a.5.5,0,0,0-.677-.125l-1.853,1.255a.5.5,0,0,0-.139.672l1.151,1.768a.5.5,0,0,0,.672.149l1.962-1.235a.5.5,0,0,0,.139-.692Z" transform="translate(-524.28 -239.196)"/>
    <path id="路径_1025" data-name="路径 1025" class="cls-16" d="M929.8,384.592l-1.255-1.8a.5.5,0,0,0-.672-.125l-1.858,1.25a.5.5,0,0,0-.134.672l1.151,1.768a.5.5,0,0,0,.667.149l1.962-1.23A.5.5,0,0,0,929.8,384.592Z" transform="translate(-526.527 -227.243)"/>
    <path id="路径_1026" data-name="路径 1026" class="cls-16" d="M922.759,389.477l-1.255-1.793a.5.5,0,0,0-.672-.125l-1.858,1.255a.5.5,0,0,0-.139.672l1.151,1.768a.5.5,0,0,0,.672.149l1.963-1.235a.5.5,0,0,0,.139-.692Z" transform="translate(-522.99 -229.697)"/>
    <path id="路径_1027" data-name="路径 1027" class="cls-16" d="M915.639,394.41l-1.255-1.788a.5.5,0,0,0-.677-.124l-1.853,1.25a.5.5,0,0,0-.139.672l1.151,1.773a.5.5,0,0,0,.672.149l1.957-1.235a.5.5,0,0,0,.145-.7Z" transform="translate(-519.416 -232.174)"/>
    <path id="路径_1028" data-name="路径 1028" class="cls-16" d="M918.2,413.342l-1.255-1.788a.5.5,0,0,0-.672-.125l-1.858,1.24a.5.5,0,0,0-.135.672l1.151,1.768a.5.5,0,0,0,.667.149l1.963-1.235A.5.5,0,0,0,918.2,413.342Z" transform="translate(-520.704 -241.678)"/>
    <path id="路径_1029" data-name="路径 1029" class="cls-16" d="M911.079,418.272l-1.255-1.788a.5.5,0,0,0-.672-.125l-1.858,1.275a.5.5,0,0,0-.14.672l1.151,1.768a.5.5,0,0,0,.672.149l1.963-1.23a.5.5,0,0,0,.139-.722Z" transform="translate(-517.127 -244.152)"/>
    <path id="路径_1030" data-name="路径 1030" class="cls-16" d="M904.03,423.321l-1.559-2.221a.224.224,0,0,0-.314-.06l-2.261,1.539a.224.224,0,0,0-.065.314l1.43,2.2a.224.224,0,0,0,.314.07l2.411-1.494a.234.234,0,0,0,.045-.344Z" transform="translate(-513.47 -246.521)"/>
    <path id="路径_1031" data-name="路径 1031" class="cls-16" d="M897.709,427.661l-1.559-2.226a.234.234,0,0,0-.319-.055l-2.281,1.534a.239.239,0,0,0-.065.319l1.434,2.2a.229.229,0,0,0,.314.07L897.639,428a.224.224,0,0,0,.07-.344Z" transform="translate(-510.286 -248.7)"/>
    <path id="路径_1032" data-name="路径 1032" class="cls-16" d="M890.642,432.582l-1.559-2.226a.229.229,0,0,0-.314-.055l-2.281,1.534a.234.234,0,0,0-.065.319l1.43,2.2a.234.234,0,0,0,.314.07l2.411-1.494a.219.219,0,0,0,.065-.344Z" transform="translate(-506.741 -251.169)"/>
    <path id="路径_1033" data-name="路径 1033" class="cls-16" d="M883.827,437.311l-1.544-2.221a.224.224,0,0,0-.314-.06l-2.281,1.539a.229.229,0,0,0-.065.314l1.43,2.2a.229.229,0,0,0,.314.07l2.411-1.494a.224.224,0,0,0,.05-.344Z" transform="translate(-503.328 -253.543)"/>
    <path id="路径_1034" data-name="路径 1034" class="cls-16" d="M927.763,396.705l-1.25-1.793a.5.5,0,0,0-.677-.124l-1.858,1.255a.5.5,0,0,0-.135.672l1.151,1.768a.5.5,0,0,0,.672.144l1.957-1.23a.5.5,0,0,0,.139-.692Z" transform="translate(-525.503 -233.324)"/>
    <path id="路径_1035" data-name="路径 1035" class="cls-16" d="M920.643,401.639l-1.255-1.788a.5.5,0,0,0-.672-.13l-1.858,1.255a.5.5,0,0,0-.134.672l1.151,1.768a.5.5,0,0,0,.667.149l1.962-1.235a.5.5,0,0,0,.139-.692Z" transform="translate(-521.929 -235.802)"/>
    <path id="路径_1036" data-name="路径 1036" class="cls-16" d="M913.544,406.575l-1.27-1.783a.5.5,0,0,0-.677-.125l-1.813,1.245a.5.5,0,0,0-.14.672l1.151,1.768a.5.5,0,0,0,.672.149l1.962-1.23a.5.5,0,0,0,.115-.7Z" transform="translate(-518.377 -238.283)"/>
    <path id="路径_1037" data-name="路径 1037" class="cls-16" d="M906.393,411.5l-1.255-1.788a.5.5,0,0,0-.672-.125l-1.858,1.25a.5.5,0,0,0-.134.672l1.151,1.768a.5.5,0,0,0,.667.149l1.962-1.23a.5.5,0,0,0,.139-.7Z" transform="translate(-514.777 -240.754)"/>
    <path id="路径_1038" data-name="路径 1038" class="cls-16" d="M899.327,416.551l-1.559-2.221a.229.229,0,0,0-.319-.06l-2.281,1.539a.229.229,0,0,0-.065.314l1.43,2.2a.229.229,0,0,0,.319.065l2.406-1.494a.229.229,0,0,0,.07-.344Z" transform="translate(-511.098 -243.123)"/>
    <path id="路径_1039" data-name="路径 1039" class="cls-16" d="M893.037,420.921l-1.559-2.221a.224.224,0,0,0-.314-.06l-2.266,1.534a.234.234,0,0,0-.065.319l1.429,2.2a.234.234,0,0,0,.314.07l2.411-1.494a.229.229,0,0,0,.05-.344Z" transform="translate(-507.951 -245.317)"/>
    <path id="路径_1040" data-name="路径 1040" class="cls-16" d="M885.962,425.811l-1.559-2.226a.234.234,0,0,0-.319-.055l-2.276,1.534a.234.234,0,0,0-.065.319l1.429,2.2a.229.229,0,0,0,.314.07l2.411-1.494a.229.229,0,0,0,.065-.344Z" transform="translate(-504.392 -247.771)"/>
    <path id="路径_1041" data-name="路径 1041" class="cls-16" d="M879.12,430.541l-1.559-2.221a.229.229,0,0,0-.319-.06l-2.276,1.539a.224.224,0,0,0-.065.314l1.429,2.2a.224.224,0,0,0,.314.065l2.411-1.494a.234.234,0,0,0,.065-.344Z" transform="translate(-500.958 -250.145)"/>
    <path id="路径_1042" data-name="路径 1042" class="cls-16" d="M876.967,442.051l-1.559-2.226a.234.234,0,0,0-.319-.055l-2.281,1.534a.234.234,0,0,0-.065.319l1.43,2.2a.234.234,0,0,0,.314.07l2.411-1.494a.224.224,0,0,0,.07-.344Z" transform="translate(-499.875 -255.922)"/>
    <path id="路径_1043" data-name="路径 1043" class="cls-16" d="M870.127,446.781l-1.559-2.221a.229.229,0,0,0-.319-.06l-2.281,1.539a.229.229,0,0,0-.065.314l1.429,2.2a.229.229,0,0,0,.319.07l2.406-1.494a.224.224,0,0,0,.07-.344Z" transform="translate(-496.442 -258.296)"/>
    <path id="路径_1044" data-name="路径 1044" class="cls-16" d="M880.924,418.548l-1.469-2.1a.309.309,0,0,0-.423-.075l-2.167,1.449a.309.309,0,0,0-.085.423l1.345,2.072a.309.309,0,0,0,.423.09l2.271-1.43a.3.3,0,0,0,.1-.433Z" transform="translate(-501.894 -244.174)"/>
    <path id="路径_1045" data-name="路径 1045" class="cls-16" d="M874.1,423.278l-1.469-2.092a.3.3,0,0,0-.423-.08l-2.152,1.454a.3.3,0,0,0-.085.418l1.345,2.072a.314.314,0,0,0,.423.095l2.276-1.429a.314.314,0,0,0,.085-.438Z" transform="translate(-498.477 -246.548)"/>
    <path id="路径_1046" data-name="路径 1046" class="cls-16" d="M867.234,428.019l-1.494-2.1a.3.3,0,0,0-.418-.075l-2.157,1.449a.309.309,0,0,0-.085.423l1.345,2.072a.309.309,0,0,0,.423.09l2.276-1.43a.3.3,0,0,0,.11-.433Z" transform="translate(-495.018 -248.928)"/>
    <path id="路径_1047" data-name="路径 1047" class="cls-16" d="M860.44,432.791l-1.559-2.226a.234.234,0,0,0-.319-.055l-2.281,1.534a.234.234,0,0,0-.06.319l1.429,2.2a.229.229,0,0,0,.314.07l2.411-1.494a.229.229,0,0,0,.065-.344Z" transform="translate(-491.582 -251.274)"/>
    <path id="路径_1048" data-name="路径 1048" class="cls-16" d="M938.1,386.858l-1.33-1.923a.5.5,0,0,0-.677-.12l-5.3,3.691a.5.5,0,0,0-.13.667l1.275,1.962a.5.5,0,0,0,.692.134l5.344-3.741A.5.5,0,0,0,938.1,386.858Z" transform="translate(-528.927 -228.318)"/>
    <path id="路径_1049" data-name="路径 1049" class="cls-16" d="M868.732,435.017l-1.654-2.336a.224.224,0,0,0-.319-.055l-5.688,3.985a.229.229,0,0,0-.06.314l1.559,2.4a.229.229,0,0,0,.324.065l5.783-4.049A.234.234,0,0,0,868.732,435.017Z" transform="translate(-493.986 -252.335)"/>
    <path id="路径_1050" data-name="路径 1050" class="cls-16" d="M898.226,399.264l-1.494-2.216a.234.234,0,0,0-.319-.065L883.786,405.5a.224.224,0,0,0-.065.314l1.554,2.391a.229.229,0,0,0,.324.065l12.591-8.687A.229.229,0,0,0,898.226,399.264Z" transform="translate(-505.384 -234.448)"/>
    <path id="路径_1051" data-name="路径 1051" class="cls-8" d="M885.307,375.942l-6.714-9.757a1.245,1.245,0,0,0-1.723-.329l-18.494,12.417a1.25,1.25,0,0,0-.334,1.738l6.844,10.036a1.245,1.245,0,0,0,1.738.329l18.364-12.706a1.24,1.24,0,0,0,.319-1.728Z" transform="translate(-492.406 -218.737)"/>
    <path id="路径_1052" data-name="路径 1052" class="cls-18" d="M885.947,376.064l-6.714-9.757a1.25,1.25,0,0,0-1.723-.329L859.04,378.4a1.245,1.245,0,0,0-.339,1.738l6.824,10.026a1.245,1.245,0,0,0,1.738.329l18.374-12.706a1.24,1.24,0,0,0,.309-1.728Z" transform="translate(-492.737 -218.799)"/>
    <path id="路径_1053" data-name="路径 1053" class="cls-4" d="M936.814,413.312l-14.245-4.752L876.88,440.3l14.141,4.607a2.59,2.59,0,0,0,2.286-.339l43.637-30.343a.5.5,0,0,0-.13-.911Z" transform="translate(-501.97 -240.278)"/>
  </g>
</svg>
