<svg xmlns="http://www.w3.org/2000/svg" xmlns:xlink="http://www.w3.org/1999/xlink" width="621" height="451" viewBox="0 0 621 451">
  <defs>
    <style>
      .cls-1 {
        fill: #30374e;
      }

      .cls-2 {
        fill: #eee;
      }

      .cls-3 {
        fill: none;
        stroke: #444053;
        stroke-miterlimit: 10;
      }

      .cls-4 {
        fill: #ddd;
      }

      .cls-14, .cls-16, .cls-27, .cls-5 {
        opacity: 0.1;
      }

      .cls-27, .cls-6 {
        fill: #fff;
      }

      .cls-7 {
        fill: #dfe3ef;
      }

      .cls-8 {
        fill: url(#linear-gradient);
      }

      .cls-9 {
        fill: #65617d;
      }

      .cls-10 {
        fill: #fbbebe;
      }

      .cls-11 {
        fill: #e7effd;
      }

      .cls-12 {
        fill: #3f3d56;
      }

      .cls-13 {
        fill: #e3a79f;
      }

      .cls-15, .cls-16, .cls-17, .cls-18 {
        fill: #ff5d8f;
      }

      .cls-15 {
        opacity: 0.2;
      }

      .cls-17 {
        opacity: 0.5;
      }

      .cls-19 {
        fill: url(#linear-gradient-2);
      }

      .cls-20 {
        fill: #2d293d;
      }

      .cls-21 {
        fill: #575988;
      }

      .cls-22, .cls-23 {
        opacity: 0.05;
      }

      .cls-24 {
        fill: #ffcdd3;
      }

      .cls-25 {
        fill: #dce6f2;
      }

      .cls-26 {
        fill: #656691;
      }

      .cls-28 {
        fill: #efb7b9;
      }

      .cls-29 {
        fill: #444053;
      }

      .cls-30 {
        fill: #e6e6e6;
        isolation: isolate;
      }
    </style>
    <linearGradient id="linear-gradient" x1="-5.452" y1="1" x2="-5.452" y2="-0.001" gradientUnits="objectBoundingBox">
      <stop offset="0" stop-color="gray" stop-opacity="0.251"/>
      <stop offset="0.54" stop-color="gray" stop-opacity="0.122"/>
      <stop offset="1" stop-color="gray" stop-opacity="0.102"/>
    </linearGradient>
    <linearGradient id="linear-gradient-2" x1="-8.359" y1="0.872" x2="-8.359" y2="-0.14" xlink:href="#linear-gradient"/>
  </defs>
  <g id="kv_illust" transform="translate(-697.534 -213.291)">
    <path id="路径_1089" data-name="路径 1089" class="cls-1" d="M672.634,130.643a24.413,24.413,0,0,0-24.413-24.413H229.093a24.413,24.413,0,0,0-24.413,24.413V432.222H672.634Z" transform="translate(602.083 116.11)"/>
    <path id="路径_1090" data-name="路径 1090" class="cls-2" d="M667.83,156.037V415.179A12.019,12.019,0,0,1,655.812,427.2H237.429a12.012,12.012,0,0,1-12.019-12.019V156.037A12.019,12.019,0,0,1,237.429,144H655.812A12.025,12.025,0,0,1,667.83,156.037Z" transform="translate(594.123 101.607)"/>
    <path id="路径_1069" data-name="路径 1069" class="cls-3" d="M922.46,148.67s5.877,7.78,7.392,6.037" transform="translate(326.47 99.814)"/>
    <path id="路径_1078" data-name="路径 1078" class="cls-3" d="M886.5,125.88s-4.552,17.655-17.107,22.4" transform="translate(346.848 108.565)"/>
    <path id="路径_1081" data-name="路径 1081" class="cls-3" d="M824.67,126.4s11.051.074,13.645-3.53" transform="translate(364.051 109.72)"/>
    <path id="路径_1085" data-name="路径 1085" class="cls-4" d="M611.941,752.292v4.817H469.48v-3.918A46.818,46.818,0,0,0,472.7,666.72H610.974a46.872,46.872,0,0,0,.967,85.571Z" transform="translate(500.476 -99.285)"/>
    <path id="路径_1086" data-name="路径 1086" class="cls-5" d="M612.99,666.72a46.9,46.9,0,0,0-25.873,31.047H500.6A46.9,46.9,0,0,0,474.73,666.72Z" transform="translate(498.46 -99.285)"/>
    <path id="路径_1087" data-name="路径 1087" class="cls-4" d="M204.68,626.89v27.037c0,14.939,10.928,27.043,24.413,27.043H648.221c13.485,0,24.413-12.1,24.413-27.043V626.89Z" transform="translate(602.083 -83.991)"/>
    <path id="路径_1088" data-name="路径 1088" class="cls-5" d="M611.941,802.543v4.817H469.48v-3.918a46.66,46.66,0,0,0,10.99-5.852H603.206a46.887,46.887,0,0,0,8.735,4.953Z" transform="translate(500.476 -149.536)"/>
    <rect id="矩形_1290" data-name="矩形 1290" class="cls-4" width="236.607" height="14.273" rx="7.137" transform="translate(922.877 649.557)"/>
    <circle id="椭圆_66" data-name="椭圆 66" class="cls-6" cx="5.637" cy="5.637" r="5.637" transform="translate(1035.177 228.346)"/>
    <circle id="椭圆_67" data-name="椭圆 67" class="cls-6" cx="13.897" cy="13.897" r="13.897" transform="translate(1026.916 557.199)"/>
    <path id="路径_1091" data-name="路径 1091" class="cls-6" d="M667.824,156.037H225.41A12.012,12.012,0,0,1,237.429,144H655.805a12.012,12.012,0,0,1,12.018,12.037Z" transform="translate(594.123 101.607)"/>
    <circle id="椭圆_68" data-name="椭圆 68" class="cls-7" cx="3.006" cy="3.006" r="3.006" transform="translate(828.675 248.625)"/>
    <circle id="椭圆_69" data-name="椭圆 69" class="cls-7" cx="3.006" cy="3.006" r="3.006" transform="translate(837.685 248.625)"/>
    <circle id="椭圆_70" data-name="椭圆 70" class="cls-7" cx="3.006" cy="3.006" r="3.006" transform="translate(846.695 248.625)"/>
    <rect id="矩形_1291" data-name="矩形 1291" class="cls-6" width="357.058" height="208.659" transform="translate(861.251 290.87)"/>
    <path id="路径_1092" data-name="路径 1092" class="cls-8" d="M993.764,648.535c.129-.351-.85-2.322-.85-2.421s-1-1.2-1-1.8-1.337-1.941-1.337-1.941a3.348,3.348,0,0,1-1.977-2.353c-.191-1.614-2.144-1.645-2.15-1.645h0V638a5.217,5.217,0,0,0-.234-1.891,1.921,1.921,0,0,0-1.109-.936,4.166,4.166,0,0,0-.616-1.645,1.848,1.848,0,0,1-.456-1.743c.2-.616-.259-2.162-1.232-2.39s-2.015-.579-2.015-.579l-.259.043-.129-.043a6.33,6.33,0,0,1-.684.086.861.861,0,0,1-.554-.185,11.334,11.334,0,0,0-3.444-1.029,8.159,8.159,0,0,1-1.885-.616l-1.4-1.066a9.126,9.126,0,0,1-1.232-1.688h0a6.917,6.917,0,0,1-.3-.85h0a7.673,7.673,0,0,0,1.232-1.663l.092-.191a.788.788,0,0,0,.209,0l.086-.037a1.367,1.367,0,0,0,.69-.825h0a1.369,1.369,0,0,0,.062-.209v-.074a1.242,1.242,0,0,0,0-.148.366.366,0,0,0,0-.08,1.244,1.244,0,0,0,0-.148v-.265h0c.031-.228.055-.456.1-.684h0a12.989,12.989,0,0,1,1.1-2.427h0a2.905,2.905,0,0,0,.148-.351c.049-.129.092-.265.129-.394a.9.9,0,0,0,0-.123,1.781,1.781,0,0,1,.068-.289.277.277,0,0,0,0-.129c0-.135.037-.271.049-.406a4.928,4.928,0,0,0-.333-2.267c-.24-.616-.616-1.152-.85-1.756-.376-.918-.474-1.959-.93-2.834a3.382,3.382,0,0,0-4.047-1.651c-.708.265-1.318.776-2.039,1a6.778,6.778,0,0,1-2.982-.062,3.708,3.708,0,0,0-2.889.5c-.924.745-1.177,2.15-2.039,2.975-.363.345-.813.561-1.2.881a1.94,1.94,0,0,0-.616.819v.068a.6.6,0,0,0,0,.086.553.553,0,0,0,0,.1v.068a1.628,1.628,0,0,0,0,.173h0a1.469,1.469,0,0,0,.031.16v.043a.863.863,0,0,0,.043.135h0l.055.148.037.074a.193.193,0,0,0,0,.062,3.983,3.983,0,0,1,.3.752.843.843,0,0,1,0,.493,1.434,1.434,0,0,1-.364.474,6.814,6.814,0,0,0-1.466,2.347c-.037.1-.068.2-.1.3h.043a1.551,1.551,0,0,0,.283.062h.166a2.628,2.628,0,0,0,.659-.049l.166-.037a3.891,3.891,0,0,0,.659-.246v.314a7.669,7.669,0,0,0,4.263,6.862v.209a1.626,1.626,0,0,1,0,.172l-.086-.08s-.616-.289-1.14.548a3.7,3.7,0,0,1-1.6,1.232s-5.914.936-6.16,1.713l-2.76.16s-.973.129-1.072,2.162-.616,2.224-.616,2.224a7.706,7.706,0,0,0-1.041,3.037,1.682,1.682,0,0,1-.881,1.546l-.129,1.848a1.232,1.232,0,0,0-1.361,1.1,4.441,4.441,0,0,1-.813,1.848s-1.786,1.485-1.885,2.741l-1.109.678s-2.563-.579-3.148-1.614l-.185-.166h0a8.765,8.765,0,0,0-1.072-.949.793.793,0,0,1,.049.517l-.191-.21-.314-.641s-3.819-4.386-6.253-4.694h0a1.534,1.534,0,0,0-1.1,1.06c-.308,1.047-.616,2.784.172,3.641l3.85,4.1.1.074.838,1.072c-.142.339-.265.665-.363.967h0a.7.7,0,0,1-.062.191v.061l-.055.179a.133.133,0,0,1-.031.1v.062c-.092.327-.148.573-.179.715l-.216-.068.209.092h0a.274.274,0,0,0,0,.068l.2.086c1.14.5,6.819,2.988,7.115,3.37a4.109,4.109,0,0,0,4.417.616,4.656,4.656,0,0,0,2.372-2.612,27.568,27.568,0,0,0,1.922-2.926c.061-.382,1.528-.838,1.528-.838s.129,4.312-.616,5.908-2.144,8.575-2.144,8.575a1.053,1.053,0,0,1,.277,0l-.08.407a.968.968,0,0,1,.345,0c-.1.8-.7,4.5-.7,4.5a9.476,9.476,0,0,1-.518,2.261,16.23,16.23,0,0,0-.363,3.61l-.518,2.2s.068.148.2.376h0a5.543,5.543,0,0,0,1.5,1.928,3.791,3.791,0,0,1-.265,1,3.559,3.559,0,0,0-.259,1.552,19.471,19.471,0,0,0-.487,3.2,12.01,12.01,0,0,1-.357,2.464l-.616,5.618a53.254,53.254,0,0,0-.2,6.16,11.756,11.756,0,0,1-.129,3.129s.388,3.844.3,4.263a7.522,7.522,0,0,0-.3,3.228,15.777,15.777,0,0,1,.129,3.746s.2,3.616.425,4.774a8.167,8.167,0,0,1-.068,2.649,21.434,21.434,0,0,1-.326,2.464c-.092,0-.943,1.712.782,3.394s.653,1.417.653,1.417-1.368-.678-1.232.708.37.979.388.943l-.32,1.06.228.031c-.062.074-.123.154-.191.228a5.011,5.011,0,0,1-.653.678,1.416,1.416,0,0,0-.425.936,25.422,25.422,0,0,1-4.645,3.936,13.809,13.809,0,0,0-2.643,1.774c-.4.438-.333.795.5,1.066a12.6,12.6,0,0,0,7.047.129,8.224,8.224,0,0,0,3.45-2.224,4.97,4.97,0,0,1,2.76-.456c1.368.259,4.1-1.515,4.1-1.515l-.049-.456-.148-1.318a1.047,1.047,0,0,1-.228-.807,4.31,4.31,0,0,0-.111-1.158,1.865,1.865,0,0,0-.074-.376l.253-.049s-.327-1.645.259-1.965.419-4.552.419-4.552a5.177,5.177,0,0,0-1.133-1.127c-.388-.166-.037-2.168,0-2.421s.616-5.267.616-5.267a6.777,6.777,0,0,1,.068-2.255c.259-.678-.326-3.29-.326-3.29a.616.616,0,0,1,.16-.715c.357-.388.228-3.838.228-3.838s-.031-1.743-.031-2.2a7.965,7.965,0,0,1,.745-2.643,5.157,5.157,0,0,0,.135-2.261h0v-.487a25.185,25.185,0,0,1,.616-2.8c.425-1.355.912-3.745.912-3.745l3.025-7.879v-.092a12.349,12.349,0,0,1,1.4,4.971,28.384,28.384,0,0,1,.259,3.647,42.912,42.912,0,0,0,.3,4.417s.419,5.23.419,5.458a31.889,31.889,0,0,0,.85,4.873c.327.616-.327,2.464-.523,2.68a40.539,40.539,0,0,0,.062,4.928s-.487,3.745-.585,4.522a18.518,18.518,0,0,0-.16,4.928c.327,1.183.2,1.318.2,1.318s1.171,1.2.487,1.294a1.786,1.786,0,0,0-1.3,2.353,30.734,30.734,0,0,0,1.429,3.456l.542-.111v.382l.037,1.922a11.39,11.39,0,0,1,.1,2.261c-.092.308-.228,1.756-.289,2.507a2.6,2.6,0,0,1-.037.462s0,1.713,3.61,1.2,4.257-1.934,4.257-1.934v-.179c.055-.326.172-1.023.265-1.4.13-.517-1.035-2.84-1.035-2.84a5.952,5.952,0,0,0-.523-1.94,1.661,1.661,0,0,1-.259-.678,2.249,2.249,0,0,0-.08-.394l.24.043s-.191-1.134.554-1.485a1.072,1.072,0,0,0,.456-1.423,10.856,10.856,0,0,1,.29-2.131,1.059,1.059,0,0,1,.259-1.029c.462-.456.813-3.616.813-3.616l.068-12.2a11.736,11.736,0,0,0-.031-3.031c-.265-.875-.524-2.55-.166-3.006s.037-2.544.037-2.544,0-4.423.487-5.544.326-8.039.326-8.039l.13-4.552s1.059-1,.807-6.24a8.906,8.906,0,0,1,2.606.043c.357.29,2.661,1.78,4.029.844a19.519,19.519,0,0,0,1.62-1.263l-.573-9.678c.357.542.579.9.579.9,0-1.355,3.832-5.747,3.832-5.747a61.627,61.627,0,0,1,4.355-5.162c.782-.548,2.31-3.45,2.31-3.45a13.83,13.83,0,0,1,.776-1.614C994.8,650.438,993.629,648.892,993.764,648.535Zm-8.39,3.388c-.973.1-3.018,2.329-3.08,2.809a1.947,1.947,0,0,1-.431.868,3.093,3.093,0,0,0-.043-.616,66.537,66.537,0,0,1-.37-6.659,19.366,19.366,0,0,0,.129-3.2h0l.037-.049a16.354,16.354,0,0,0,2.692,4.411s.357,1.035.776,1.066S985.374,651.923,985.374,651.923Z" transform="translate(324.136 -76.104)"/>
    <path id="路径_1093" data-name="路径 1093" class="cls-9" d="M936.21,675.246s1.189-6.216,5-6.246L944,674.729l-1.848,1.281S938.1,676.14,936.21,675.246Z" transform="translate(321.191 -100.125)"/>
    <path id="路径_1094" data-name="路径 1094" class="cls-5" d="M944,674.744l-1.848,1.281a21.857,21.857,0,0,1-4.867-.407,6.09,6.09,0,0,1-1.06-.357v-.1a13.5,13.5,0,0,1,.721-2.285c.117-.277.246-.567.394-.85a5.742,5.742,0,0,1,2.415-2.649,3.2,3.2,0,0,1,1.269-.333h.172l.055.123.943,1.94Z" transform="translate(321.183 -100.14)"/>
    <path id="路径_1095" data-name="路径 1095" class="cls-9" d="M998.4,709.113s4-.382,4.355-.092,2.63,1.762,3.973.832.45-4.164.45-4.312-.129-4.706-.129-4.706l-2.4-3.234-3.012-5.674-6.16-.616.16,9v4.608Z" transform="translate(298.436 -108.727)"/>
    <path id="路径_1096" data-name="路径 1096" class="cls-5" d="M998.4,709.113s4-.382,4.355-.092,2.63,1.762,3.973.832.45-4.164.45-4.312-.129-4.706-.129-4.706l-2.4-3.234-3.012-5.674-6.16-.616.16,9v4.608Z" transform="translate(298.436 -108.727)"/>
    <path id="路径_1097" data-name="路径 1097" class="cls-10" d="M937.311,665.063s-.314,3.906-2.754,3.967c0,0-.69-.413-1.614-1.109-2.144-1.6-5.544-4.676-4.6-7.54,1.343-4.1,7.879,3.462,7.879,3.462l.505.561Z" transform="translate(324.272 -96.347)"/>
    <path id="路径_1098" data-name="路径 1098" class="cls-5" d="M940.147,668.329s-.314,3.906-2.754,3.967c0,0-.69-.413-1.614-1.109l-.209-.265a3.173,3.173,0,0,0,1.331.357,1.786,1.786,0,0,0,1.743-1.1,13.323,13.323,0,0,0,.678-1.552,4.994,4.994,0,0,0,.246-.961Z" transform="translate(321.436 -99.613)"/>
    <path id="路径_1099" data-name="路径 1099" class="cls-11" d="M939.229,675.208l-.548-.708-1.848-2.372-.943-1.232a3.241,3.241,0,0,0,1.337.364,1.8,1.8,0,0,0,1.737-1.1,13.757,13.757,0,0,0,.678-1.546c.3-.869.3-1.312.191-1.46a9.1,9.1,0,0,1,1.053.955h0l.179.166.062.129.93,1.848v.08C942.161,670.939,942.475,674.678,939.229,675.208Z" transform="translate(321.313 -99.415)"/>
    <path id="路径_1100" data-name="路径 1100" class="cls-9" d="M961.344,810.875s-2.692,1.762-4.041,1.5a4.816,4.816,0,0,0-2.723.45,8.1,8.1,0,0,1-3.394,2.211,12.475,12.475,0,0,1-6.949-.129c-.819-.271-.887-.616-.493-1.06a13.668,13.668,0,0,1,2.606-1.762,25.083,25.083,0,0,0,4.583-3.906,1.4,1.4,0,0,1,.413-.93,4.919,4.919,0,0,0,.616-.671c.345-.407.665-.832.665-.832l7.916.253s.135.573.24,1.158a4.268,4.268,0,0,1,.111,1.152,1.041,1.041,0,0,0,.222.8l.142,1.306Z" transform="translate(318.387 -152.67)"/>
    <path id="路径_1101" data-name="路径 1101" class="cls-9" d="M994.344,813.469c-.1.388-.209,1.072-.265,1.4v.172s-.616,1.411-4.2,1.922-3.554-1.183-3.554-1.183a3.746,3.746,0,0,1,.037-.456,23.484,23.484,0,0,1,.283-2.464,11.653,11.653,0,0,0-.1-2.242l-.037-1.91v-1.331l5.889-.616a12.127,12.127,0,0,0,.191,1.312,1.772,1.772,0,0,0,.259.671,5.9,5.9,0,0,1,.511,1.922S994.474,812.957,994.344,813.469Z" transform="translate(301.946 -153.058)"/>
    <path id="路径_1102" data-name="路径 1102" class="cls-5" d="M965.827,806s.136.573.24,1.158c-.856.154-4.589.8-5.544.351a14.4,14.4,0,0,0-3.333-.8l.037-.129c.345-.407.665-.832.665-.832Z" transform="translate(313.135 -152.67)"/>
    <path id="路径_1103" data-name="路径 1103" class="cls-5" d="M992.645,808.041c-1.491-.259-4.768.357-6.056.616v-1.331l5.889-.616a12.129,12.129,0,0,0,.166,1.331Z" transform="translate(301.846 -153.038)"/>
    <path id="路径_1104" data-name="路径 1104" class="cls-12" d="M984.4,717.916l-.123,4.515s.16,6.887-.32,8.008-.481,5.476-.481,5.476.32,2.082-.037,2.532-.092,2.113.16,2.975a11.591,11.591,0,0,1,.031,3.012l-.062,12.111s-.351,3.135-.8,3.585a1.035,1.035,0,0,0-.253,1.023,10.66,10.66,0,0,0-.29,2.119,1.059,1.059,0,0,1-.45,1.4c-.739.357-.548,1.478-.548,1.478-1.756-.419-6.776.7-6.776.7a29.423,29.423,0,0,1-1.411-3.431,1.768,1.768,0,0,1,1.281-2.335c.671-.1-.481-1.281-.481-1.281s.129-.16-.2-1.312.068-4.1.16-4.873l.579-4.478a40.516,40.516,0,0,1-.062-4.928c.2-.216.832-2.051.511-2.655a31.836,31.836,0,0,1-.832-4.842c0-.228-.419-5.415-.419-5.415s-.382-3.616-.29-4.386a28.1,28.1,0,0,0-.253-3.616,12.323,12.323,0,0,0-1.38-4.928l-.031.092-2.982,7.817s-.481,2.372-.893,3.7a24.6,24.6,0,0,0-.616,2.784v.481h0a5.12,5.12,0,0,1-.123,2.242,7.817,7.817,0,0,0-.739,2.624c0,.45.031,2.181.031,2.181s.129,3.425-.222,3.807a.616.616,0,0,0-.16.708,11.137,11.137,0,0,1,.321,3.265,6.726,6.726,0,0,0-.068,2.242s-.511,4.965-.573,5.224-.419,2.242-.031,2.4a5.139,5.139,0,0,1,1.115,1.121s.166,4.2-.413,4.515-.259,1.953-.259,1.953-4.645.9-5.7.382a14.741,14.741,0,0,0-3.333-.8l.32-1.053c0,.037-.234.382-.382-.93s1.183-.708,1.183-.708,1.059.259-.616-1.4-.862-3.364-.77-3.364a21.022,21.022,0,0,0,.32-2.464,8.255,8.255,0,0,0,.068-2.63c-.228-1.152-.419-4.743-.419-4.743a17.2,17.2,0,0,0-.129-3.7,7.858,7.858,0,0,1,.29-3.2c.1-.419-.29-4.226-.29-4.226a11.873,11.873,0,0,0,.129-3.08,53.291,53.291,0,0,1,.191-6.16l.579-5.544a11.991,11.991,0,0,0,.351-2.464,20.047,20.047,0,0,1,.48-3.166,3.562,3.562,0,0,1,.253-1.54,11.486,11.486,0,0,0,.45-2.754l3.08-7.047,1.5-6.216,20.329-.191s.074.542.2,1.522.3,2.427.487,4.214c.179,1.626.376,3.542.561,5.667C985.686,716.721,984.4,717.916,984.4,717.916Z" transform="translate(313.419 -111.499)"/>
    <path id="路径_1105" data-name="路径 1105" class="cls-10" d="M992.02,635.74l-4.743,5.064s-6.086-2.464-5.446-3.265a4.746,4.746,0,0,0,.068-2.464c-.228-1.774-.708-3.813-.708-3.813s10.633-1.731,9.739.062a2.94,2.94,0,0,0-.068,2.125A7.8,7.8,0,0,0,992.02,635.74Z" transform="translate(303.919 -85.337)"/>
    <path id="路径_1106" data-name="路径 1106" class="cls-5" d="M990.929,631.313c-.326.653-.487.721-.283,1.423-1.386,1.491-3.154,3.123-5.353,3.123a7.548,7.548,0,0,1-3.394-.795c-.228-1.774-.708-3.813-.708-3.813S991.823,629.521,990.929,631.313Z" transform="translate(303.919 -85.332)"/>
    <path id="路径_1107" data-name="路径 1107" class="cls-10" d="M990.715,621.855a7.626,7.626,0,1,1-15.247,0v-.1a7.626,7.626,0,0,1,15.247.1Z" transform="translate(306.118 -79.144)"/>
    <path id="路径_1108" data-name="路径 1108" class="cls-5" d="M988.64,705.526c-1,0-4.368.037-8.125.092H979.19c-4.454.068-8.846-.8-10.608-.616-3.745.351,1.343-3.462,1.343-3.462a31.276,31.276,0,0,0,8.538.862l1.078-.055a46.116,46.116,0,0,0,8.624-1.047C988.283,702.3,988.455,703.733,988.64,705.526Z" transform="translate(309.289 -112.563)"/>
    <path id="路径_1109" data-name="路径 1109" class="cls-13" d="M988.64,705.21c-1,0-4.368.037-8.125.1H979.19c-4.454.074-8.846-.795-10.608-.616-3.745.351,1.343-3.462,1.343-3.462a31.276,31.276,0,0,0,8.538.863l1.078-.056a46.1,46.1,0,0,0,8.624-1.047C988.283,701.982,988.455,703.423,988.64,705.21Z" transform="translate(309.289 -112.444)"/>
    <path id="路径_1110" data-name="路径 1110" class="cls-5" d="M978.012,641.716l-5.865,2.754-4.577,35.175s2.692-1.232,4.226-.45,6.277.068,6.277.068,3.462-.2,3.974.191,6.536-1.6,6.536-1.6,1.084-2.464.252-2.821.259-4.164.259-4.164l-.511-25.368-1.029-3.265L984.8,640.57,982,642.8l-1.349.2Z" transform="translate(309.149 -89.212)"/>
    <path id="路径_1111" data-name="路径 1111" class="cls-11" d="M978.031,641.082l-5.864,2.754L967.62,679.01s2.692-1.232,4.226-.45,6.277.062,6.277.062,3.462-.191,3.973.191,6.536-1.6,6.536-1.6,1.084-2.464.253-2.815.259-4.164.259-4.164l-.511-25.368-1.029-3.271-2.754-1.663-2.828,2.242-1.349.191Z" transform="translate(309.13 -88.966)"/>
    <path id="路径_1112" data-name="路径 1112" class="cls-5" d="M981.507,644.147s1.7,2.021,1.669,2.464-.1,1.4-.1,1.4l-1.281,2.6s-.7,3.234-.7,3.906-1.121,6.5-1.121,6.5l-1.349,8.969-1.694,11.76,1.725,2.975,2.051-1.731,2.723-20.945.579-4.134s.616-7.429.616-8.2a25.708,25.708,0,0,0-.357-2.784,3.288,3.288,0,0,1,2.15-2.372c1.731-.45-.129-.1-.129-.1l-.992-.8-.868.351S982.018,643.253,981.507,644.147Z" transform="translate(305.555 -90.4)"/>
    <path id="路径_1113" data-name="路径 1113" class="cls-12" d="M981.193,643.841s1.7,2.021,1.663,2.464-.093,1.411-.093,1.411l-1.281,2.594s-.708,3.24-.708,3.912-1.121,6.5-1.121,6.5l-1.343,8.969-1.7,11.754,1.731,2.982,2.051-1.731,2.723-20.945.579-4.133s.616-7.429.616-8.2a26.344,26.344,0,0,0-.351-2.791,3.273,3.273,0,0,1,2.15-2.366c1.731-.444-.129-.1-.129-.1l-.992-.8-.869.351S981.7,642.947,981.193,643.841Z" transform="translate(305.678 -90.285)"/>
    <path id="路径_1114" data-name="路径 1114" class="cls-5" d="M981.431,638.68s-.259.2-.32,1.478a25.479,25.479,0,0,1-.961,4.158s3.333-2.3,5-2.045Z" transform="translate(304.319 -88.475)"/>
    <path id="路径_1115" data-name="路径 1115" class="cls-11" d="M981.431,638.06s-.259.191-.32,1.472a25.434,25.434,0,0,1-.961,4.164s3.333-2.3,5-2.051Z" transform="translate(304.319 -88.237)"/>
    <path id="路径_1116" data-name="路径 1116" class="cls-5" d="M993.725,637l-5.255,4.614a52.725,52.725,0,0,1,5,3.265c.573.641,1.152-6.277,1.152-6.277Z" transform="translate(301.124 -87.83)"/>
    <path id="路径_1117" data-name="路径 1117" class="cls-11" d="M994.035,636.4l-5.255,4.608a52.965,52.965,0,0,1,5,3.271c.573.641,1.158-6.277,1.158-6.277Z" transform="translate(301.005 -87.6)"/>
    <path id="路径_1118" data-name="路径 1118" class="cls-5" d="M973.01,638.651s-.573-.283-1.121.548a3.6,3.6,0,0,1-1.571,1.232s-5.828.93-6.049,1.7l-2.723.16s-.961.129-1.059,2.144-.616,2.212-.616,2.212a7.65,7.65,0,0,0-1.023,3.012,1.669,1.669,0,0,1-.862,1.534l4,10.411s.123,4.312-.616,5.865-2.113,8.52-2.113,8.52.573-.129.542.253-.7,4.583-.7,4.583a9.329,9.329,0,0,1-.518,2.242,16.279,16.279,0,0,0-.351,3.585l-.511,2.181s1.232,2.723,3.08,2.341,5.224-7.657,5.224-7.657l2.144-7.848,1.663-7.75.48-5.255.77-11.63,1.121-7.688S973.459,639.2,973.01,638.651Z" transform="translate(312.931 -88.489)"/>
    <path id="路径_1119" data-name="路径 1119" class="cls-9" d="M972.7,638.03s-.579-.29-1.121.542A3.58,3.58,0,0,1,970,639.8s-5.828.93-6.049,1.694l-2.723.16s-.961.129-1.06,2.15-.616,2.212-.616,2.212a7.651,7.651,0,0,0-1.023,3.006,1.687,1.687,0,0,1-.868,1.54l4,10.411s.129,4.312-.616,5.858-2.119,8.526-2.119,8.526.579-.129.548.253-.708,4.583-.708,4.583a9.243,9.243,0,0,1-.511,2.242,16.24,16.24,0,0,0-.351,3.585L957.4,688.2s1.232,2.723,3.08,2.335,5.224-7.657,5.224-7.657l2.144-7.842,1.663-7.756.48-5.255.77-11.624,1.121-7.688S973.17,638.572,972.7,638.03Z" transform="translate(313.054 -88.25)"/>
    <path id="路径_1120" data-name="路径 1120" class="cls-5" d="M943.889,674.614l-1.848,1.281a21.864,21.864,0,0,1-4.867-.407l-1.035-.462-.209-.086.216.068a4.234,4.234,0,0,0,2.563.086c2.63-.881,2.341-5.224,2.236-6.2V668.7h0a1.363,1.363,0,0,0,.117.166l.117.123h0l.93,1.848v.08Z" transform="translate(321.298 -100.01)"/>
    <path id="路径_1121" data-name="路径 1121" class="cls-9" d="M950.453,658l-.9.259-.123,1.848a1.232,1.232,0,0,0-1.349,1.09,4.435,4.435,0,0,1-.8,1.848s-1.762,1.472-1.848,2.717l-1.09.677s-2.532-.579-3.08-1.6c0,0,1.152,8.261-5,6.246,0,0,6.887,3.006,7.207,3.425a4.035,4.035,0,0,0,4.355.616,4.651,4.651,0,0,0,2.341-2.593,28.842,28.842,0,0,0,1.922-2.982c.074-.382,1.5-.832,1.5-.832l2.76-6.665Z" transform="translate(321.171 -95.902)"/>
    <path id="路径_1122" data-name="路径 1122" class="cls-5" d="M995.4,640.626l.93-4.226a5.047,5.047,0,0,0,.832,1.694l1.38,1.06a7.958,7.958,0,0,0,1.848.616,10.971,10.971,0,0,1,3.394,1.023c.314.351,1.6.1,1.6.1s1.059.351,1.99.573,1.374,1.762,1.183,2.372a1.849,1.849,0,0,0,.45,1.731,4.157,4.157,0,0,1,.579,1.633,1.848,1.848,0,0,1,1.084.93,6.486,6.486,0,0,1,.228,2.242l-4.768,6.727a19.632,19.632,0,0,1-.129,3.166c-.191.579.672,10.38.672,10.38l1,16.848a18.777,18.777,0,0,1-1.6,1.232c-.289.129-.579-5.957-.579-6.16s-7.392-11.088-7.392-11.088a9.971,9.971,0,0,1-.992-1.953c0-.351-.93-3.585-.93-3.585l-1.411-6.246Z" transform="translate(298.705 -87.643)"/>
    <path id="路径_1123" data-name="路径 1123" class="cls-9" d="M1011.55,650.007v.37l-4.78,6.7h0a19.532,19.532,0,0,1-.123,3.166,66.037,66.037,0,0,0,.357,6.616c.16,2.045.314,3.764.314,3.764l.419,7.146.573,9.7a17.881,17.881,0,0,1-1.6,1.232c-.29.129-.579-5.957-.579-6.16s-7.392-11.088-7.392-11.088a9.963,9.963,0,0,1-.992-1.953c0-.351-.93-3.585-.93-3.585l-1.4-6.247.616-19.1.542-4.226a9.247,9.247,0,0,0,1.232,1.694l1.374,1.06a8.013,8.013,0,0,0,1.848.616,10.974,10.974,0,0,1,3.394,1.023c.314.351,1.6.1,1.6.1s1.053.351,1.984.573,1.38,1.762,1.189,2.372a1.848,1.848,0,0,0,.444,1.731,4.058,4.058,0,0,1,.579,1.632,1.847,1.847,0,0,1,1.09.93A5.254,5.254,0,0,1,1011.55,650.007Z" transform="translate(298.459 -87.624)"/>
    <path id="路径_1124" data-name="路径 1124" class="cls-5" d="M958.05,797.06c.16,0,6.887.259,6.776,1.349S958.05,797.06,958.05,797.06Z" transform="translate(312.805 -149.333)"/>
    <path id="路径_1125" data-name="路径 1125" class="cls-5" d="M960.5,800s4.515.733,3.326,1.411S960.5,800,960.5,800Z" transform="translate(311.864 -150.462)"/>
    <path id="路径_1126" data-name="路径 1126" class="cls-5" d="M987.74,795.92s7.5.616,6.376,1.472-3.782.961-3.906.992A34.538,34.538,0,0,1,987.74,795.92Z" transform="translate(301.404 -148.895)"/>
    <path id="路径_1127" data-name="路径 1127" class="cls-5" d="M986.29,801.28s4.164.7,4.312,1.5S986.29,801.28,986.29,801.28Z" transform="translate(301.961 -150.953)"/>
    <path id="路径_1128" data-name="路径 1128" class="cls-5" d="M990,770s3.813.9,4.035,1.509Z" transform="translate(300.536 -138.942)"/>
    <path id="路径_1129" data-name="路径 1129" class="cls-5" d="M965.6,774.45s-1.984.573-.062,1.725S965.6,774.45,965.6,774.45Z" transform="translate(310.252 -140.651)"/>
    <path id="路径_1130" data-name="路径 1130" class="cls-5" d="M980.46,724.007c.228,0,3.7-1.152,4.928-.616a8.155,8.155,0,0,0,2.723.511Z" transform="translate(304.199 -120.991)"/>
    <path id="路径_1131" data-name="路径 1131" class="cls-5" d="M978.372,729.294l-.031.32-2.981,7.817s-.481,2.372-.893,3.7a24.56,24.56,0,0,0-.616,2.784l2.643-16.392Z" transform="translate(306.738 -122.631)"/>
    <path id="路径_1132" data-name="路径 1132" class="cls-12" d="M987.492,705.953h-1.275l-.727-3.228,1.078-.055Z" transform="translate(302.268 -113.089)"/>
    <path id="路径_1133" data-name="路径 1133" class="cls-10" d="M1005.231,699.734l-.795.659-2.661,2.193s-7.208,3.844-9.2.191c-1.75-3.216,6.425-5.544,8.39-6.012l.419-.1Z" transform="translate(299.64 -110.781)"/>
    <path id="路径_1134" data-name="路径 1134" class="cls-5" d="M963.3,650.54s1.411.616,1.731,1.534S963.3,650.54,963.3,650.54Z" transform="translate(310.789 -93.031)"/>
    <path id="路径_1135" data-name="路径 1135" class="cls-5" d="M955.342,666.14s-2.051,2.495-1.232,3.456S955.342,666.14,955.342,666.14Z" transform="translate(314.392 -99.025)"/>
    <path id="路径_1136" data-name="路径 1136" class="cls-5" d="M1014.48,652.83s-1.922.191-1.99,1.848Z" transform="translate(291.901 -93.911)"/>
    <path id="路径_1137" data-name="路径 1137" class="cls-5" d="M986.81,691.6c.191-.191,4.608-6.727,5.637-6.16Z" transform="translate(301.761 -106.459)"/>
    <path id="路径_1138" data-name="路径 1138" class="cls-5" d="M990.716,621.851a7.637,7.637,0,0,1-.9,3.6h-.056c-.487-.1-.739-.665-1.109-1.016a1.491,1.491,0,0,0-1.725-.24,1.737,1.737,0,0,0-.85,1.639c-.246-1.023-.167-2.113-.407-3.142s-.955-2.07-1.94-2.088c-.419,0-.912.16-1.232-.16-.185-.191-.222-.493-.364-.721-.7-1.14-2.833-.561-3.7,0a22.69,22.69,0,0,1-2.969,2.014,7.626,7.626,0,0,1,15.246.1Z" transform="translate(306.116 -79.139)"/>
    <path id="路径_1139" data-name="路径 1139" class="cls-12" d="M980.942,616.837c.142.234.179.536.364.727.308.314.8.154,1.232.16.98,0,1.694,1.06,1.934,2.088s.16,2.119.407,3.142a1.743,1.743,0,0,1,.85-1.645,1.5,1.5,0,0,1,1.725.246c.37.351.616.912,1.109,1.017s.949-.364,1.121-.875a14.892,14.892,0,0,0,.277-1.6,19.67,19.67,0,0,1,1.232-2.766,5.047,5.047,0,0,0-.037-3.579c-.24-.616-.616-1.14-.838-1.743-.37-.912-.468-1.94-.918-2.809a3.308,3.308,0,0,0-3.986-1.639c-.7.259-1.3.764-2.008.992a6.584,6.584,0,0,1-2.938-.062,3.628,3.628,0,0,0-2.852.5c-.906.739-1.152,2.131-2.009,2.951-.357.339-.8.56-1.177.875a1.6,1.6,0,0,0-.659,1.3c.056.665.7,1.269.462,1.879a1.458,1.458,0,0,1-.351.468,6.7,6.7,0,0,0-1.552,2.643c1.713.536,3.567-1.355,4.928-2.248C978.108,616.276,980.246,615.7,980.942,616.837Z" transform="translate(307.321 -76.458)"/>
    <path id="路径_1140" data-name="路径 1140" class="cls-5" d="M1010.536,699.734l-.795.659a23.427,23.427,0,0,0-3.591-3.511l.123-.117.419-.1Z" transform="translate(294.335 -110.781)"/>
    <path id="路径_1141" data-name="路径 1141" class="cls-11" d="M1011.433,697.91s-.283.708-.585,1.331-.616,1.177-.616.721c-.037-.9-3.751-3.912-3.751-3.912l.505-.493.616-.567Z" transform="translate(294.208 -110.14)"/>
    <path id="路径_1142" data-name="路径 1142" class="cls-5" d="M1011.574,689.662l.419,7.146c-.992-1.546-3.7-5.544-5.483-5.384l4.263-4.9a6.407,6.407,0,0,0,.487-.616C1011.42,687.961,1011.574,689.662,1011.574,689.662Z" transform="translate(294.197 -106.654)"/>
    <path id="路径_1143" data-name="路径 1143" class="cls-5" d="M1011.74,697.9s-.283.708-.585,1.33c-1.115-1.534-2.649-3.345-3.875-3.7l.616-.567Z" transform="translate(293.901 -110.132)"/>
    <path id="路径_1144" data-name="路径 1144" class="cls-9" d="M1014.751,657.66l1.152.9s1.922,0,2.113,1.632a3.263,3.263,0,0,0,1.959,2.341s1.312,1.312,1.312,1.922.992,1.694.992,1.793.961,2.045.832,2.4,1.023,1.885.672,2.464a14.775,14.775,0,0,0-.77,1.6s-1.5,2.883-2.273,3.425a61.646,61.646,0,0,0-4.312,5.125s-3.782,4.355-3.782,5.7c0,0-3.7-6.16-5.864-5.988l4.263-4.928s.739-.8.77-1.281,2.051-2.692,3.012-2.784c0,0,.16-1.318-.259-1.349s-.77-1.054-.77-1.054-2.815-3.333-2.852-5.446S1014.751,657.66,1014.751,657.66Z" transform="translate(294.093 -95.775)"/>
    <path id="路径_1145" data-name="路径 1145" class="cls-5" d="M1021.109,662.6s-2.692,1.99-2.119,2.63S1021.109,662.6,1021.109,662.6Z" transform="translate(289.435 -97.665)"/>
    <path id="路径_1146" data-name="路径 1146" class="cls-5" d="M1022.68,675.466s5-1.6,5.544,0Z" transform="translate(287.988 -102.334)"/>
    <path id="路径_1147" data-name="路径 1147" class="cls-5" d="M961.344,813.786s-2.692,1.762-4.041,1.5a4.817,4.817,0,0,0-2.723.45,8.093,8.093,0,0,1-3.394,2.212,12.475,12.475,0,0,1-6.949-.129c-.819-.271-.887-.616-.493-1.06,1.885.376,6.086,1.121,7.22.579a30.369,30.369,0,0,0,3.585-2.242s2.754-.388,3.142-.388a33.74,33.74,0,0,0,3.6-1.38Z" transform="translate(318.387 -155.58)"/>
    <path id="路径_1148" data-name="路径 1148" class="cls-5" d="M994.079,819.92v.172s-.616,1.411-4.2,1.922-3.554-1.183-3.554-1.183a3.744,3.744,0,0,1,.037-.456C987.463,820.8,989.921,821.275,994.079,819.92Z" transform="translate(301.946 -158.111)"/>
    <path id="路径_1149" data-name="路径 1149" class="cls-5" d="M964.968,662s0,7.3-.616,8.008S964.968,662,964.968,662Z" transform="translate(310.451 -97.436)"/>
    <path id="路径_1150" data-name="路径 1150" class="cls-5" d="M1012.34,665.8l.924,2.612S1013.634,665.849,1012.34,665.8Z" transform="translate(291.958 -98.894)"/>
    <g id="组_1543" data-name="组 1543" class="cls-14" transform="translate(1279.645 537.069)">
      <path id="路径_1151" data-name="路径 1151" d="M975.219,619.2c.234-.616-.382-1.189-.462-1.848a1.232,1.232,0,0,0-.1.579c.037.487.4.936.493,1.386A.86.86,0,0,0,975.219,619.2Z" transform="translate(-973.216 -617.35)"/>
      <path id="路径_1152" data-name="路径 1152" d="M984.954,627.372c-.234-1.01-.166-2.082-.394-3.08s-.961-2.064-1.941-2.082c-.425,0-.918.154-1.232-.16-.185-.191-.222-.493-.363-.727-.7-1.133-2.834-.561-3.7,0-1.312.875-3.111,2.7-4.793,2.285a6.1,6.1,0,0,0-.216.616c1.713.536,3.567-1.355,4.928-2.248.875-.616,3.012-1.158,3.7,0,.142.234.179.536.363.727.308.314.8.154,1.232.16.98,0,1.694,1.06,1.934,2.088s.16,2.119.407,3.142A1.689,1.689,0,0,1,984.954,627.372Z" transform="translate(-972.32 -618.625)"/>
      <path id="路径_1153" data-name="路径 1153" d="M997.651,629.252c-.179.505-.616.973-1.127.869s-.733-.665-1.1-1.016a1.509,1.509,0,0,0-1.731-.24,1.756,1.756,0,0,0-.85,1.552,1.705,1.705,0,0,1,.758-.93,1.5,1.5,0,0,1,1.725.246c.37.351.616.912,1.109,1.016s.949-.363,1.121-.875a4.561,4.561,0,0,0,.179-.918C997.706,629.055,997.682,629.153,997.651,629.252Z" transform="translate(-980.199 -621.706)"/>
      <path id="路径_1154" data-name="路径 1154" d="M1002.261,622.072a21.739,21.739,0,0,0-1.232,2.772,5.126,5.126,0,0,0-.1.616,20.4,20.4,0,0,1,1.232-2.76,4.927,4.927,0,0,0,.3-1.331A5.128,5.128,0,0,1,1002.261,622.072Z" transform="translate(-983.306 -618.894)"/>
    </g>
    <rect id="矩形_1292" data-name="矩形 1292" class="cls-2" width="45.586" height="47.261" transform="translate(894.851 310.603)"/>
    <rect id="矩形_1293" data-name="矩形 1293" class="cls-2" width="45.586" height="47.261" transform="translate(953.356 310.603)"/>
    <rect id="矩形_1294" data-name="矩形 1294" class="cls-15" width="45.586" height="47.261" transform="translate(1011.862 310.603)"/>
    <rect id="矩形_1295" data-name="矩形 1295" class="cls-15" width="45.586" height="47.261" transform="translate(1070.367 310.603)"/>
    <rect id="矩形_1296" data-name="矩形 1296" class="cls-15" width="45.586" height="47.261" transform="translate(1128.872 310.603)"/>
    <rect id="矩形_1297" data-name="矩形 1297" class="cls-16" width="45.586" height="47.261" transform="matrix(0.797, -0.603, 0.603, 0.797, 1134.343, 320.524)"/>
    <path id="路径_1155" data-name="路径 1155" class="cls-6" d="M379.754,257.54a7.614,7.614,0,1,0,7.614,7.608A7.614,7.614,0,0,0,379.754,257.54Zm5.236,9.659c-.3-.1-.862-.129-1.078-.382-.1-.129-.037-.616-.037-.616a2.273,2.273,0,0,0,1.134-.222c.142-.086.08-.1,0-.222a4.508,4.508,0,0,1-.24-2.255,1.848,1.848,0,0,0-.733-1.626,2.315,2.315,0,0,0-1.146-.253,2.551,2.551,0,0,0-.924.148c-1.552.616-.616,2.68-1.17,3.856-.092.2-.222.271,0,.388a2.858,2.858,0,0,0,1.06.228v.511c-.043.179-.431.3-.579.345a4.5,4.5,0,0,0-.616.209.148.148,0,0,0,0,.277,2.681,2.681,0,0,1,.425.1,4,4,0,0,1,1.682.912,2.507,2.507,0,0,1,.733,1.632.456.456,0,0,1-.2.425l-.21.129a.1.1,0,0,1-.154-.086,2.464,2.464,0,0,0-1.676-2.384c-.5-.172-1.029-.185-1.522-.357-.154-.049-.45-.117-.511-.283a1.848,1.848,0,0,1-.068-.542c0-.142,0-.283,0-.419s.234-.283.283-.37a2.8,2.8,0,0,0,.253-1.146c.32.086.357-.5.413-.684s.185-.764-.092-.862a1.492,1.492,0,0,0,.154-.536,3.252,3.252,0,0,0-.043-1.441,2.273,2.273,0,0,0-2.168-1.515,2.322,2.322,0,0,0-2.322,1.386,3.031,3.031,0,0,0-.1,1.448,1.773,1.773,0,0,0,.172.659c-.234.1-.166.616-.123.782s.111.856.443.764a5.436,5.436,0,0,0,.142.887,1.269,1.269,0,0,0,.3.511c.062.074.1.08.092.172a3.759,3.759,0,0,1-.068.875c-.074.277-.684.394-.93.444a5.311,5.311,0,0,0-1.515.425,6.587,6.587,0,1,1,11.723-.77,1.694,1.694,0,0,0-.819-.554Z" transform="translate(537.889 57.968)"/>
    <path id="路径_1156" data-name="路径 1156" class="cls-17" d="M381.74,307.308v-8.421l3.881,3.881.967-1-5.544-5.544-5.544,5.544.973.967,3.881-3.844v8.421Z" transform="translate(536.598 43.107)"/>
    <path id="路径_1157" data-name="路径 1157" class="cls-17" d="M476.74,307.308v-8.421l3.881,3.881.967-1-5.544-5.544-5.544,5.544.967.967,3.887-3.844v8.421Z" transform="translate(500.104 43.107)"/>
    <path id="路径_1158" data-name="路径 1158" class="cls-6" d="M477.691,267.028a.166.166,0,0,0-.265,0l-3.16,4.2a.16.16,0,0,0,.111.265l5.544.481a.16.16,0,0,0,.154-.24l-2.378-4.682Zm3.6,2.23a.166.166,0,0,0-.265,0l-.85.862a.148.148,0,0,0,0,.185l.875,1.7a.16.16,0,0,0,.123.08l1.546.129a.16.16,0,0,0,.154-.24l-1.565-2.7Zm.376-1.361a.813.813,0,1,0-.773-.531A.819.819,0,0,0,481.67,267.9Z" transform="translate(498.673 54.615)"/>
    <path id="路径_1159" data-name="路径 1159" class="cls-6" d="M481.546,261.523l-2.261-.2-.209-2.3a.936.936,0,0,0-1.016-.844l-10.207.924a.93.93,0,0,0-.844,1.01l.918,10.189a.93.93,0,0,0,1.016.838l.536-.043-.049.573a.924.924,0,0,0,.85,1l10.214.893a.936.936,0,0,0,1.01-.85l.9-10.189a.924.924,0,0,0-.85-1Zm-12.635,5.889a.24.24,0,0,1-.253-.209l-.616-6.875a.228.228,0,0,1,.209-.253l9.591-.862a.24.24,0,0,1,.253.209l.166,1.817-6.93-.616a.93.93,0,0,0-1.01.844l-.511,5.852-.9.086Zm12.45-4.663-.616,6.875a.234.234,0,0,1-.253.209l-.616-.055L470.919,269a.234.234,0,0,1-.216-.253l.129-1.509.474-5.359a.228.228,0,0,1,.246-.216l6.807.616,1.016.092,1.774.154A.228.228,0,0,1,481.361,262.748Z" transform="translate(501.447 57.725)"/>
    <rect id="矩形_1298" data-name="矩形 1298" class="cls-2" width="104.108" height="77.619" transform="translate(894.845 404.27)"/>
    <path id="路径_1160" data-name="路径 1160" class="cls-18" d="M417.93,435.928a36.561,36.561,0,0,0-48.493,34.546,2.593,2.593,0,1,1-5.187,0,41.754,41.754,0,0,1,55.2-39.512" transform="translate(540.916 -7.818)"/>
    <path id="路径_1161" data-name="路径 1161" class="cls-6" d="M452.912,432.35a41.809,41.809,0,0,1,28.269,39.512,2.593,2.593,0,1,1-5.187,0,36.616,36.616,0,0,0-24.6-34.546" transform="translate(507.443 -9.205)"/>
    <path id="路径_1162" data-name="路径 1162" class="cls-18" d="M430.653,466.53h-.043a4.54,4.54,0,0,0-3.8,2.082,4.54,4.54,0,0,0-3.8-2.082h-.043a4.522,4.522,0,0,0-4.485,4.522,9.727,9.727,0,0,0,1.916,5.316,33.109,33.109,0,0,0,6.413,6.16,33.765,33.765,0,0,0,6.413-6.16,9.727,9.727,0,0,0,1.916-5.316,4.522,4.522,0,0,0-4.485-4.522Z" transform="translate(520.087 -22.333)"/>
    <rect id="矩形_1299" data-name="矩形 1299" class="cls-2" width="157.942" height="117.457" transform="translate(1027.61 371.831)"/>
    <rect id="矩形_1300" data-name="矩形 1300" class="cls-6" width="6.468" height="21.678" transform="translate(1043.891 460.2)"/>
    <rect id="矩形_1301" data-name="矩形 1301" class="cls-6" width="6.468" height="48.512" transform="translate(1056.209 433.371)"/>
    <rect id="矩形_1302" data-name="矩形 1302" class="cls-7" width="6.468" height="72.69" transform="translate(1068.526 409.197)"/>
    <rect id="矩形_1303" data-name="矩形 1303" class="cls-6" width="6.468" height="89.939" transform="translate(1080.843 391.953)"/>
    <rect id="矩形_1304" data-name="矩形 1304" class="cls-18" width="6.468" height="89.939" transform="translate(1068.526 391.953)"/>
    <rect id="矩形_1305" data-name="矩形 1305" class="cls-18" width="6.468" height="49.436" transform="translate(1093.16 432.447)"/>
    <rect id="矩形_1306" data-name="矩形 1306" class="cls-6" width="6.468" height="62.218" transform="translate(1105.478 419.667)"/>
    <rect id="矩形_1307" data-name="矩形 1307" class="cls-6" width="6.468" height="81.623" transform="translate(1117.795 400.267)"/>
    <rect id="矩形_1308" data-name="矩形 1308" class="cls-15" width="6.468" height="36.345" transform="translate(1130.112 445.535)"/>
    <rect id="矩形_1309" data-name="矩形 1309" class="cls-15" width="6.468" height="53.132" transform="translate(1142.429 428.752)"/>
    <rect id="矩形_1310" data-name="矩形 1310" class="cls-15" width="6.468" height="72.69" transform="translate(1154.746 409.197)"/>
    <rect id="矩形_1311" data-name="矩形 1311" class="cls-15" width="6.468" height="72.69" transform="translate(1167.063 409.197)"/>
    <path id="路径_1163" data-name="路径 1163" class="cls-9" d="M816.01,306.831l6.333-3.561,2.969,1.78,59.347,285.661-3.554.678-7.417-6.437Z" transform="translate(387.15 53.56)"/>
    <path id="路径_1164" data-name="路径 1164" class="cls-5" d="M826.29,303.27l58.762,288.119,3.554-.678L829.259,305.05Z" transform="translate(383.203 53.56)"/>
    <path id="路径_1165" data-name="路径 1165" class="cls-9" d="M755.38,328.62l45.167,4.324v3.493l-44.926-3.912Z" transform="translate(410.461 43.94)"/>
    <path id="路径_1166" data-name="路径 1166" class="cls-9" d="M762.766,397.7h47.9v5.113H762.15Z" transform="translate(407.86 17.398)"/>
    <path id="路径_1167" data-name="路径 1167" class="cls-9" d="M770.28,468.932l48.352-1.922,6.049,1.922v3.277l-42.961,2.261H770.674Z" transform="translate(404.71 -9.233)"/>
    <path id="路径_1168" data-name="路径 1168" class="cls-5" d="M789.466,472.791l42.345-2.661v3.277l-42.961,2.261Z" transform="translate(397.579 -10.431)"/>
    <path id="路径_1169" data-name="路径 1169" class="cls-5" d="M770.28,470.13l12.056,2.661-.616,2.877H770.674Z" transform="translate(404.745 -10.431)"/>
    <path id="路径_1170" data-name="路径 1170" class="cls-9" d="M777.39,545.653l53.384-4.953,5.883,1.534v3.419l-47.686,5.008L777.39,551.69Z" transform="translate(401.979 -37.548)"/>
    <path id="路径_1171" data-name="路径 1171" class="cls-5" d="M795.86,548.74l42.586-4.281,5.3-1.269v3.419l-47.686,5.008Z" transform="translate(394.887 -38.504)"/>
    <path id="路径_1172" data-name="路径 1172" class="cls-5" d="M776.23,552.828l12.093-.628.2,2.877-11.581,1.029Z" transform="translate(402.459 -41.964)"/>
    <path id="路径_1173" data-name="路径 1173" class="cls-9" d="M781.51,621.936l60.2-8,5.162,2.051V619.9l-51.931,7.811h-12.2Z" transform="translate(400.397 -65.689)"/>
    <path id="路径_1174" data-name="路径 1174" class="cls-5" d="M803.32,626.517l51.931-9.247v3.906l-51.931,7.811Z" transform="translate(392.023 -66.968)"/>
    <path id="路径_1175" data-name="路径 1175" class="cls-5" d="M782.68,632.348l12.715-.068v2.47h-12.2Z" transform="translate(399.981 -72.733)"/>
    <path id="路径_1176" data-name="路径 1176" class="cls-9" d="M787.28,699.744l66.037-12.314,5.846,3.437v2.717L801.22,707.642l-11.945.906Z" transform="translate(398.182 -93.95)"/>
    <path id="路径_1177" data-name="路径 1177" class="cls-5" d="M809.91,706.988l57.943-13.978v2.717L809.91,709.784Z" transform="translate(389.492 -96.092)"/>
    <path id="路径_1178" data-name="路径 1178" class="cls-5" d="M789.39,716.334l12.641-.634v2.8l-11.945.906Z" transform="translate(397.404 -104.805)"/>
    <path id="路径_1179" data-name="路径 1179" class="cls-9" d="M758.881,297.49l-5.341,1.189,19.294,307.173,5.637,2.076h4.454Z" transform="translate(411.172 55.779)"/>
    <path id="路径_1180" data-name="路径 1180" class="cls-5" d="M757.98,298.069l22.2,309.858h4.454L760.586,297.49Z" transform="translate(409.467 55.779)"/>
    <rect id="矩形_1312" data-name="矩形 1312" class="cls-6" width="45.586" height="47.261" transform="matrix(0.797, -0.603, 0.603, 0.797, 1139.918, 318.594)"/>
    <rect id="矩形_1313" data-name="矩形 1313" class="cls-2" width="45.586" height="47.261" transform="matrix(0.797, -0.603, 0.603, 0.797, 1139.918, 318.594)"/>
    <path id="路径_1181" data-name="路径 1181" class="cls-17" d="M810.3,286.659l-5.076-6.727,5.433.752.167-1.386-7.762-1.078L802,286l1.355.191.776-5.409,5.082,6.715Z" transform="translate(372.761 50.023)"/>
    <path id="路径_1182" data-name="路径 1182" class="cls-6" d="M788.864,260.19a7.14,7.14,0,0,1-11.366-6.776.573.573,0,0,1,.653-.48.579.579,0,0,1,.48.659,5.911,5.911,0,1,0,2.76-4.146l1.349,1.78a.579.579,0,0,1-.918.7l-1.713-2.261a.579.579,0,0,1,.111-.807,7.146,7.146,0,0,1,8.624,11.39Z" transform="translate(382.204 61.82)"/>
    <path id="路径_1183" data-name="路径 1183" class="cls-6" d="M781.832,257.222l4.374-.1a1.078,1.078,0,1,1,.055,2.15,1.043,1.043,0,0,1-.345-.049l-4.183-1.294a.357.357,0,0,1-.234-.45A.364.364,0,0,1,781.832,257.222Z" transform="translate(380.643 58.134)"/>
    <path id="路径_1184" data-name="路径 1184" class="cls-19" d="M825.976,405.634c-.456-1.651-.752-3.08-.752-3.08a6.5,6.5,0,0,0-.844-3.148v-.456h0l-.129-3.351a11.442,11.442,0,0,1,.782-1.786c.561-1.078-.191-4.928-.191-4.928s-2.464-5.359-2.033-8.834-5.187-15.154-5.187-15.154a14.927,14.927,0,0,1,.351-3.413,2.624,2.624,0,0,0,.037-.715.408.408,0,0,0,0-.086h0c-.166-2.273-2.131-6.474-2.131-6.474l-.068-8.144a23.968,23.968,0,0,0-1.158-11.205c-.745-2.224-1.232-4-1.552-5.384-.037-.154-.068-.308-.1-.45,3.832-.739,6.776-1.343,6.776-1.343s-2.6-9.277-4.177-10.854-2.981-6.684-2.981-6.684-1.041-6.585.154-8.569a12.769,12.769,0,0,0,1.232-5.322s2.821-2.218,3.148-3.166a15.487,15.487,0,0,0,.807-4.2c-.043-1.109-.443-2.094-.345-2.68s-.955-2.778-.511-3.85a2.776,2.776,0,0,0,.154-1.023v-.031h0a14.351,14.351,0,0,0-.357-2.735,7.829,7.829,0,0,0-2.932-1.429l-.074-.246-.191-.653a2.654,2.654,0,0,0-.289-.154v-.24l-.062-.949.376-2.156c.745-3.752-4.232-4.115-4.232-4.115a2.618,2.618,0,0,0-1.5-1.183c-1.01-.314.049,5.593.53,5.957a22.513,22.513,0,0,1,2.076,2.988h0l.086.148a2.108,2.108,0,0,0-.216.246l.24,1.281.037.2a5.149,5.149,0,0,0-.739,1.38,2.9,2.9,0,0,1,.807,2.076,6.652,6.652,0,0,0,.394,2.563c-.055-.055-.721-.727-1.349-.53s-2.39.795-2.39.795-1.325.283-1.189.573-.844,1.614-.844,1.614l-3.7-3.246c-.037-.1-.08-.2-.117-.308a8.5,8.5,0,0,1-.364-1.466,8.54,8.54,0,0,0,1.127-.413,2.465,2.465,0,0,0,.967-.672,3.85,3.85,0,0,0,.511-1.559,22.971,22.971,0,0,1,1.232-3.012,9.647,9.647,0,0,0,.511-5.341,3.548,3.548,0,0,0-.616-1.534c-.616-.776-1.688-1.066-2.464-1.676s-1.324-1.571-2.242-2.014a4.275,4.275,0,0,0-2.723-.129,14.656,14.656,0,0,0-5.033,2.082,2.588,2.588,0,0,1-1.669.616,2.279,2.279,0,0,1-1.232-.85s0-.037,0-.049l-.037-.049a6.243,6.243,0,0,0-.456,2.7,2.523,2.523,0,0,0,.037.425,1.183,1.183,0,0,0,0,.148.925.925,0,0,1,0,.129h0a1.055,1.055,0,0,1,0,.191,1.386,1.386,0,0,1-.32.493,3.08,3.08,0,0,0-.271.407,1.338,1.338,0,0,1,.043-.148,2.145,2.145,0,0,0-.333,1.146,1.164,1.164,0,0,0,.3.795,3.9,3.9,0,0,0,.616.444,6.416,6.416,0,0,0-.062,1.2,6.912,6.912,0,0,0,3.591,5.772c.049.1.092.2.136.3a8.576,8.576,0,0,1,.8,3.869.781.781,0,0,1-.037.29l-.123.154h0s-5.9.283-7.337-.924-3.388,3.209-3.388,3.209-2.1.493-2.538.1-2.908.055-2.908.055a5.341,5.341,0,0,0-3.739-1.232,10.946,10.946,0,0,0-2.766-1.4h-.074a3.08,3.08,0,0,0-1.337-.117,27.224,27.224,0,0,1-3.893-3.542c-.9-1.257-5.107-5.877-5.132-5.9v-.228l-.074-.7a2.11,2.11,0,0,1-.363.043l-.086-.234a12.77,12.77,0,0,0-.936-1.934s0-.881.216-1.109a17.14,17.14,0,0,0-.24-3.437s-2.846-6.012-5.014-1.355c0,0-4.312,3.123-.468,6.419,0,0,1.509.659,1.743,1.232.154.37.7,1.38,1.06,2.051l.166.3-.043.037.08.573v.222c-.684.425-1.14.838-1.016,1.134a6.5,6.5,0,0,1,.487,1.559s5.39,6.24,6.16,8.969c0,0,14.1,7.663,18.659,8.076l-.616,4.121s-.148,2.464-.055,3.345-.357,4.879-.357,4.879-.561,5.883-1.2,6.727-.376,4.355-.376,4.355a29.52,29.52,0,0,1-.715,5.008,12.741,12.741,0,0,0,0,4.984s-2.094,5.353,3.271,1.571c0,0,2.7-.271,5.8-.5v1.6c.074,3.018.216,7.177.474,10.318.456,5.544,2.575,16.491,2.575,16.491l.209,5.544a8.014,8.014,0,0,0-.1,1.589,10.281,10.281,0,0,0,1.7,5.476l.567,3.7a14.35,14.35,0,0,1,1.164,3.838,2.137,2.137,0,0,1-.031.357,2.281,2.281,0,0,0,0,.567,31.117,31.117,0,0,0,1.17,5.643s.216,4.035.832,4.244-.616,2.353-.943,2.975v-.111l-.068.123a2.965,2.965,0,0,0-.154,1.029,1.479,1.479,0,0,0,.727,1.392c1.177.659,1.817,1.232.85,1.491a10.492,10.492,0,0,0-1.053.265c0-.043-.043-.092-.055-.129a.616.616,0,0,0-.376.721,3.081,3.081,0,0,0,.413,1.355,14.735,14.735,0,0,0,1.756,2.92l.462-.068a2.313,2.313,0,0,1-.253.511,1.9,1.9,0,0,1-.659.616,2.231,2.231,0,0,1-.813.32,2.31,2.31,0,0,0-1.682.9,1.781,1.781,0,0,0,.314,2.766l4.386,1.324s7.435.6,7-1.041-.758-3.08-.758-3.08a6.683,6.683,0,0,0-.715-2.938,3.93,3.93,0,0,0-.283-.425l.265-.037s.4-3.7,1.1-4.442c.166-.166.2-.3.154-.388.068-.2-.129-.314-.376-.37a.788.788,0,0,1-.043.148,3.7,3.7,0,0,0-.727-.055s-.314-1.922.443-2.655a.739.739,0,0,0,.129-.579,3.122,3.122,0,0,0-.111-.782.15.15,0,0,0,0,.043,28.656,28.656,0,0,0-1.916-4.466,5.541,5.541,0,0,1,.333-2.464c.456-.708-.431-9.536-.431-9.536a29.6,29.6,0,0,0-.616-6.253,7.052,7.052,0,0,1,.5-4.355v-.123h0s-.037-.265-.1-.671v.043c-.166-1.127-.474-3.166-.684-4.109-.289-1.337-.234-7.787-.234-7.787l.98-2.791,2.119,4.663,2.3,6.24A5.4,5.4,0,0,1,807.391,364v.2a3.36,3.36,0,0,0,0,.425,3.789,3.789,0,0,0,.715,2.23s.659,2.963,1.534,3.7a3.382,3.382,0,0,1,.93,2.193,36.747,36.747,0,0,0,1.706,5.033,7.5,7.5,0,0,1,.542,2.926h0v.16s.2,1.54.246,2.846v.425a4.835,4.835,0,0,1-.135.98.212.212,0,0,0,0,.062v-.222a10.982,10.982,0,0,0-.2,2.711,6.939,6.939,0,0,0,1.325,4.441c1.706,1.811,2.723,1.534,2.723,1.534s-.7,2.372-1.645,2.877a.373.373,0,0,0-.1.074,1.338,1.338,0,0,1,0-.136,1.121,1.121,0,0,0-.253.881,6.246,6.246,0,0,0,1.331,3.425,1.935,1.935,0,0,0,.838.444l-.148.1a2.461,2.461,0,0,1-.327.172,1.75,1.75,0,0,1-.493.148,2.322,2.322,0,0,0-1.682.9,1.786,1.786,0,0,0,.32,2.766l4.38,1.324S826.438,407.285,825.976,405.634Z" transform="translate(392.011 55.099)"/>
    <path id="路径_1185" data-name="路径 1185" class="cls-20" d="M823.091,494.4l-4.244-1.331a1.816,1.816,0,0,1-.308-2.766,2.237,2.237,0,0,1,1.626-.9,1.945,1.945,0,0,0,.789-.314,1.849,1.849,0,0,0,.616-.616,3.079,3.079,0,0,0,.413-1.639s4.546-1.522,5.852-.222a3.215,3.215,0,0,1,.616.795,6.774,6.774,0,0,1,.7,2.932s.3,1.454.739,3.08S823.091,494.4,823.091,494.4Z" transform="translate(366.599 -29.845)"/>
    <path id="路径_1186" data-name="路径 1186" class="cls-20" d="M856.22,489.808l-4.244-1.331a1.822,1.822,0,0,1-.314-2.766,2.2,2.2,0,0,1,1.626-.9,1.4,1.4,0,0,0,.474-.148,2.637,2.637,0,0,0,.314-.166,2.671,2.671,0,0,0,1.059-2.273s4.54-1.522,5.852-.222a3.241,3.241,0,0,1,.462.579,6.7,6.7,0,0,1,.825,3.154s.29,1.454.733,3.08S856.22,489.808,856.22,489.808Z" transform="translate(353.845 -28.074)"/>
    <path id="路径_1187" data-name="路径 1187" class="cls-5" d="M830.11,486.593a3.218,3.218,0,0,1,.616.795h0l-6.856,1.066a3.08,3.08,0,0,0,.413-1.639S828.792,485.293,830.11,486.593Z" transform="translate(364.36 -29.836)"/>
    <path id="路径_1188" data-name="路径 1188" class="cls-5" d="M863.068,482.542l.049,1.287c-1,1.811-6.2,1.62-7.737.795a2.614,2.614,0,0,0,.314-.166,2.67,2.67,0,0,0,1.059-2.273s4.54-1.522,5.852-.222A3.243,3.243,0,0,1,863.068,482.542Z" transform="translate(352.228 -28.058)"/>
    <path id="路径_1189" data-name="路径 1189" class="cls-21" d="M845.525,431.742a11.715,11.715,0,0,0-.751,1.786l.179,4.62c-1.1,1.977-7.207,1.571-8.07.548s-1.848-3.739-.924-4.244,1.589-2.877,1.589-2.877-.986.277-2.637-1.54-1.343-5.982-1.09-6.992a20.72,20.72,0,0,0-.166-4.312,8.623,8.623,0,0,0-.53-3.08,38.011,38.011,0,0,1-1.657-5.033,3.449,3.449,0,0,0-.906-2.193c-.85-.727-1.491-3.7-1.491-3.7a3.87,3.87,0,0,1-.684-2.464,5.079,5.079,0,0,0-1.109-3.006l-2.236-6.246-2.051-4.669-.949,2.791s-.049,6.45.24,7.787.776,4.9.776,4.9a7.205,7.205,0,0,0-.481,4.355,30.443,30.443,0,0,1,.616,6.246s.869,8.821.425,9.536a5.641,5.641,0,0,0-.314,2.464s2.6,5.058,1.848,5.791-.425,2.655-.425,2.655,1.639-.068.961.665-1.06,4.435-1.06,4.435l-7.047,1.09a14.979,14.979,0,0,1-1.7-2.92c-1.016-2.131.1-1.94,1.035-2.211s.314-.832-.825-1.491-.554-2.267-.554-2.267,1.589-2.932.992-3.142-.807-4.251-.807-4.251-1.355-4.749-1.109-6.049-1.109-4.355-1.109-4.355l-.548-3.7a10.139,10.139,0,0,1-1.559-6.912l-.215-5.68s-2.064-10.941-2.513-16.491c-.283-3.554-.431-8.415-.5-11.452-.037-1.7-.049-2.828-.049-2.828L833.3,363.69a20.752,20.752,0,0,0,.616,3.739c.308,1.38.782,3.16,1.5,5.384a24.67,24.67,0,0,1,1.133,11.212l.08,8.144s2.464,5.359,2.039,7.244a15.768,15.768,0,0,0-.339,3.413s5.433,11.7,5.039,15.166,1.977,8.834,1.977,8.834S846.073,430.664,845.525,431.742Z" transform="translate(370.403 17.171)"/>
    <path id="路径_1190" data-name="路径 1190" class="cls-22" d="M843.47,424.738l7.657-1.318S846.938,428.034,843.47,424.738Z" transform="translate(356.801 -5.766)"/>
    <path id="路径_1191" data-name="路径 1191" class="cls-5" d="M852.852,411.28s.37,2.71-1.232,3.8C851.6,415.081,854.558,414.5,852.852,411.28Z" transform="translate(353.672 -1.102)"/>
    <path id="路径_1192" data-name="路径 1192" class="cls-5" d="M846.761,397.25s-6.234,5.544-8.587,5.193S846.761,397.25,846.761,397.25Z" transform="translate(358.962 4.289)"/>
    <path id="路径_1193" data-name="路径 1193" class="cls-5" d="M825.068,430.2s-4.842,1.3-4.928,3.265S825.068,430.2,825.068,430.2Z" transform="translate(365.794 -8.371)"/>
    <path id="路径_1194" data-name="路径 1194" class="cls-22" d="M828.153,469.75s-6.856,1.552-4.86,2.353a33.448,33.448,0,0,0,5.236,1.38S830.759,473.514,828.153,469.75Z" transform="translate(364.721 -23.567)"/>
    <g id="组_1544" data-name="组 1544" class="cls-23" transform="translate(1178.511 384.254)">
      <path id="路径_1195" data-name="路径 1195" d="M820.788,475.309a1.361,1.361,0,0,1-.671-.979l-.068.129s-.579,1.6.561,2.261l.37.228c.2-.049.425-.086.616-.148C822.543,476.529,821.927,475.975,820.788,475.309Z" transform="translate(-812.631 -409.568)"/>
      <path id="路径_1196" data-name="路径 1196" d="M835.54,473.832c.185-.179.16-.616,0-1.232a3.3,3.3,0,0,0-.327,1.706A1.393,1.393,0,0,1,835.54,473.832Z" transform="translate(-818.507 -408.903)"/>
      <path id="路径_1197" data-name="路径 1197" d="M831.968,427.4a8.007,8.007,0,0,0-.388,2.175,8.69,8.69,0,0,1,.48-1.5S832.024,427.813,831.968,427.4Z" transform="translate(-817.116 -391.548)"/>
      <path id="路径_1198" data-name="路径 1198" d="M857.615,421.027a2.971,2.971,0,0,0,.043-.647c-.074.444-.117.85-.148,1.232C857.541,421.378,857.578,421.218,857.615,421.027Z" transform="translate(-827.072 -388.852)"/>
      <path id="路径_1199" data-name="路径 1199" d="M833.143,460.376a3.91,3.91,0,0,0,.123-1.306,4.491,4.491,0,0,0-.277,1.651A1.616,1.616,0,0,1,833.143,460.376Z" transform="translate(-817.657 -403.708)"/>
      <path id="路径_1200" data-name="路径 1200" d="M830.048,479a22.825,22.825,0,0,0-.665,3.628l-7.047,1.09a14.965,14.965,0,0,1-1.7-2.92c-.093-.191-.16-.357-.222-.511-.413.209-.567.659.043,1.922a14.543,14.543,0,0,0,1.7,2.926l7.041-1.1s.388-3.7,1.06-4.435C830.59,479.253,830.362,479.086,830.048,479Z" transform="translate(-812.689 -411.361)"/>
      <path id="路径_1201" data-name="路径 1201" d="M815.7,426.7s.216,4.035.813,4.244h0c.271-.684.443-1.324.179-1.417-.616-.216-.807-4.251-.807-4.251s-1.355-4.75-1.115-6.049-1.1-4.355-1.1-4.355l-.554-3.7a10.127,10.127,0,0,1-1.552-6.918l-.222-5.674s-2.064-10.941-2.507-16.491c-.29-3.554-.431-8.415-.5-11.452,0-.548,0-1.035-.031-1.441h-.2s0,1.127.049,2.834c.068,3.031.216,7.891.5,11.446.45,5.544,2.513,16.491,2.513,16.491l.216,5.68a10.14,10.14,0,0,0,1.589,6.967l.548,3.7s1.349,3.08,1.109,4.355S815.7,426.7,815.7,426.7Z" transform="translate(-808.1 -369.2)"/>
      <path id="路径_1202" data-name="路径 1202" d="M854.177,481.191a6.892,6.892,0,0,1-1.232-2.741c-.7.684.228,3.185,1.047,4.152s6.967,1.435,8.064-.542l-.043-1.115C860.5,482.571,854.991,482.158,854.177,481.191Z" transform="translate(-825.224 -411.15)"/>
      <path id="路径_1203" data-name="路径 1203" d="M868.662,471.579a10.97,10.97,0,0,0-.752,1.786l.031.819a12.832,12.832,0,0,1,.542-1.2,3.6,3.6,0,0,0,.2-1.46Z" transform="translate(-831.066 -408.493)"/>
      <path id="路径_1204" data-name="路径 1204" d="M853.113,468.341a11.437,11.437,0,0,0,.524-1.417s-.986.277-2.643-1.54c-1.2-1.318-1.362-3.887-1.232-5.544-.259,1-.567,5.181,1.084,6.992A4.12,4.12,0,0,0,853.113,468.341Z" transform="translate(-824.018 -404.004)"/>
      <path id="路径_1205" data-name="路径 1205" d="M842.433,432.947a31.085,31.085,0,0,1,.253,3.462,2.194,2.194,0,0,1,.1-.548,20.316,20.316,0,0,0-.166-4.312,8.764,8.764,0,0,0-.53-3.08,39.155,39.155,0,0,1-1.663-5.033,3.443,3.443,0,0,0-.905-2.193c-.844-.727-1.485-3.7-1.485-3.7a3.8,3.8,0,0,1-.684-2.464,5.111,5.111,0,0,0-1.115-3.006l-2.23-6.246-2.058-4.669L831,403.9v.893l.77-2.267,2.058,4.669,2.23,6.24a5.112,5.112,0,0,1,1.115,3.006,3.825,3.825,0,0,0,.678,2.464s.616,2.963,1.491,3.7a3.432,3.432,0,0,1,.905,2.187,38.4,38.4,0,0,0,1.657,5.039A8.9,8.9,0,0,1,842.433,432.947Z" transform="translate(-816.893 -381.472)"/>
    </g>
    <path id="路径_1206" data-name="路径 1206" class="cls-24" d="M847.123,274.35l-.357,2.15.062.955.049.7-2.433.345-.3-.493h0a21.7,21.7,0,0,0-2.008-2.994c-.468-.363-1.5-6.271-.524-5.957a2.569,2.569,0,0,1,1.411,1.177S847.856,270.6,847.123,274.35Z" transform="translate(357.669 53.55)"/>
    <path id="路径_1207" data-name="路径 1207" class="cls-5" d="M848.709,283.24l-2.433.345-.3-.493h0a2.15,2.15,0,0,1,2.68-.548Z" transform="translate(355.837 48.459)"/>
    <path id="路径_1208" data-name="路径 1208" class="cls-25" d="M849.291,284.53l-3.191.875-.086-.48-.234-1.281a2.224,2.224,0,0,1,3.08-.548l.185.653Z" transform="translate(355.914 48.302)"/>
    <path id="路径_1209" data-name="路径 1209" class="cls-24" d="M761.542,274.981l-3.364,1.977-.339-.616c-.351-.672-.881-1.688-1.029-2.051-.228-.561-1.688-1.232-1.688-1.232-3.733-3.3.444-6.419.444-6.419,2.094-4.651,4.86,1.361,4.86,1.361s.474,3.209.234,3.437-.209,1.109-.209,1.109a12.821,12.821,0,0,1,.905,1.934C761.48,274.808,761.542,274.981,761.542,274.981Z" transform="translate(391.364 55.15)"/>
    <path id="路径_1210" data-name="路径 1210" class="cls-5" d="M764.2,280.976l-3.363,1.977-.339-.616c.468-.425,2.138-1.885,2.7-1.848a4.628,4.628,0,0,0,.813,0C764.141,280.8,764.2,280.976,764.2,280.976Z" transform="translate(388.704 49.152)"/>
    <path id="路径_1211" data-name="路径 1211" class="cls-25" d="M764.667,282.14l-3.782,2.021-.1-.832-.08-.567s2.169-2.008,2.828-1.959a3.387,3.387,0,0,0,1.01-.043l.074.7Z" transform="translate(388.627 49.048)"/>
    <path id="路径_1212" data-name="路径 1212" class="cls-24" d="M827.744,293.223s-16.768,2.55-13.663,1.4a4.153,4.153,0,0,0,3.08-3.776,8.85,8.85,0,0,0-.776-3.875,16.525,16.525,0,0,0-1.62-2.982s12.6-7.577,10.275-1.041a10.381,10.381,0,0,0-.616,3.08,8.66,8.66,0,0,0,.45,3.08,9.24,9.24,0,0,0,2.871,4.109Z" transform="translate(368.266 49.225)"/>
    <path id="路径_1213" data-name="路径 1213" class="cls-5" d="M825.745,282.953a10.381,10.381,0,0,0-.616,3.08c-1.171,1.066-2.507,1.047-4.214,1.115-1.312.049-2.754.425-3.826-.172a16.543,16.543,0,0,0-1.62-2.982S828.074,276.418,825.745,282.953Z" transform="translate(367.586 49.225)"/>
    <circle id="椭圆_71" data-name="椭圆 71" class="cls-24" cx="6.967" cy="6.967" r="6.967" transform="translate(1181.06 322.897)"/>
    <path id="路径_1214" data-name="路径 1214" class="cls-5" d="M827.744,298.32s-16.768,2.55-13.663,1.4a4.153,4.153,0,0,0,3.08-3.776A9.369,9.369,0,0,1,820.7,293.9a5.058,5.058,0,0,1,3.049-.166,4.31,4.31,0,0,1,1.127.474,9.241,9.241,0,0,0,2.871,4.115Z" transform="translate(368.266 44.125)"/>
    <path id="路径_1215" data-name="路径 1215" class="cls-5" d="M849.437,285.126l-3.191.875-.086-.48a2.846,2.846,0,0,1,3.08-1.177Z" transform="translate(355.768 47.706)"/>
    <path id="路径_1216" data-name="路径 1216" class="cls-5" d="M764.717,282.589l-3.782,2.021-.1-.832a28.62,28.62,0,0,1,3.832-1.848Z" transform="translate(388.577 48.598)"/>
    <path id="路径_1217" data-name="路径 1217" class="cls-5" d="M833.927,367.429c-6.487,1.281-15.715,2.982-17.205,2.587-1.232-.327-5.138-.136-8.532.111-.037-1.7-.049-2.828-.049-2.828l25.171-3.61A20.758,20.758,0,0,0,833.927,367.429Z" transform="translate(370.398 17.183)"/>
    <path id="路径_1218" data-name="路径 1218" class="cls-26" d="M821.577,334.382s-21.339,4.515-23.674,3.9-14.168.616-14.168.616c-5.187,3.776-3.166-1.577-3.166-1.577a13.021,13.021,0,0,1,0-4.984,30.343,30.343,0,0,0,.7-5.021s-.253-3.505.357-4.349,1.146-6.727,1.146-6.727.431-4,.345-4.879.043-3.345.043-3.345l.616-4.121c-4.411-.419-18.068-8.1-18.068-8.1-.751-2.723-5.975-8.969-5.975-8.969a6.6,6.6,0,0,0-.468-1.565c-.388-.924,4.8-3,4.8-3s4.109,4.651,4.977,5.908a26.549,26.549,0,0,0,3.77,3.542,2.809,2.809,0,0,1,1.294.123.274.274,0,0,1,.068,0h0a10.413,10.413,0,0,1,2.68,1.4,5.076,5.076,0,0,1,3.616,1.232s2.39-.444,2.815-.049,2.464-.092,2.464-.092,1.879-4.411,3.277-3.2,7.1.93,7.1.93c.721-1.041,2.544-1.848,3.7-2.261a5.063,5.063,0,0,1,3.049-.166,3.94,3.94,0,0,1,1.232.536l3.591,3.259s.949-1.324.819-1.614,1.152-.567,1.152-.567,1.676-.616,2.31-.795,1.232.474,1.312.53a6.779,6.779,0,0,1-.394-2.556,2.927,2.927,0,0,0-.782-2.082c1.848-5.113,6.641-1.078,6.641-1.078s.616,2.735.2,3.807.616,3.259.5,3.844a25.779,25.779,0,0,0,.339,2.686,15.966,15.966,0,0,1-.776,4.189c-.314.955-3.043,3.166-3.043,3.166a12.859,12.859,0,0,1-1.232,5.322c-1.189,1.977-.142,8.563-.142,8.563s1.374,5.107,2.9,6.69S821.577,334.382,821.577,334.382Z" transform="translate(389.173 48.465)"/>
    <path id="路径_1219" data-name="路径 1219" class="cls-5" d="M805.307,304.137s-.721-1.9-1.312-2.058a13.816,13.816,0,0,1-1.725-.7l.351-.733s2.218.517,2.594,1.146A5.068,5.068,0,0,1,805.307,304.137Z" transform="translate(372.658 41.405)"/>
    <path id="路径_1220" data-name="路径 1220" class="cls-5" d="M784.545,299.223c-.1.616-5.285,1.318-5.285,1.318l2.532-2.741h.068A10.416,10.416,0,0,1,784.545,299.223Z" transform="translate(381.497 42.5)"/>
    <circle id="椭圆_72" data-name="椭圆 72" class="cls-21" cx="0.468" cy="0.468" r="0.468" transform="translate(1150.196 333.804)"/>
    <circle id="椭圆_73" data-name="椭圆 73" class="cls-21" cx="0.468" cy="0.468" r="0.468" transform="translate(1150.83 334.715)"/>
    <circle id="椭圆_74" data-name="椭圆 74" class="cls-21" cx="0.468" cy="0.468" r="0.468" transform="translate(1151.452 335.559)"/>
    <circle id="椭圆_75" data-name="椭圆 75" class="cls-21" cx="0.468" cy="0.468" r="0.468" transform="translate(1152.099 336.47)"/>
    <circle id="椭圆_76" data-name="椭圆 76" class="cls-21" cx="0.382" cy="0.382" r="0.382" transform="translate(1207.306 334.383)"/>
    <circle id="椭圆_77" data-name="椭圆 77" class="cls-21" cx="0.382" cy="0.382" r="0.382" transform="translate(1207.398 335.245)"/>
    <circle id="椭圆_78" data-name="椭圆 78" class="cls-21" cx="0.382" cy="0.382" r="0.382" transform="translate(1207.484 336.101)"/>
    <path id="路径_1221" data-name="路径 1221" class="cls-5" d="M808.24,332.06c-.062-.068,13.774,16.084,23.649,6.062C831.889,338.121,815.786,340.943,808.24,332.06Z" transform="translate(370.361 29.336)"/>
    <path id="路径_1222" data-name="路径 1222" class="cls-5" d="M796.47,346.59s7.9-.086,8.821,2.15l.086,2.366a1.5,1.5,0,0,1-1.466.055c-.813-.4-5.68-2.643-7.318-1.411Z" transform="translate(374.885 23.754)"/>
    <path id="路径_1223" data-name="路径 1223" class="cls-26" d="M796.71,346.58s7.559-.086,8.433,2.051l.086,2.255a1.448,1.448,0,0,1-1.4.049c-.776-.376-5.433-2.513-7-1.343Z" transform="translate(374.793 23.758)"/>
    <path id="路径_1224" data-name="路径 1224" class="cls-5" d="M802.4,318.49a25.348,25.348,0,0,0,3.265,5.138,20.589,20.589,0,0,0,4.971,4.441S802.573,319.574,802.4,318.49Z" transform="translate(372.607 34.55)"/>
    <path id="路径_1225" data-name="路径 1225" class="cls-5" d="M797.63,303.76s1.54,5.637,5.008,7.435Z" transform="translate(374.44 40.21)"/>
    <path id="路径_1226" data-name="路径 1226" class="cls-5" d="M794.338,304.819c-.037-.1-1,4.54,4.645,6.875C798.983,311.706,796.6,310.985,794.338,304.819Z" transform="translate(375.737 39.804)"/>
    <path id="路径_1227" data-name="路径 1227" class="cls-5" d="M850.109,296.474c-.086,0,2.809,1.694,3.6,2.464C853.737,298.969,851.772,296.29,850.109,296.474Z" transform="translate(354.252 43.013)"/>
    <path id="路径_1228" data-name="路径 1228" class="cls-20" d="M817.036,281.309a1.1,1.1,0,0,0,1.244,1.041,14.074,14.074,0,0,0,6.271-.838,2.384,2.384,0,0,0,.936-.671,3.93,3.93,0,0,0,.5-1.559,21.886,21.886,0,0,1,1.171-3.012,9.969,9.969,0,0,0,.487-5.335,3.648,3.648,0,0,0-.616-1.534c-.616-.782-1.632-1.072-2.4-1.682s-1.288-1.571-2.175-2.021a4.06,4.06,0,0,0-2.637-.129,13.894,13.894,0,0,0-4.836,2.027,2.427,2.427,0,0,1-1.614.616,2.254,2.254,0,0,1-1.232-.875,6.431,6.431,0,0,0-.4,3.049,1.445,1.445,0,0,1,0,.462,1.385,1.385,0,0,1-.308.493,1.772,1.772,0,0,0-.246,2.2c.234.259.616.394.819.653.407.474.3,1.183.32,1.811a.913.913,0,0,0,.172.616.893.893,0,0,0,.869.173,2.465,2.465,0,0,1,.912-.123,1.553,1.553,0,0,1,.819.585A10.826,10.826,0,0,1,817.036,281.309Z" transform="translate(369.345 54.944)"/>
    <g id="组_1545" data-name="组 1545" class="cls-14" transform="translate(1180.269 322.251)">
      <path id="路径_1229" data-name="路径 1229" d="M825.721,284.158a2.378,2.378,0,0,1-.93.671,14.1,14.1,0,0,1-6.277.832,1.417,1.417,0,0,1-.659-.123,1.448,1.448,0,0,1-.579-.918,10.914,10.914,0,0,0-1.934-4.053,1.509,1.509,0,0,0-.819-.579,2.335,2.335,0,0,0-.912.123.918.918,0,0,1-.868-.172.948.948,0,0,1-.179-.616,2.7,2.7,0,0,0-.32-1.811c-.228-.265-.579-.394-.819-.659a1.367,1.367,0,0,1-.185-1.392,1.608,1.608,0,0,0,0,1.848c.24.259.616.388.819.653.413.474.308,1.183.32,1.811a.949.949,0,0,0,.179.616.887.887,0,0,0,.869.172,2.464,2.464,0,0,1,.912-.123,1.553,1.553,0,0,1,.819.585,10.841,10.841,0,0,1,1.934,4.047,1.479,1.479,0,0,0,.579.924,1.5,1.5,0,0,0,.659.123,14.161,14.161,0,0,0,6.277-.838,2.322,2.322,0,0,0,.93-.671,1.85,1.85,0,0,0,.283-.573Z" transform="translate(-810.946 -271.166)"/>
      <path id="路径_1230" data-name="路径 1230" d="M812.265,271.884a.956.956,0,0,0,.2-.363,1.231,1.231,0,0,0,0-.456,6.514,6.514,0,0,1,.228-2.532l-.037-.043a6.436,6.436,0,0,0-.406,3.049A1.623,1.623,0,0,1,812.265,271.884Z" transform="translate(-811.431 -268.49)"/>
    </g>
    <path id="路径_1231" data-name="路径 1231" class="cls-5" d="M819.12,297.824s8.747.819,9.474-.524" transform="translate(366.184 42.693)"/>
    <path id="路径_1232" data-name="路径 1232" class="cls-5" d="M846.35,291.247s4.836-.185,5.969,1.589" transform="translate(355.695 45.021)"/>
    <rect id="矩形_1314" data-name="矩形 1314" class="cls-6" width="45.586" height="47.261" transform="matrix(1, 0.002, -0.002, 1, 1211.048, 551.228)"/>
    <rect id="矩形_1315" data-name="矩形 1315" class="cls-6" width="45.586" height="47.261" transform="matrix(1, 0.002, -0.002, 1, 1211.048, 551.228)"/>
    <path id="路径_1233" data-name="路径 1233" class="cls-17" d="M895.05,699.316V690.9l3.875,3.887.973-1-5.544-5.544-5.544,5.544.967.967,3.887-3.838v8.421Z" transform="translate(339.391 -107.548)"/>
    <path id="路径_1234" data-name="路径 1234" class="cls-7" d="M885.549,655.232h7.559V647.68h-.542a7.029,7.029,0,0,0-7.035,7.029C885.53,654.875,885.536,655.066,885.549,655.232Z" transform="translate(340.651 -91.933)"/>
    <path id="路径_1235" data-name="路径 1235" class="cls-7" d="M888.848,660.885a7.035,7.035,0,1,0,6.025-11.415V657H887.32a7.01,7.01,0,0,0,1.528,3.881Z" transform="translate(339.963 -92.623)"/>
    <path id="路径_1241" data-name="路径 1241" class="cls-27" d="M220.3,91.577s-4.374-.524-5.612,2.384a3.622,3.622,0,0,1,1.571.092,2.23,2.23,0,0,0,1.023.2A5.864,5.864,0,0,1,220.3,91.577Z" transform="translate(598.404 121.75)"/>
    <path id="路径_1255" data-name="路径 1255" class="cls-27" d="M254.131,106.044s-3.456-2.735-6.031-.9a3.549,3.549,0,0,1,1.287.9,2.236,2.236,0,0,0,.776.7,5.846,5.846,0,0,1,3.967-.7Z" transform="translate(585.539 116.77)"/>
    <path id="路径_1290" data-name="路径 1290" class="cls-27" d="M283.875,180.333s1.639-4.1-.85-6.043a3.56,3.56,0,0,1-.5,1.5,2.217,2.217,0,0,0-.456.936,5.84,5.84,0,0,1,1.8,3.61Z" transform="translate(572.489 89.976)"/>
    <path id="路径_1317" data-name="路径 1317" class="cls-28" d="M172.956,396.738a66.575,66.575,0,0,0-11.507,10.713c-1.491,2.125-5.267,4.54-5.267,4.54l-2.661,1.6a3.48,3.48,0,0,0-.918.881,6.521,6.521,0,0,0-.413.616l3.832,4.466s1.053-.813,2.218-1.848a12.534,12.534,0,0,0,2.938-3.382c.69-1.8,4.971-3.887,4.971-3.887s7.941-4.7,8.852-5.483a15.767,15.767,0,0,1,2.852-1.916c.542-.3,1.17-.616,1.9-.93a43.74,43.74,0,0,0,5.883-3.53l-3.7-5.544-6.776,2.766a4.879,4.879,0,0,0-2.205.943Z" transform="translate(622.403 5.907)"/>
    <path id="路径_1318" data-name="路径 1318" class="cls-5" d="M232.683,480.8c-.166.29-.283.462-.283.462l1.46,2.464,2.353.585s4.035-1.343,2.828-4a4.06,4.06,0,0,1-.271-1.682c-1.232.289-1.657,2.014-1.657,2.014s-.16.715-2.045,1.38A1.983,1.983,0,0,1,232.683,480.8Z" transform="translate(591.57 -26.98)"/>
    <path id="路径_1321" data-name="路径 1321" class="cls-5" d="M152.72,427.575H152.6a6.528,6.528,0,0,0-.413.616l3.832,4.466s1.053-.813,2.218-1.848c-.314-2.292-5.156-3.659-5.156-3.659Z" transform="translate(622.403 -7.2)"/>
    <path id="路径_1322" data-name="路径 1322" class="cls-29" d="M146.58,428.956s.363,4.959,1.441,6.776c.813,1.392,1.522,1.158,2.883.45.431-.228.93-.5,1.522-.788,2.464-1.183,2.507-2.4,2.507-2.4,3.585-3.505-4.232-5.717-4.232-5.717l-.363.45a5.544,5.544,0,0,0-2.556.542,7.451,7.451,0,0,0-1.2.684Z" transform="translate(624.556 -7.25)"/>
    <path id="路径_1323" data-name="路径 1323" class="cls-5" d="M146.58,429.566s.363,4.959,1.441,6.776c.813,1.392,1.522,1.158,2.883.45a4.928,4.928,0,0,1-2.532-3.08,15.24,15.24,0,0,1-.616-4.842,7.445,7.445,0,0,0-1.177.7Z" transform="translate(624.556 -7.861)"/>
    <g id="undraw_Mobile_life_re_jtih" transform="translate(697.534 392.947)">
      <path id="路径_1384" data-name="路径 1384" class="cls-12" d="M617.616,178.121h-.911V132.4a15.644,15.644,0,0,0-15.644-15.644H499.233A15.644,15.644,0,0,0,483.589,132.4v20.034h-.345a.919.919,0,0,0-.919.919v8.96a.919.919,0,0,0,.919.919h.345V172.2h-.425a.919.919,0,0,0-.919.919V190.07a.919.919,0,0,0,.919.919h.425v6.576H483.2a.919.919,0,0,0-.919.919V215.6a.919.919,0,0,0,.919.919h.385V371.647a15.644,15.644,0,0,0,15.644,15.644H601.062a15.644,15.644,0,0,0,15.644-15.644V210.914h.911a.919.919,0,0,0,.919-.919V179.04A.919.919,0,0,0,617.616,178.121Z" transform="translate(-482.245 -116.753)"/>
      <path id="路径_1385" data-name="路径 1385" class="cls-6" d="M636.212,140.56H620.728a1.755,1.755,0,0,1-1.753-1.753v-.67a1.755,1.755,0,0,1,1.753-1.753h15.483a1.755,1.755,0,0,1,1.753,1.753v.67A1.755,1.755,0,0,1,636.212,140.56Z" transform="translate(-564.115 -128.507)"/>
      <circle id="椭圆_84" data-name="椭圆 84" class="cls-6" cx="2.143" cy="2.143" r="2.143" transform="translate(76.459 7.824)"/>
      <path id="路径_1386" data-name="路径 1386" class="cls-6" d="M612.187,134.313H596.94v1.834a8.707,8.707,0,0,1-8.707,8.707H539.66a8.7,8.7,0,0,1-8.707-8.7v-1.842h-14.3a10.572,10.572,0,0,0-10.572,10.572h0v235.3a10.572,10.572,0,0,0,10.572,10.572h95.529a10.569,10.569,0,0,0,10.568-10.568v-235.3a10.569,10.569,0,0,0-10.565-10.572Z" transform="translate(-496.52 -127.267)"/>
      <path id="路径_1387" data-name="路径 1387" class="cls-18" d="M624.935,669.359H584.009a11.034,11.034,0,0,1,0-22.068h40.926a11.034,11.034,0,0,1,0,22.068Z" transform="translate(-536.571 -434.423)"/>
      <path id="路径_1388" data-name="路径 1388" class="cls-30" d="M627.811,465.026H554.787a3.812,3.812,0,0,1,0-7.623h73.024a3.812,3.812,0,0,1,0,7.623Z" transform="translate(-523.398 -320.724)"/>
      <path id="路径_1389" data-name="路径 1389" class="cls-30" d="M627.811,493.026H554.787a3.812,3.812,0,0,1,0-7.623h73.024a3.812,3.812,0,0,1,0,7.623Z" transform="translate(-523.398 -337.489)"/>
      <path id="路径_1390" data-name="路径 1390" class="cls-30" d="M627.811,521.026H554.787a3.812,3.812,0,0,1,0-7.623h73.024a3.812,3.812,0,0,1,0,7.623Z" transform="translate(-523.398 -354.255)"/>
      <path id="路径_1391" data-name="路径 1391" class="cls-30" d="M627.811,549.026H554.787a3.812,3.812,0,0,1,0-7.623h73.024a3.812,3.812,0,0,1,0,7.623Z" transform="translate(-523.398 -371.02)"/>
      <path id="路径_1392" data-name="路径 1392" class="cls-30" d="M578.058,577.026H554.787a3.812,3.812,0,0,1,0-7.623h23.272a3.812,3.812,0,1,1,0,7.623Z" transform="translate(-523.398 -387.786)"/>
      <path id="路径_1393" data-name="路径 1393" class="cls-30" d="M623.1,282.811H527.218a3.2,3.2,0,0,1-3.2-3.2V208.451a3.2,3.2,0,0,1,3.2-3.2H623.1a3.2,3.2,0,0,1,3.2,3.2v71.163A3.2,3.2,0,0,1,623.1,282.811Z" transform="translate(-507.259 -169.745)"/>
      <g id="组_1550" data-name="组 1550" class="cls-14" transform="translate(132.809 91.092)">
        <path id="路径_1394" data-name="路径 1394" d="M813.264,345.444v-1.661a12.591,12.591,0,0,0,0,1.288C813.26,345.2,813.264,345.32,813.264,345.444Z" transform="translate(-813.248 -343.783)"/>
      </g>
    </g>
  </g>
</svg>
